<?xml version="1.0" encoding="utf-8" standalone="no"?>
<!DOCTYPE svg PUBLIC "-//W3C//DTD SVG 1.1//EN"
  "http://www.w3.org/Graphics/SVG/1.1/DTD/svg11.dtd">
<!-- Created with matplotlib (https://matplotlib.org/) -->
<svg height="345.6pt" version="1.1" viewBox="0 0 460.8 345.6" width="460.8pt" xmlns="http://www.w3.org/2000/svg" xmlns:xlink="http://www.w3.org/1999/xlink">
 <defs>
  <style type="text/css">
*{stroke-linecap:butt;stroke-linejoin:round;}
  </style>
 </defs>
 <g id="figure_1">
  <g id="patch_1">
   <path d="M 0 345.6 
L 460.8 345.6 
L 460.8 0 
L 0 0 
z
" style="fill:#ffffff;"/>
  </g>
  <g id="axes_1">
   <g id="patch_2">
    <path d="M 58.17 155.985542 
L 235.19 155.985542 
L 235.19 51.84 
L 58.17 51.84 
z
" style="fill:#ffffff;"/>
   </g>
   <g id="patch_3">
    <path clip-path="url(#p0d1f4eb0e7)" d="M 66.216364 155.985542 
L 68.801541 155.985542 
L 68.801541 56.799312 
L 66.216364 56.799312 
z
" style="opacity:0.2;"/>
   </g>
   <g id="patch_4">
    <path clip-path="url(#p0d1f4eb0e7)" d="M 69.447835 155.985542 
L 72.033012 155.985542 
L 72.033012 61.672743 
L 69.447835 61.672743 
z
" style="opacity:0.2;"/>
   </g>
   <g id="patch_5">
    <path clip-path="url(#p0d1f4eb0e7)" d="M 72.679306 155.985542 
L 75.264483 155.985542 
L 75.264483 75.680452 
L 72.679306 75.680452 
z
" style="opacity:0.2;"/>
   </g>
   <g id="patch_6">
    <path clip-path="url(#p0d1f4eb0e7)" d="M 75.910778 155.985542 
L 78.495955 155.985542 
L 78.495955 101.941504 
L 75.910778 101.941504 
z
" style="opacity:0.2;"/>
   </g>
   <g id="patch_7">
    <path clip-path="url(#p0d1f4eb0e7)" d="M 79.142249 155.985542 
L 81.727426 155.985542 
L 81.727426 116.477802 
L 79.142249 116.477802 
z
" style="opacity:0.2;"/>
   </g>
   <g id="patch_8">
    <path clip-path="url(#p0d1f4eb0e7)" d="M 82.37372 155.985542 
L 84.958897 155.985542 
L 84.958897 125.586423 
L 82.37372 125.586423 
z
" style="opacity:0.2;"/>
   </g>
   <g id="patch_9">
    <path clip-path="url(#p0d1f4eb0e7)" d="M 85.605192 155.985542 
L 88.190369 155.985542 
L 88.190369 131.028482 
L 85.605192 131.028482 
z
" style="opacity:0.2;"/>
   </g>
   <g id="patch_10">
    <path clip-path="url(#p0d1f4eb0e7)" d="M 88.836663 155.985542 
L 91.42184 155.985542 
L 91.42184 136.253715 
L 88.836663 136.253715 
z
" style="opacity:0.2;"/>
   </g>
   <g id="patch_11">
    <path clip-path="url(#p0d1f4eb0e7)" d="M 92.068134 155.985542 
L 94.653311 155.985542 
L 94.653311 139.30117 
L 92.068134 139.30117 
z
" style="opacity:0.2;"/>
   </g>
   <g id="patch_12">
    <path clip-path="url(#p0d1f4eb0e7)" d="M 95.299606 155.985542 
L 97.884783 155.985542 
L 97.884783 140.479288 
L 95.299606 140.479288 
z
" style="opacity:0.2;"/>
   </g>
   <g id="patch_13">
    <path clip-path="url(#p0d1f4eb0e7)" d="M 98.531077 155.985542 
L 101.116254 155.985542 
L 101.116254 144.244885 
L 98.531077 144.244885 
z
" style="opacity:0.2;"/>
   </g>
   <g id="patch_14">
    <path clip-path="url(#p0d1f4eb0e7)" d="M 101.762548 155.985542 
L 104.347725 155.985542 
L 104.347725 142.921607 
L 101.762548 142.921607 
z
" style="opacity:0.2;"/>
   </g>
   <g id="patch_15">
    <path clip-path="url(#p0d1f4eb0e7)" d="M 104.99402 155.985542 
L 107.579197 155.985542 
L 107.579197 144.603062 
L 104.99402 144.603062 
z
" style="opacity:0.2;"/>
   </g>
   <g id="patch_16">
    <path clip-path="url(#p0d1f4eb0e7)" d="M 108.225491 155.985542 
L 110.810668 155.985542 
L 110.810668 144.249348 
L 108.225491 144.249348 
z
" style="opacity:0.2;"/>
   </g>
   <g id="patch_17">
    <path clip-path="url(#p0d1f4eb0e7)" d="M 111.456962 155.985542 
L 114.042139 155.985542 
L 114.042139 145.024466 
L 111.456962 145.024466 
z
" style="opacity:0.2;"/>
   </g>
   <g id="patch_18">
    <path clip-path="url(#p0d1f4eb0e7)" d="M 114.688434 155.985542 
L 117.273611 155.985542 
L 117.273611 145.795693 
L 114.688434 145.795693 
z
" style="opacity:0.2;"/>
   </g>
   <g id="patch_19">
    <path clip-path="url(#p0d1f4eb0e7)" d="M 117.919905 155.985542 
L 120.505082 155.985542 
L 120.505082 145.559706 
L 117.919905 145.559706 
z
" style="opacity:0.2;"/>
   </g>
   <g id="patch_20">
    <path clip-path="url(#p0d1f4eb0e7)" d="M 121.151376 155.985542 
L 123.736553 155.985542 
L 123.736553 145.602981 
L 121.151376 145.602981 
z
" style="opacity:0.2;"/>
   </g>
   <g id="patch_21">
    <path clip-path="url(#p0d1f4eb0e7)" d="M 124.382848 155.985542 
L 126.968025 155.985542 
L 126.968025 146.130927 
L 124.382848 146.130927 
z
" style="opacity:0.2;"/>
   </g>
   <g id="patch_22">
    <path clip-path="url(#p0d1f4eb0e7)" d="M 127.614319 155.985542 
L 130.199496 155.985542 
L 130.199496 144.826215 
L 127.614319 144.826215 
z
" style="opacity:0.2;"/>
   </g>
   <g id="patch_23">
    <path clip-path="url(#p0d1f4eb0e7)" d="M 130.84579 155.985542 
L 133.430968 155.985542 
L 133.430968 144.474084 
L 130.84579 144.474084 
z
" style="opacity:0.2;"/>
   </g>
   <g id="patch_24">
    <path clip-path="url(#p0d1f4eb0e7)" d="M 134.077262 155.985542 
L 136.662439 155.985542 
L 136.662439 144.607614 
L 134.077262 144.607614 
z
" style="opacity:0.2;"/>
   </g>
   <g id="patch_25">
    <path clip-path="url(#p0d1f4eb0e7)" d="M 137.308733 155.985542 
L 139.89391 155.985542 
L 139.89391 145.859996 
L 137.308733 145.859996 
z
" style="opacity:0.2;"/>
   </g>
   <g id="patch_26">
    <path clip-path="url(#p0d1f4eb0e7)" d="M 140.540204 155.985542 
L 143.125382 155.985542 
L 143.125382 144.483066 
L 140.540204 144.483066 
z
" style="opacity:0.2;"/>
   </g>
   <g id="patch_27">
    <path clip-path="url(#p0d1f4eb0e7)" d="M 143.771676 155.985542 
L 146.356853 155.985542 
L 146.356853 144.784078 
L 143.771676 144.784078 
z
" style="opacity:0.2;"/>
   </g>
   <g id="patch_28">
    <path clip-path="url(#p0d1f4eb0e7)" d="M 147.003147 155.985542 
L 149.588324 155.985542 
L 149.588324 144.125525 
L 147.003147 144.125525 
z
" style="opacity:0.2;"/>
   </g>
   <g id="patch_29">
    <path clip-path="url(#p0d1f4eb0e7)" d="M 150.234618 155.985542 
L 152.819796 155.985542 
L 152.819796 144.589993 
L 150.234618 144.589993 
z
" style="opacity:0.2;"/>
   </g>
   <g id="patch_30">
    <path clip-path="url(#p0d1f4eb0e7)" d="M 153.46609 155.985542 
L 156.051267 155.985542 
L 156.051267 145.454728 
L 153.46609 145.454728 
z
" style="opacity:0.2;"/>
   </g>
   <g id="patch_31">
    <path clip-path="url(#p0d1f4eb0e7)" d="M 156.697561 155.985542 
L 159.282738 155.985542 
L 159.282738 143.066275 
L 156.697561 143.066275 
z
" style="opacity:0.2;"/>
   </g>
   <g id="patch_32">
    <path clip-path="url(#p0d1f4eb0e7)" d="M 159.929032 155.985542 
L 162.51421 155.985542 
L 162.51421 145.447008 
L 159.929032 145.447008 
z
" style="opacity:0.2;"/>
   </g>
   <g id="patch_33">
    <path clip-path="url(#p0d1f4eb0e7)" d="M 163.160504 155.985542 
L 165.745681 155.985542 
L 165.745681 144.071393 
L 163.160504 144.071393 
z
" style="opacity:0.2;"/>
   </g>
   <g id="patch_34">
    <path clip-path="url(#p0d1f4eb0e7)" d="M 166.391975 155.985542 
L 168.977152 155.985542 
L 168.977152 145.626807 
L 166.391975 145.626807 
z
" style="opacity:0.2;"/>
   </g>
   <g id="patch_35">
    <path clip-path="url(#p0d1f4eb0e7)" d="M 169.623447 155.985542 
L 172.208624 155.985542 
L 172.208624 145.446709 
L 169.623447 145.446709 
z
" style="opacity:0.2;"/>
   </g>
   <g id="patch_36">
    <path clip-path="url(#p0d1f4eb0e7)" d="M 172.854918 155.985542 
L 175.440095 155.985542 
L 175.440095 145.542864 
L 172.854918 145.542864 
z
" style="opacity:0.2;"/>
   </g>
   <g id="patch_37">
    <path clip-path="url(#p0d1f4eb0e7)" d="M 176.086389 155.985542 
L 178.671566 155.985542 
L 178.671566 147.628252 
L 176.086389 147.628252 
z
" style="opacity:0.2;"/>
   </g>
   <g id="patch_38">
    <path clip-path="url(#p0d1f4eb0e7)" d="M 179.317861 155.985542 
L 181.903038 155.985542 
L 181.903038 145.46602 
L 179.317861 145.46602 
z
" style="opacity:0.2;"/>
   </g>
   <g id="patch_39">
    <path clip-path="url(#p0d1f4eb0e7)" d="M 182.549332 155.985542 
L 185.134509 155.985542 
L 185.134509 146.213405 
L 182.549332 146.213405 
z
" style="opacity:0.2;"/>
   </g>
   <g id="patch_40">
    <path clip-path="url(#p0d1f4eb0e7)" d="M 185.780803 155.985542 
L 188.36598 155.985542 
L 188.36598 145.91492 
L 185.780803 145.91492 
z
" style="opacity:0.2;"/>
   </g>
   <g id="patch_41">
    <path clip-path="url(#p0d1f4eb0e7)" d="M 189.012275 155.985542 
L 191.597452 155.985542 
L 191.597452 146.181128 
L 189.012275 146.181128 
z
" style="opacity:0.2;"/>
   </g>
   <g id="patch_42">
    <path clip-path="url(#p0d1f4eb0e7)" d="M 192.243746 155.985542 
L 194.828923 155.985542 
L 194.828923 147.899631 
L 192.243746 147.899631 
z
" style="opacity:0.2;"/>
   </g>
   <g id="patch_43">
    <path clip-path="url(#p0d1f4eb0e7)" d="M 195.475217 155.985542 
L 198.060394 155.985542 
L 198.060394 147.505841 
L 195.475217 147.505841 
z
" style="opacity:0.2;"/>
   </g>
   <g id="patch_44">
    <path clip-path="url(#p0d1f4eb0e7)" d="M 198.706689 155.985542 
L 201.291866 155.985542 
L 201.291866 147.124193 
L 198.706689 147.124193 
z
" style="opacity:0.2;"/>
   </g>
   <g id="patch_45">
    <path clip-path="url(#p0d1f4eb0e7)" d="M 201.93816 155.985542 
L 204.523337 155.985542 
L 204.523337 147.577184 
L 201.93816 147.577184 
z
" style="opacity:0.2;"/>
   </g>
   <g id="patch_46">
    <path clip-path="url(#p0d1f4eb0e7)" d="M 205.169631 155.985542 
L 207.754808 155.985542 
L 207.754808 147.080678 
L 205.169631 147.080678 
z
" style="opacity:0.2;"/>
   </g>
   <g id="patch_47">
    <path clip-path="url(#p0d1f4eb0e7)" d="M 208.401103 155.985542 
L 210.98628 155.985542 
L 210.98628 148.055973 
L 208.401103 148.055973 
z
" style="opacity:0.2;"/>
   </g>
   <g id="patch_48">
    <path clip-path="url(#p0d1f4eb0e7)" d="M 211.632574 155.985542 
L 214.217751 155.985542 
L 214.217751 147.051529 
L 211.632574 147.051529 
z
" style="opacity:0.2;"/>
   </g>
   <g id="patch_49">
    <path clip-path="url(#p0d1f4eb0e7)" d="M 214.864045 155.985542 
L 217.449222 155.985542 
L 217.449222 148.399265 
L 214.864045 148.399265 
z
" style="opacity:0.2;"/>
   </g>
   <g id="patch_50">
    <path clip-path="url(#p0d1f4eb0e7)" d="M 218.095517 155.985542 
L 220.680694 155.985542 
L 220.680694 148.852401 
L 218.095517 148.852401 
z
" style="opacity:0.2;"/>
   </g>
   <g id="patch_51">
    <path clip-path="url(#p0d1f4eb0e7)" d="M 221.326988 155.985542 
L 223.912165 155.985542 
L 223.912165 147.872345 
L 221.326988 147.872345 
z
" style="opacity:0.2;"/>
   </g>
   <g id="patch_52">
    <path clip-path="url(#p0d1f4eb0e7)" d="M 224.558459 155.985542 
L 227.143636 155.985542 
L 227.143636 149.567761 
L 224.558459 149.567761 
z
" style="opacity:0.2;"/>
   </g>
   <g id="matplotlib.axis_1">
    <g id="xtick_1">
     <g id="line2d_1">
      <defs>
       <path d="M 0 0 
L 0 3.5 
" id="mf03ccb4172" style="stroke:#000000;stroke-width:0.8;"/>
      </defs>
      <g>
       <use style="stroke:#000000;stroke-width:0.8;" x="65.886753" xlink:href="#mf03ccb4172" y="156.985542"/>
      </g>
     </g>
     <g id="text_1">
      <!-- 0 -->
      <defs>
       <path d="M 31.78125 66.40625 
Q 24.171875 66.40625 20.328125 58.90625 
Q 16.5 51.421875 16.5 36.375 
Q 16.5 21.390625 20.328125 13.890625 
Q 24.171875 6.390625 31.78125 6.390625 
Q 39.453125 6.390625 43.28125 13.890625 
Q 47.125 21.390625 47.125 36.375 
Q 47.125 51.421875 43.28125 58.90625 
Q 39.453125 66.40625 31.78125 66.40625 
z
M 31.78125 74.21875 
Q 44.046875 74.21875 50.515625 64.515625 
Q 56.984375 54.828125 56.984375 36.375 
Q 56.984375 17.96875 50.515625 8.265625 
Q 44.046875 -1.421875 31.78125 -1.421875 
Q 19.53125 -1.421875 13.0625 8.265625 
Q 6.59375 17.96875 6.59375 36.375 
Q 6.59375 54.828125 13.0625 64.515625 
Q 19.53125 74.21875 31.78125 74.21875 
z
" id="DejaVuSans-48"/>
      </defs>
      <g transform="translate(62.705503 171.58398)scale(0.1 -0.1)">
       <use xlink:href="#DejaVuSans-48"/>
      </g>
     </g>
    </g>
    <g id="xtick_2">
     <g id="line2d_2">
      <g>
       <use style="stroke:#000000;stroke-width:0.8;" x="130.525229" xlink:href="#mf03ccb4172" y="156.985542"/>
      </g>
     </g>
     <g id="text_2">
      <!-- 2 -->
      <defs>
       <path d="M 19.1875 8.296875 
L 53.609375 8.296875 
L 53.609375 0 
L 7.328125 0 
L 7.328125 8.296875 
Q 12.9375 14.109375 22.625 23.890625 
Q 32.328125 33.6875 34.8125 36.53125 
Q 39.546875 41.84375 41.421875 45.53125 
Q 43.3125 49.21875 43.3125 52.78125 
Q 43.3125 58.59375 39.234375 62.25 
Q 35.15625 65.921875 28.609375 65.921875 
Q 23.96875 65.921875 18.8125 64.3125 
Q 13.671875 62.703125 7.8125 59.421875 
L 7.8125 69.390625 
Q 13.765625 71.78125 18.9375 73 
Q 24.125 74.21875 28.421875 74.21875 
Q 39.75 74.21875 46.484375 68.546875 
Q 53.21875 62.890625 53.21875 53.421875 
Q 53.21875 48.921875 51.53125 44.890625 
Q 49.859375 40.875 45.40625 35.40625 
Q 44.1875 33.984375 37.640625 27.21875 
Q 31.109375 20.453125 19.1875 8.296875 
z
" id="DejaVuSans-50"/>
      </defs>
      <g transform="translate(127.343979 171.58398)scale(0.1 -0.1)">
       <use xlink:href="#DejaVuSans-50"/>
      </g>
     </g>
    </g>
    <g id="xtick_3">
     <g id="line2d_3">
      <g>
       <use style="stroke:#000000;stroke-width:0.8;" x="195.163705" xlink:href="#mf03ccb4172" y="156.985542"/>
      </g>
     </g>
     <g id="text_3">
      <!-- 4 -->
      <defs>
       <path d="M 37.796875 64.3125 
L 12.890625 25.390625 
L 37.796875 25.390625 
z
M 35.203125 72.90625 
L 47.609375 72.90625 
L 47.609375 25.390625 
L 58.015625 25.390625 
L 58.015625 17.1875 
L 47.609375 17.1875 
L 47.609375 0 
L 37.796875 0 
L 37.796875 17.1875 
L 4.890625 17.1875 
L 4.890625 26.703125 
z
" id="DejaVuSans-52"/>
      </defs>
      <g transform="translate(191.982455 171.58398)scale(0.1 -0.1)">
       <use xlink:href="#DejaVuSans-52"/>
      </g>
     </g>
    </g>
    <g id="text_4">
     <!-- $K_\mathrm{S}$ -->
     <defs>
      <path d="M 16.890625 72.90625 
L 26.8125 72.90625 
L 20.796875 42.1875 
L 59.078125 72.90625 
L 72.21875 72.90625 
L 28.90625 38.09375 
L 60.59375 0 
L 48.578125 0 
L 19.484375 35.5 
L 12.59375 0 
L 2.6875 0 
z
" id="DejaVuSans-Oblique-75"/>
      <path d="M 53.515625 70.515625 
L 53.515625 60.890625 
Q 47.90625 63.578125 42.921875 64.890625 
Q 37.9375 66.21875 33.296875 66.21875 
Q 25.25 66.21875 20.875 63.09375 
Q 16.5 59.96875 16.5 54.203125 
Q 16.5 49.359375 19.40625 46.890625 
Q 22.3125 44.4375 30.421875 42.921875 
L 36.375 41.703125 
Q 47.40625 39.59375 52.65625 34.296875 
Q 57.90625 29 57.90625 20.125 
Q 57.90625 9.515625 50.796875 4.046875 
Q 43.703125 -1.421875 29.984375 -1.421875 
Q 24.8125 -1.421875 18.96875 -0.25 
Q 13.140625 0.921875 6.890625 3.21875 
L 6.890625 13.375 
Q 12.890625 10.015625 18.65625 8.296875 
Q 24.421875 6.59375 29.984375 6.59375 
Q 38.421875 6.59375 43.015625 9.90625 
Q 47.609375 13.234375 47.609375 19.390625 
Q 47.609375 24.75 44.3125 27.78125 
Q 41.015625 30.8125 33.5 32.328125 
L 27.484375 33.5 
Q 16.453125 35.6875 11.515625 40.375 
Q 6.59375 45.0625 6.59375 53.421875 
Q 6.59375 63.09375 13.40625 68.65625 
Q 20.21875 74.21875 32.171875 74.21875 
Q 37.3125 74.21875 42.625 73.28125 
Q 47.953125 72.359375 53.515625 70.515625 
z
" id="DejaVuSans-83"/>
     </defs>
     <g transform="translate(141.03 185.262105)scale(0.1 -0.1)">
      <use transform="translate(0 0.09375)" xlink:href="#DejaVuSans-Oblique-75"/>
      <use transform="translate(65.576172 -16.3125)scale(0.7)" xlink:href="#DejaVuSans-83"/>
     </g>
    </g>
   </g>
   <g id="matplotlib.axis_2">
    <g id="ytick_1">
     <g id="line2d_4">
      <defs>
       <path d="M 0 0 
L -3.5 0 
" id="m343ffd6bb1" style="stroke:#000000;stroke-width:0.8;"/>
      </defs>
      <g>
       <use style="stroke:#000000;stroke-width:0.8;" x="57.17" xlink:href="#m343ffd6bb1" y="155.985542"/>
      </g>
     </g>
     <g id="text_5">
      <!-- 0 -->
      <g transform="translate(43.8075 159.784761)scale(0.1 -0.1)">
       <use xlink:href="#DejaVuSans-48"/>
      </g>
     </g>
    </g>
    <g id="ytick_2">
     <g id="line2d_5">
      <g>
       <use style="stroke:#000000;stroke-width:0.8;" x="57.17" xlink:href="#m343ffd6bb1" y="132.327666"/>
      </g>
     </g>
     <g id="text_6">
      <!-- 250 -->
      <defs>
       <path d="M 10.796875 72.90625 
L 49.515625 72.90625 
L 49.515625 64.59375 
L 19.828125 64.59375 
L 19.828125 46.734375 
Q 21.96875 47.46875 24.109375 47.828125 
Q 26.265625 48.1875 28.421875 48.1875 
Q 40.625 48.1875 47.75 41.5 
Q 54.890625 34.8125 54.890625 23.390625 
Q 54.890625 11.625 47.5625 5.09375 
Q 40.234375 -1.421875 26.90625 -1.421875 
Q 22.3125 -1.421875 17.546875 -0.640625 
Q 12.796875 0.140625 7.71875 1.703125 
L 7.71875 11.625 
Q 12.109375 9.234375 16.796875 8.0625 
Q 21.484375 6.890625 26.703125 6.890625 
Q 35.15625 6.890625 40.078125 11.328125 
Q 45.015625 15.765625 45.015625 23.390625 
Q 45.015625 31 40.078125 35.4375 
Q 35.15625 39.890625 26.703125 39.890625 
Q 22.75 39.890625 18.8125 39.015625 
Q 14.890625 38.140625 10.796875 36.28125 
z
" id="DejaVuSans-53"/>
      </defs>
      <g transform="translate(31.0825 136.126885)scale(0.1 -0.1)">
       <use xlink:href="#DejaVuSans-50"/>
       <use x="63.623047" xlink:href="#DejaVuSans-53"/>
       <use x="127.246094" xlink:href="#DejaVuSans-48"/>
      </g>
     </g>
    </g>
    <g id="ytick_3">
     <g id="line2d_6">
      <g>
       <use style="stroke:#000000;stroke-width:0.8;" x="57.17" xlink:href="#m343ffd6bb1" y="108.66979"/>
      </g>
     </g>
     <g id="text_7">
      <!-- 500 -->
      <g transform="translate(31.0825 112.469009)scale(0.1 -0.1)">
       <use xlink:href="#DejaVuSans-53"/>
       <use x="63.623047" xlink:href="#DejaVuSans-48"/>
       <use x="127.246094" xlink:href="#DejaVuSans-48"/>
      </g>
     </g>
    </g>
    <g id="ytick_4">
     <g id="line2d_7">
      <g>
       <use style="stroke:#000000;stroke-width:0.8;" x="57.17" xlink:href="#m343ffd6bb1" y="85.011915"/>
      </g>
     </g>
     <g id="text_8">
      <!-- 750 -->
      <defs>
       <path d="M 8.203125 72.90625 
L 55.078125 72.90625 
L 55.078125 68.703125 
L 28.609375 0 
L 18.3125 0 
L 43.21875 64.59375 
L 8.203125 64.59375 
z
" id="DejaVuSans-55"/>
      </defs>
      <g transform="translate(31.0825 88.811133)scale(0.1 -0.1)">
       <use xlink:href="#DejaVuSans-55"/>
       <use x="63.623047" xlink:href="#DejaVuSans-53"/>
       <use x="127.246094" xlink:href="#DejaVuSans-48"/>
      </g>
     </g>
    </g>
    <g id="ytick_5">
     <g id="line2d_8">
      <g>
       <use style="stroke:#000000;stroke-width:0.8;" x="57.17" xlink:href="#m343ffd6bb1" y="61.354039"/>
      </g>
     </g>
     <g id="text_9">
      <!-- 1000 -->
      <defs>
       <path d="M 12.40625 8.296875 
L 28.515625 8.296875 
L 28.515625 63.921875 
L 10.984375 60.40625 
L 10.984375 69.390625 
L 28.421875 72.90625 
L 38.28125 72.90625 
L 38.28125 8.296875 
L 54.390625 8.296875 
L 54.390625 0 
L 12.40625 0 
z
" id="DejaVuSans-49"/>
      </defs>
      <g transform="translate(24.72 65.153257)scale(0.1 -0.1)">
       <use xlink:href="#DejaVuSans-49"/>
       <use x="63.623047" xlink:href="#DejaVuSans-48"/>
       <use x="127.246094" xlink:href="#DejaVuSans-48"/>
       <use x="190.869141" xlink:href="#DejaVuSans-48"/>
      </g>
     </g>
    </g>
    <g id="text_10">
     <!-- Duplications -->
     <defs>
      <path d="M 19.671875 64.796875 
L 19.671875 8.109375 
L 31.59375 8.109375 
Q 46.6875 8.109375 53.6875 14.9375 
Q 60.6875 21.78125 60.6875 36.53125 
Q 60.6875 51.171875 53.6875 57.984375 
Q 46.6875 64.796875 31.59375 64.796875 
z
M 9.8125 72.90625 
L 30.078125 72.90625 
Q 51.265625 72.90625 61.171875 64.09375 
Q 71.09375 55.28125 71.09375 36.53125 
Q 71.09375 17.671875 61.125 8.828125 
Q 51.171875 0 30.078125 0 
L 9.8125 0 
z
" id="DejaVuSans-68"/>
      <path d="M 8.5 21.578125 
L 8.5 54.6875 
L 17.484375 54.6875 
L 17.484375 21.921875 
Q 17.484375 14.15625 20.5 10.265625 
Q 23.53125 6.390625 29.59375 6.390625 
Q 36.859375 6.390625 41.078125 11.03125 
Q 45.3125 15.671875 45.3125 23.6875 
L 45.3125 54.6875 
L 54.296875 54.6875 
L 54.296875 0 
L 45.3125 0 
L 45.3125 8.40625 
Q 42.046875 3.421875 37.71875 1 
Q 33.40625 -1.421875 27.6875 -1.421875 
Q 18.265625 -1.421875 13.375 4.4375 
Q 8.5 10.296875 8.5 21.578125 
z
M 31.109375 56 
z
" id="DejaVuSans-117"/>
      <path d="M 18.109375 8.203125 
L 18.109375 -20.796875 
L 9.078125 -20.796875 
L 9.078125 54.6875 
L 18.109375 54.6875 
L 18.109375 46.390625 
Q 20.953125 51.265625 25.265625 53.625 
Q 29.59375 56 35.59375 56 
Q 45.5625 56 51.78125 48.09375 
Q 58.015625 40.1875 58.015625 27.296875 
Q 58.015625 14.40625 51.78125 6.484375 
Q 45.5625 -1.421875 35.59375 -1.421875 
Q 29.59375 -1.421875 25.265625 0.953125 
Q 20.953125 3.328125 18.109375 8.203125 
z
M 48.6875 27.296875 
Q 48.6875 37.203125 44.609375 42.84375 
Q 40.53125 48.484375 33.40625 48.484375 
Q 26.265625 48.484375 22.1875 42.84375 
Q 18.109375 37.203125 18.109375 27.296875 
Q 18.109375 17.390625 22.1875 11.75 
Q 26.265625 6.109375 33.40625 6.109375 
Q 40.53125 6.109375 44.609375 11.75 
Q 48.6875 17.390625 48.6875 27.296875 
z
" id="DejaVuSans-112"/>
      <path d="M 9.421875 75.984375 
L 18.40625 75.984375 
L 18.40625 0 
L 9.421875 0 
z
" id="DejaVuSans-108"/>
      <path d="M 9.421875 54.6875 
L 18.40625 54.6875 
L 18.40625 0 
L 9.421875 0 
z
M 9.421875 75.984375 
L 18.40625 75.984375 
L 18.40625 64.59375 
L 9.421875 64.59375 
z
" id="DejaVuSans-105"/>
      <path d="M 48.78125 52.59375 
L 48.78125 44.1875 
Q 44.96875 46.296875 41.140625 47.34375 
Q 37.3125 48.390625 33.40625 48.390625 
Q 24.65625 48.390625 19.8125 42.84375 
Q 14.984375 37.3125 14.984375 27.296875 
Q 14.984375 17.28125 19.8125 11.734375 
Q 24.65625 6.203125 33.40625 6.203125 
Q 37.3125 6.203125 41.140625 7.25 
Q 44.96875 8.296875 48.78125 10.40625 
L 48.78125 2.09375 
Q 45.015625 0.34375 40.984375 -0.53125 
Q 36.96875 -1.421875 32.421875 -1.421875 
Q 20.0625 -1.421875 12.78125 6.34375 
Q 5.515625 14.109375 5.515625 27.296875 
Q 5.515625 40.671875 12.859375 48.328125 
Q 20.21875 56 33.015625 56 
Q 37.15625 56 41.109375 55.140625 
Q 45.0625 54.296875 48.78125 52.59375 
z
" id="DejaVuSans-99"/>
      <path d="M 34.28125 27.484375 
Q 23.390625 27.484375 19.1875 25 
Q 14.984375 22.515625 14.984375 16.5 
Q 14.984375 11.71875 18.140625 8.90625 
Q 21.296875 6.109375 26.703125 6.109375 
Q 34.1875 6.109375 38.703125 11.40625 
Q 43.21875 16.703125 43.21875 25.484375 
L 43.21875 27.484375 
z
M 52.203125 31.203125 
L 52.203125 0 
L 43.21875 0 
L 43.21875 8.296875 
Q 40.140625 3.328125 35.546875 0.953125 
Q 30.953125 -1.421875 24.3125 -1.421875 
Q 15.921875 -1.421875 10.953125 3.296875 
Q 6 8.015625 6 15.921875 
Q 6 25.140625 12.171875 29.828125 
Q 18.359375 34.515625 30.609375 34.515625 
L 43.21875 34.515625 
L 43.21875 35.40625 
Q 43.21875 41.609375 39.140625 45 
Q 35.0625 48.390625 27.6875 48.390625 
Q 23 48.390625 18.546875 47.265625 
Q 14.109375 46.140625 10.015625 43.890625 
L 10.015625 52.203125 
Q 14.9375 54.109375 19.578125 55.046875 
Q 24.21875 56 28.609375 56 
Q 40.484375 56 46.34375 49.84375 
Q 52.203125 43.703125 52.203125 31.203125 
z
" id="DejaVuSans-97"/>
      <path d="M 18.3125 70.21875 
L 18.3125 54.6875 
L 36.8125 54.6875 
L 36.8125 47.703125 
L 18.3125 47.703125 
L 18.3125 18.015625 
Q 18.3125 11.328125 20.140625 9.421875 
Q 21.96875 7.515625 27.59375 7.515625 
L 36.8125 7.515625 
L 36.8125 0 
L 27.59375 0 
Q 17.1875 0 13.234375 3.875 
Q 9.28125 7.765625 9.28125 18.015625 
L 9.28125 47.703125 
L 2.6875 47.703125 
L 2.6875 54.6875 
L 9.28125 54.6875 
L 9.28125 70.21875 
z
" id="DejaVuSans-116"/>
      <path d="M 30.609375 48.390625 
Q 23.390625 48.390625 19.1875 42.75 
Q 14.984375 37.109375 14.984375 27.296875 
Q 14.984375 17.484375 19.15625 11.84375 
Q 23.34375 6.203125 30.609375 6.203125 
Q 37.796875 6.203125 41.984375 11.859375 
Q 46.1875 17.53125 46.1875 27.296875 
Q 46.1875 37.015625 41.984375 42.703125 
Q 37.796875 48.390625 30.609375 48.390625 
z
M 30.609375 56 
Q 42.328125 56 49.015625 48.375 
Q 55.71875 40.765625 55.71875 27.296875 
Q 55.71875 13.875 49.015625 6.21875 
Q 42.328125 -1.421875 30.609375 -1.421875 
Q 18.84375 -1.421875 12.171875 6.21875 
Q 5.515625 13.875 5.515625 27.296875 
Q 5.515625 40.765625 12.171875 48.375 
Q 18.84375 56 30.609375 56 
z
" id="DejaVuSans-111"/>
      <path d="M 54.890625 33.015625 
L 54.890625 0 
L 45.90625 0 
L 45.90625 32.71875 
Q 45.90625 40.484375 42.875 44.328125 
Q 39.84375 48.1875 33.796875 48.1875 
Q 26.515625 48.1875 22.3125 43.546875 
Q 18.109375 38.921875 18.109375 30.90625 
L 18.109375 0 
L 9.078125 0 
L 9.078125 54.6875 
L 18.109375 54.6875 
L 18.109375 46.1875 
Q 21.34375 51.125 25.703125 53.5625 
Q 30.078125 56 35.796875 56 
Q 45.21875 56 50.046875 50.171875 
Q 54.890625 44.34375 54.890625 33.015625 
z
" id="DejaVuSans-110"/>
      <path d="M 44.28125 53.078125 
L 44.28125 44.578125 
Q 40.484375 46.53125 36.375 47.5 
Q 32.28125 48.484375 27.875 48.484375 
Q 21.1875 48.484375 17.84375 46.4375 
Q 14.5 44.390625 14.5 40.28125 
Q 14.5 37.15625 16.890625 35.375 
Q 19.28125 33.59375 26.515625 31.984375 
L 29.59375 31.296875 
Q 39.15625 29.25 43.1875 25.515625 
Q 47.21875 21.78125 47.21875 15.09375 
Q 47.21875 7.46875 41.1875 3.015625 
Q 35.15625 -1.421875 24.609375 -1.421875 
Q 20.21875 -1.421875 15.453125 -0.5625 
Q 10.6875 0.296875 5.421875 2 
L 5.421875 11.28125 
Q 10.40625 8.6875 15.234375 7.390625 
Q 20.0625 6.109375 24.8125 6.109375 
Q 31.15625 6.109375 34.5625 8.28125 
Q 37.984375 10.453125 37.984375 14.40625 
Q 37.984375 18.0625 35.515625 20.015625 
Q 33.0625 21.96875 24.703125 23.78125 
L 21.578125 24.515625 
Q 13.234375 26.265625 9.515625 29.90625 
Q 5.8125 33.546875 5.8125 39.890625 
Q 5.8125 47.609375 11.28125 51.796875 
Q 16.75 56 26.8125 56 
Q 31.78125 56 36.171875 55.265625 
Q 40.578125 54.546875 44.28125 53.078125 
z
" id="DejaVuSans-115"/>
     </defs>
     <g transform="translate(18.640313 134.879177)rotate(-90)scale(0.1 -0.1)">
      <use xlink:href="#DejaVuSans-68"/>
      <use x="77.001953" xlink:href="#DejaVuSans-117"/>
      <use x="140.380859" xlink:href="#DejaVuSans-112"/>
      <use x="203.857422" xlink:href="#DejaVuSans-108"/>
      <use x="231.640625" xlink:href="#DejaVuSans-105"/>
      <use x="259.423828" xlink:href="#DejaVuSans-99"/>
      <use x="314.404297" xlink:href="#DejaVuSans-97"/>
      <use x="375.683594" xlink:href="#DejaVuSans-116"/>
      <use x="414.892578" xlink:href="#DejaVuSans-105"/>
      <use x="442.675781" xlink:href="#DejaVuSans-111"/>
      <use x="503.857422" xlink:href="#DejaVuSans-110"/>
      <use x="567.236328" xlink:href="#DejaVuSans-115"/>
     </g>
    </g>
   </g>
   <g id="patch_53">
    <path d="M 57.17 155.985542 
L 57.17 51.84 
" style="fill:none;stroke:#000000;stroke-linecap:square;stroke-linejoin:miter;stroke-width:0.8;"/>
   </g>
   <g id="patch_54">
    <path d="M 58.17 156.985542 
L 235.19 156.985542 
" style="fill:none;stroke:#000000;stroke-linecap:square;stroke-linejoin:miter;stroke-width:0.8;"/>
   </g>
  </g>
  <g id="axes_2">
   <g id="patch_55">
    <path d="M 272.98 155.985542 
L 450 155.985542 
L 450 51.84 
L 272.98 51.84 
z
" style="fill:#ffffff;"/>
   </g>
   <g id="patch_56">
    <path clip-path="url(#pf51939e35c)" d="M 281.026364 155.985542 
L 283.611541 155.985542 
L 283.611541 154.529591 
L 281.026364 154.529591 
z
" style="opacity:0.2;"/>
   </g>
   <g id="patch_57">
    <path clip-path="url(#pf51939e35c)" d="M 284.257835 155.985542 
L 286.843012 155.985542 
L 286.843012 155.985542 
L 284.257835 155.985542 
z
" style="opacity:0.2;"/>
   </g>
   <g id="patch_58">
    <path clip-path="url(#pf51939e35c)" d="M 287.489306 155.985542 
L 290.074483 155.985542 
L 290.074483 154.46494 
L 287.489306 154.46494 
z
" style="opacity:0.2;"/>
   </g>
   <g id="patch_59">
    <path clip-path="url(#pf51939e35c)" d="M 290.720778 155.985542 
L 293.305955 155.985542 
L 293.305955 155.65615 
L 290.720778 155.65615 
z
" style="opacity:0.2;"/>
   </g>
   <g id="patch_60">
    <path clip-path="url(#pf51939e35c)" d="M 293.952249 155.985542 
L 296.537426 155.985542 
L 296.537426 155.724314 
L 293.952249 155.724314 
z
" style="opacity:0.2;"/>
   </g>
   <g id="patch_61">
    <path clip-path="url(#pf51939e35c)" d="M 297.18372 155.985542 
L 299.768897 155.985542 
L 299.768897 155.965374 
L 297.18372 155.965374 
z
" style="opacity:0.2;"/>
   </g>
   <g id="patch_62">
    <path clip-path="url(#pf51939e35c)" d="M 300.415192 155.985542 
L 303.000369 155.985542 
L 303.000369 155.893744 
L 300.415192 155.893744 
z
" style="opacity:0.2;"/>
   </g>
   <g id="patch_63">
    <path clip-path="url(#pf51939e35c)" d="M 303.646663 155.985542 
L 306.23184 155.985542 
L 306.23184 155.939009 
L 303.646663 155.939009 
z
" style="opacity:0.2;"/>
   </g>
   <g id="patch_64">
    <path clip-path="url(#pf51939e35c)" d="M 306.878134 155.985542 
L 309.463311 155.985542 
L 309.463311 155.91419 
L 306.878134 155.91419 
z
" style="opacity:0.2;"/>
   </g>
   <g id="patch_65">
    <path clip-path="url(#pf51939e35c)" d="M 310.109606 155.985542 
L 312.694783 155.985542 
L 312.694783 155.933601 
L 310.109606 155.933601 
z
" style="opacity:0.2;"/>
   </g>
   <g id="patch_66">
    <path clip-path="url(#pf51939e35c)" d="M 313.341077 155.985542 
L 315.926254 155.985542 
L 315.926254 155.982347 
L 313.341077 155.982347 
z
" style="opacity:0.2;"/>
   </g>
   <g id="patch_67">
    <path clip-path="url(#pf51939e35c)" d="M 316.572548 155.985542 
L 319.157725 155.985542 
L 319.157725 155.985076 
L 316.572548 155.985076 
z
" style="opacity:0.2;"/>
   </g>
   <g id="patch_68">
    <path clip-path="url(#pf51939e35c)" d="M 319.80402 155.985542 
L 322.389197 155.985542 
L 322.389197 155.856221 
L 319.80402 155.856221 
z
" style="opacity:0.2;"/>
   </g>
   <g id="patch_69">
    <path clip-path="url(#pf51939e35c)" d="M 323.035491 155.985542 
L 325.620668 155.985542 
L 325.620668 155.981106 
L 323.035491 155.981106 
z
" style="opacity:0.2;"/>
   </g>
   <g id="patch_70">
    <path clip-path="url(#pf51939e35c)" d="M 326.266962 155.985542 
L 328.852139 155.985542 
L 328.852139 155.600214 
L 326.266962 155.600214 
z
" style="opacity:0.2;"/>
   </g>
   <g id="patch_71">
    <path clip-path="url(#pf51939e35c)" d="M 329.498434 155.985542 
L 332.083611 155.985542 
L 332.083611 155.82364 
L 329.498434 155.82364 
z
" style="opacity:0.2;"/>
   </g>
   <g id="patch_72">
    <path clip-path="url(#pf51939e35c)" d="M 332.729905 155.985542 
L 335.315082 155.985542 
L 335.315082 155.373532 
L 332.729905 155.373532 
z
" style="opacity:0.2;"/>
   </g>
   <g id="patch_73">
    <path clip-path="url(#pf51939e35c)" d="M 335.961376 155.985542 
L 338.546553 155.985542 
L 338.546553 155.3822 
L 335.961376 155.3822 
z
" style="opacity:0.2;"/>
   </g>
   <g id="patch_74">
    <path clip-path="url(#pf51939e35c)" d="M 339.192848 155.985542 
L 341.778025 155.985542 
L 341.778025 153.541451 
L 339.192848 153.541451 
z
" style="opacity:0.2;"/>
   </g>
   <g id="patch_75">
    <path clip-path="url(#pf51939e35c)" d="M 342.424319 155.985542 
L 345.009496 155.985542 
L 345.009496 153.995933 
L 342.424319 153.995933 
z
" style="opacity:0.2;"/>
   </g>
   <g id="patch_76">
    <path clip-path="url(#pf51939e35c)" d="M 345.65579 155.985542 
L 348.240968 155.985542 
L 348.240968 153.916569 
L 345.65579 153.916569 
z
" style="opacity:0.2;"/>
   </g>
   <g id="patch_77">
    <path clip-path="url(#pf51939e35c)" d="M 348.887262 155.985542 
L 351.472439 155.985542 
L 351.472439 150.684305 
L 348.887262 150.684305 
z
" style="opacity:0.2;"/>
   </g>
   <g id="patch_78">
    <path clip-path="url(#pf51939e35c)" d="M 352.118733 155.985542 
L 354.70391 155.985542 
L 354.70391 150.614979 
L 352.118733 150.614979 
z
" style="opacity:0.2;"/>
   </g>
   <g id="patch_79">
    <path clip-path="url(#pf51939e35c)" d="M 355.350204 155.985542 
L 357.935382 155.985542 
L 357.935382 147.844517 
L 355.350204 147.844517 
z
" style="opacity:0.2;"/>
   </g>
   <g id="patch_80">
    <path clip-path="url(#pf51939e35c)" d="M 358.581676 155.985542 
L 361.166853 155.985542 
L 361.166853 147.111009 
L 358.581676 147.111009 
z
" style="opacity:0.2;"/>
   </g>
   <g id="patch_81">
    <path clip-path="url(#pf51939e35c)" d="M 361.813147 155.985542 
L 364.398324 155.985542 
L 364.398324 146.142063 
L 361.813147 146.142063 
z
" style="opacity:0.2;"/>
   </g>
   <g id="patch_82">
    <path clip-path="url(#pf51939e35c)" d="M 365.044618 155.985542 
L 367.629796 155.985542 
L 367.629796 143.983606 
L 365.044618 143.983606 
z
" style="opacity:0.2;"/>
   </g>
   <g id="patch_83">
    <path clip-path="url(#pf51939e35c)" d="M 368.27609 155.985542 
L 370.861267 155.985542 
L 370.861267 142.043393 
L 368.27609 142.043393 
z
" style="opacity:0.2;"/>
   </g>
   <g id="patch_84">
    <path clip-path="url(#pf51939e35c)" d="M 371.507561 155.985542 
L 374.092738 155.985542 
L 374.092738 136.142055 
L 371.507561 136.142055 
z
" style="opacity:0.2;"/>
   </g>
   <g id="patch_85">
    <path clip-path="url(#pf51939e35c)" d="M 374.739032 155.985542 
L 377.32421 155.985542 
L 377.32421 135.187054 
L 374.739032 135.187054 
z
" style="opacity:0.2;"/>
   </g>
   <g id="patch_86">
    <path clip-path="url(#pf51939e35c)" d="M 377.970504 155.985542 
L 380.555681 155.985542 
L 380.555681 128.311038 
L 377.970504 128.311038 
z
" style="opacity:0.2;"/>
   </g>
   <g id="patch_87">
    <path clip-path="url(#pf51939e35c)" d="M 381.201975 155.985542 
L 383.787152 155.985542 
L 383.787152 124.525504 
L 381.201975 124.525504 
z
" style="opacity:0.2;"/>
   </g>
   <g id="patch_88">
    <path clip-path="url(#pf51939e35c)" d="M 384.433447 155.985542 
L 387.018624 155.985542 
L 387.018624 118.421099 
L 384.433447 118.421099 
z
" style="opacity:0.2;"/>
   </g>
   <g id="patch_89">
    <path clip-path="url(#pf51939e35c)" d="M 387.664918 155.985542 
L 390.250095 155.985542 
L 390.250095 112.072205 
L 387.664918 112.072205 
z
" style="opacity:0.2;"/>
   </g>
   <g id="patch_90">
    <path clip-path="url(#pf51939e35c)" d="M 390.896389 155.985542 
L 393.481566 155.985542 
L 393.481566 102.521264 
L 390.896389 102.521264 
z
" style="opacity:0.2;"/>
   </g>
   <g id="patch_91">
    <path clip-path="url(#pf51939e35c)" d="M 394.127861 155.985542 
L 396.713038 155.985542 
L 396.713038 101.041576 
L 394.127861 101.041576 
z
" style="opacity:0.2;"/>
   </g>
   <g id="patch_92">
    <path clip-path="url(#pf51939e35c)" d="M 397.359332 155.985542 
L 399.944509 155.985542 
L 399.944509 102.608455 
L 397.359332 102.608455 
z
" style="opacity:0.2;"/>
   </g>
   <g id="patch_93">
    <path clip-path="url(#pf51939e35c)" d="M 400.590803 155.985542 
L 403.17598 155.985542 
L 403.17598 106.113191 
L 400.590803 106.113191 
z
" style="opacity:0.2;"/>
   </g>
   <g id="patch_94">
    <path clip-path="url(#pf51939e35c)" d="M 403.822275 155.985542 
L 406.407452 155.985542 
L 406.407452 108.389965 
L 403.822275 108.389965 
z
" style="opacity:0.2;"/>
   </g>
   <g id="patch_95">
    <path clip-path="url(#pf51939e35c)" d="M 407.053746 155.985542 
L 409.638923 155.985542 
L 409.638923 109.947411 
L 407.053746 109.947411 
z
" style="opacity:0.2;"/>
   </g>
   <g id="patch_96">
    <path clip-path="url(#pf51939e35c)" d="M 410.285217 155.985542 
L 412.870394 155.985542 
L 412.870394 117.070766 
L 410.285217 117.070766 
z
" style="opacity:0.2;"/>
   </g>
   <g id="patch_97">
    <path clip-path="url(#pf51939e35c)" d="M 413.516689 155.985542 
L 416.101866 155.985542 
L 416.101866 115.320584 
L 413.516689 115.320584 
z
" style="opacity:0.2;"/>
   </g>
   <g id="patch_98">
    <path clip-path="url(#pf51939e35c)" d="M 416.74816 155.985542 
L 419.333337 155.985542 
L 419.333337 118.764278 
L 416.74816 118.764278 
z
" style="opacity:0.2;"/>
   </g>
   <g id="patch_99">
    <path clip-path="url(#pf51939e35c)" d="M 419.979631 155.985542 
L 422.564808 155.985542 
L 422.564808 114.819575 
L 419.979631 114.819575 
z
" style="opacity:0.2;"/>
   </g>
   <g id="patch_100">
    <path clip-path="url(#pf51939e35c)" d="M 423.211103 155.985542 
L 425.79628 155.985542 
L 425.79628 108.501702 
L 423.211103 108.501702 
z
" style="opacity:0.2;"/>
   </g>
   <g id="patch_101">
    <path clip-path="url(#pf51939e35c)" d="M 426.442574 155.985542 
L 429.027751 155.985542 
L 429.027751 96.300037 
L 426.442574 96.300037 
z
" style="opacity:0.2;"/>
   </g>
   <g id="patch_102">
    <path clip-path="url(#pf51939e35c)" d="M 429.674045 155.985542 
L 432.259222 155.985542 
L 432.259222 79.363616 
L 429.674045 79.363616 
z
" style="opacity:0.2;"/>
   </g>
   <g id="patch_103">
    <path clip-path="url(#pf51939e35c)" d="M 432.905517 155.985542 
L 435.490694 155.985542 
L 435.490694 64.228493 
L 432.905517 64.228493 
z
" style="opacity:0.2;"/>
   </g>
   <g id="patch_104">
    <path clip-path="url(#pf51939e35c)" d="M 436.136988 155.985542 
L 438.722165 155.985542 
L 438.722165 59.333942 
L 436.136988 59.333942 
z
" style="opacity:0.2;"/>
   </g>
   <g id="patch_105">
    <path clip-path="url(#pf51939e35c)" d="M 439.368459 155.985542 
L 441.953636 155.985542 
L 441.953636 56.799312 
L 439.368459 56.799312 
z
" style="opacity:0.2;"/>
   </g>
   <g id="matplotlib.axis_3">
    <g id="xtick_4">
     <g id="line2d_9">
      <g>
       <use style="stroke:#000000;stroke-width:0.8;" x="306.382555" xlink:href="#mf03ccb4172" y="156.985542"/>
      </g>
     </g>
     <g id="text_11">
      <!-- −3 -->
      <defs>
       <path d="M 10.59375 35.5 
L 73.1875 35.5 
L 73.1875 27.203125 
L 10.59375 27.203125 
z
" id="DejaVuSans-8722"/>
       <path d="M 40.578125 39.3125 
Q 47.65625 37.796875 51.625 33 
Q 55.609375 28.21875 55.609375 21.1875 
Q 55.609375 10.40625 48.1875 4.484375 
Q 40.765625 -1.421875 27.09375 -1.421875 
Q 22.515625 -1.421875 17.65625 -0.515625 
Q 12.796875 0.390625 7.625 2.203125 
L 7.625 11.71875 
Q 11.71875 9.328125 16.59375 8.109375 
Q 21.484375 6.890625 26.8125 6.890625 
Q 36.078125 6.890625 40.9375 10.546875 
Q 45.796875 14.203125 45.796875 21.1875 
Q 45.796875 27.640625 41.28125 31.265625 
Q 36.765625 34.90625 28.71875 34.90625 
L 20.21875 34.90625 
L 20.21875 43.015625 
L 29.109375 43.015625 
Q 36.375 43.015625 40.234375 45.921875 
Q 44.09375 48.828125 44.09375 54.296875 
Q 44.09375 59.90625 40.109375 62.90625 
Q 36.140625 65.921875 28.71875 65.921875 
Q 24.65625 65.921875 20.015625 65.03125 
Q 15.375 64.15625 9.8125 62.3125 
L 9.8125 71.09375 
Q 15.4375 72.65625 20.34375 73.4375 
Q 25.25 74.21875 29.59375 74.21875 
Q 40.828125 74.21875 47.359375 69.109375 
Q 53.90625 64.015625 53.90625 55.328125 
Q 53.90625 49.265625 50.4375 45.09375 
Q 46.96875 40.921875 40.578125 39.3125 
z
" id="DejaVuSans-51"/>
      </defs>
      <g transform="translate(299.011462 171.58398)scale(0.1 -0.1)">
       <use xlink:href="#DejaVuSans-8722"/>
       <use x="83.789062" xlink:href="#DejaVuSans-51"/>
      </g>
     </g>
    </g>
    <g id="xtick_5">
     <g id="line2d_10">
      <g>
       <use style="stroke:#000000;stroke-width:0.8;" x="343.121384" xlink:href="#mf03ccb4172" y="156.985542"/>
      </g>
     </g>
     <g id="text_12">
      <!-- −2 -->
      <g transform="translate(335.75029 171.58398)scale(0.1 -0.1)">
       <use xlink:href="#DejaVuSans-8722"/>
       <use x="83.789062" xlink:href="#DejaVuSans-50"/>
      </g>
     </g>
    </g>
    <g id="xtick_6">
     <g id="line2d_11">
      <g>
       <use style="stroke:#000000;stroke-width:0.8;" x="379.860212" xlink:href="#mf03ccb4172" y="156.985542"/>
      </g>
     </g>
     <g id="text_13">
      <!-- −1 -->
      <g transform="translate(372.489118 171.58398)scale(0.1 -0.1)">
       <use xlink:href="#DejaVuSans-8722"/>
       <use x="83.789062" xlink:href="#DejaVuSans-49"/>
      </g>
     </g>
    </g>
    <g id="xtick_7">
     <g id="line2d_12">
      <g>
       <use style="stroke:#000000;stroke-width:0.8;" x="416.59904" xlink:href="#mf03ccb4172" y="156.985542"/>
      </g>
     </g>
     <g id="text_14">
      <!-- 0 -->
      <g transform="translate(413.41779 171.58398)scale(0.1 -0.1)">
       <use xlink:href="#DejaVuSans-48"/>
      </g>
     </g>
    </g>
    <g id="text_15">
     <!-- $\log_{10}K_\mathrm{S}$ -->
     <defs>
      <path d="M 45.40625 27.984375 
Q 45.40625 37.75 41.375 43.109375 
Q 37.359375 48.484375 30.078125 48.484375 
Q 22.859375 48.484375 18.828125 43.109375 
Q 14.796875 37.75 14.796875 27.984375 
Q 14.796875 18.265625 18.828125 12.890625 
Q 22.859375 7.515625 30.078125 7.515625 
Q 37.359375 7.515625 41.375 12.890625 
Q 45.40625 18.265625 45.40625 27.984375 
z
M 54.390625 6.78125 
Q 54.390625 -7.171875 48.1875 -13.984375 
Q 42 -20.796875 29.203125 -20.796875 
Q 24.46875 -20.796875 20.265625 -20.09375 
Q 16.0625 -19.390625 12.109375 -17.921875 
L 12.109375 -9.1875 
Q 16.0625 -11.328125 19.921875 -12.34375 
Q 23.78125 -13.375 27.78125 -13.375 
Q 36.625 -13.375 41.015625 -8.765625 
Q 45.40625 -4.15625 45.40625 5.171875 
L 45.40625 9.625 
Q 42.625 4.78125 38.28125 2.390625 
Q 33.9375 0 27.875 0 
Q 17.828125 0 11.671875 7.65625 
Q 5.515625 15.328125 5.515625 27.984375 
Q 5.515625 40.671875 11.671875 48.328125 
Q 17.828125 56 27.875 56 
Q 33.9375 56 38.28125 53.609375 
Q 42.625 51.21875 45.40625 46.390625 
L 45.40625 54.6875 
L 54.390625 54.6875 
z
" id="DejaVuSans-103"/>
     </defs>
     <g transform="translate(343.59 185.263667)scale(0.1 -0.1)">
      <use transform="translate(0 0.015625)" xlink:href="#DejaVuSans-108"/>
      <use transform="translate(27.783203 0.015625)" xlink:href="#DejaVuSans-111"/>
      <use transform="translate(88.964844 0.015625)" xlink:href="#DejaVuSans-103"/>
      <use transform="translate(153.398438 -16.390625)scale(0.7)" xlink:href="#DejaVuSans-49"/>
      <use transform="translate(197.93457 -16.390625)scale(0.7)" xlink:href="#DejaVuSans-48"/>
      <use transform="translate(245.205078 0.015625)" xlink:href="#DejaVuSans-Oblique-75"/>
      <use transform="translate(310.78125 -16.390625)scale(0.7)" xlink:href="#DejaVuSans-83"/>
     </g>
    </g>
   </g>
   <g id="matplotlib.axis_4">
    <g id="ytick_6">
     <g id="line2d_13">
      <g>
       <use style="stroke:#000000;stroke-width:0.8;" x="271.98" xlink:href="#m343ffd6bb1" y="155.985542"/>
      </g>
     </g>
     <g id="text_16">
      <!-- 0 -->
      <g transform="translate(258.6175 159.784761)scale(0.1 -0.1)">
       <use xlink:href="#DejaVuSans-48"/>
      </g>
     </g>
    </g>
    <g id="ytick_7">
     <g id="line2d_14">
      <g>
       <use style="stroke:#000000;stroke-width:0.8;" x="271.98" xlink:href="#m343ffd6bb1" y="130.331605"/>
      </g>
     </g>
     <g id="text_17">
      <!-- 200 -->
      <g transform="translate(245.8925 134.130824)scale(0.1 -0.1)">
       <use xlink:href="#DejaVuSans-50"/>
       <use x="63.623047" xlink:href="#DejaVuSans-48"/>
       <use x="127.246094" xlink:href="#DejaVuSans-48"/>
      </g>
     </g>
    </g>
    <g id="ytick_8">
     <g id="line2d_15">
      <g>
       <use style="stroke:#000000;stroke-width:0.8;" x="271.98" xlink:href="#m343ffd6bb1" y="104.677668"/>
      </g>
     </g>
     <g id="text_18">
      <!-- 400 -->
      <g transform="translate(245.8925 108.476887)scale(0.1 -0.1)">
       <use xlink:href="#DejaVuSans-52"/>
       <use x="63.623047" xlink:href="#DejaVuSans-48"/>
       <use x="127.246094" xlink:href="#DejaVuSans-48"/>
      </g>
     </g>
    </g>
    <g id="ytick_9">
     <g id="line2d_16">
      <g>
       <use style="stroke:#000000;stroke-width:0.8;" x="271.98" xlink:href="#m343ffd6bb1" y="79.023731"/>
      </g>
     </g>
     <g id="text_19">
      <!-- 600 -->
      <defs>
       <path d="M 33.015625 40.375 
Q 26.375 40.375 22.484375 35.828125 
Q 18.609375 31.296875 18.609375 23.390625 
Q 18.609375 15.53125 22.484375 10.953125 
Q 26.375 6.390625 33.015625 6.390625 
Q 39.65625 6.390625 43.53125 10.953125 
Q 47.40625 15.53125 47.40625 23.390625 
Q 47.40625 31.296875 43.53125 35.828125 
Q 39.65625 40.375 33.015625 40.375 
z
M 52.59375 71.296875 
L 52.59375 62.3125 
Q 48.875 64.0625 45.09375 64.984375 
Q 41.3125 65.921875 37.59375 65.921875 
Q 27.828125 65.921875 22.671875 59.328125 
Q 17.53125 52.734375 16.796875 39.40625 
Q 19.671875 43.65625 24.015625 45.921875 
Q 28.375 48.1875 33.59375 48.1875 
Q 44.578125 48.1875 50.953125 41.515625 
Q 57.328125 34.859375 57.328125 23.390625 
Q 57.328125 12.15625 50.6875 5.359375 
Q 44.046875 -1.421875 33.015625 -1.421875 
Q 20.359375 -1.421875 13.671875 8.265625 
Q 6.984375 17.96875 6.984375 36.375 
Q 6.984375 53.65625 15.1875 63.9375 
Q 23.390625 74.21875 37.203125 74.21875 
Q 40.921875 74.21875 44.703125 73.484375 
Q 48.484375 72.75 52.59375 71.296875 
z
" id="DejaVuSans-54"/>
      </defs>
      <g transform="translate(245.8925 82.82295)scale(0.1 -0.1)">
       <use xlink:href="#DejaVuSans-54"/>
       <use x="63.623047" xlink:href="#DejaVuSans-48"/>
       <use x="127.246094" xlink:href="#DejaVuSans-48"/>
      </g>
     </g>
    </g>
    <g id="ytick_10">
     <g id="line2d_17">
      <g>
       <use style="stroke:#000000;stroke-width:0.8;" x="271.98" xlink:href="#m343ffd6bb1" y="53.369794"/>
      </g>
     </g>
     <g id="text_20">
      <!-- 800 -->
      <defs>
       <path d="M 31.78125 34.625 
Q 24.75 34.625 20.71875 30.859375 
Q 16.703125 27.09375 16.703125 20.515625 
Q 16.703125 13.921875 20.71875 10.15625 
Q 24.75 6.390625 31.78125 6.390625 
Q 38.8125 6.390625 42.859375 10.171875 
Q 46.921875 13.96875 46.921875 20.515625 
Q 46.921875 27.09375 42.890625 30.859375 
Q 38.875 34.625 31.78125 34.625 
z
M 21.921875 38.8125 
Q 15.578125 40.375 12.03125 44.71875 
Q 8.5 49.078125 8.5 55.328125 
Q 8.5 64.0625 14.71875 69.140625 
Q 20.953125 74.21875 31.78125 74.21875 
Q 42.671875 74.21875 48.875 69.140625 
Q 55.078125 64.0625 55.078125 55.328125 
Q 55.078125 49.078125 51.53125 44.71875 
Q 48 40.375 41.703125 38.8125 
Q 48.828125 37.15625 52.796875 32.3125 
Q 56.78125 27.484375 56.78125 20.515625 
Q 56.78125 9.90625 50.3125 4.234375 
Q 43.84375 -1.421875 31.78125 -1.421875 
Q 19.734375 -1.421875 13.25 4.234375 
Q 6.78125 9.90625 6.78125 20.515625 
Q 6.78125 27.484375 10.78125 32.3125 
Q 14.796875 37.15625 21.921875 38.8125 
z
M 18.3125 54.390625 
Q 18.3125 48.734375 21.84375 45.5625 
Q 25.390625 42.390625 31.78125 42.390625 
Q 38.140625 42.390625 41.71875 45.5625 
Q 45.3125 48.734375 45.3125 54.390625 
Q 45.3125 60.0625 41.71875 63.234375 
Q 38.140625 66.40625 31.78125 66.40625 
Q 25.390625 66.40625 21.84375 63.234375 
Q 18.3125 60.0625 18.3125 54.390625 
z
" id="DejaVuSans-56"/>
      </defs>
      <g transform="translate(245.8925 57.169013)scale(0.1 -0.1)">
       <use xlink:href="#DejaVuSans-56"/>
       <use x="63.623047" xlink:href="#DejaVuSans-48"/>
       <use x="127.246094" xlink:href="#DejaVuSans-48"/>
      </g>
     </g>
    </g>
   </g>
   <g id="patch_106">
    <path d="M 271.98 155.985542 
L 271.98 51.84 
" style="fill:none;stroke:#000000;stroke-linecap:square;stroke-linejoin:miter;stroke-width:0.8;"/>
   </g>
   <g id="patch_107">
    <path d="M 272.98 156.985542 
L 450 156.985542 
" style="fill:none;stroke:#000000;stroke-linecap:square;stroke-linejoin:miter;stroke-width:0.8;"/>
   </g>
  </g>
  <g id="axes_3">
   <g id="patch_108">
    <path d="M 58.17 299.76 
L 235.19 299.76 
L 235.19 195.614458 
L 58.17 195.614458 
z
" style="fill:#ffffff;"/>
   </g>
   <g id="patch_109">
    <path clip-path="url(#pd0384711f5)" d="M 66.216364 299.76 
L 68.801541 299.76 
L 68.801541 299.391398 
L 66.216364 299.391398 
z
" style="opacity:0.2;"/>
   </g>
   <g id="patch_110">
    <path clip-path="url(#pd0384711f5)" d="M 69.447835 299.76 
L 72.033012 299.76 
L 72.033012 299.76 
L 69.447835 299.76 
z
" style="opacity:0.2;"/>
   </g>
   <g id="patch_111">
    <path clip-path="url(#pd0384711f5)" d="M 72.679306 299.76 
L 75.264483 299.76 
L 75.264483 299.76 
L 72.679306 299.76 
z
" style="opacity:0.2;"/>
   </g>
   <g id="patch_112">
    <path clip-path="url(#pd0384711f5)" d="M 75.910778 299.76 
L 78.495955 299.76 
L 78.495955 299.76 
L 75.910778 299.76 
z
" style="opacity:0.2;"/>
   </g>
   <g id="patch_113">
    <path clip-path="url(#pd0384711f5)" d="M 79.142249 299.76 
L 81.727426 299.76 
L 81.727426 299.455687 
L 79.142249 299.455687 
z
" style="opacity:0.2;"/>
   </g>
   <g id="patch_114">
    <path clip-path="url(#pd0384711f5)" d="M 82.37372 299.76 
L 84.958897 299.76 
L 84.958897 299.633203 
L 82.37372 299.633203 
z
" style="opacity:0.2;"/>
   </g>
   <g id="patch_115">
    <path clip-path="url(#pd0384711f5)" d="M 85.605192 299.76 
L 88.190369 299.76 
L 88.190369 299.607843 
L 85.605192 299.607843 
z
" style="opacity:0.2;"/>
   </g>
   <g id="patch_116">
    <path clip-path="url(#pd0384711f5)" d="M 88.836663 299.76 
L 91.42184 299.76 
L 91.42184 299.734641 
L 88.836663 299.734641 
z
" style="opacity:0.2;"/>
   </g>
   <g id="patch_117">
    <path clip-path="url(#pd0384711f5)" d="M 92.068134 299.76 
L 94.653311 299.76 
L 94.653311 299.540218 
L 92.068134 299.540218 
z
" style="opacity:0.2;"/>
   </g>
   <g id="patch_118">
    <path clip-path="url(#pd0384711f5)" d="M 95.299606 299.76 
L 97.884783 299.76 
L 97.884783 299.650109 
L 95.299606 299.650109 
z
" style="opacity:0.2;"/>
   </g>
   <g id="patch_119">
    <path clip-path="url(#pd0384711f5)" d="M 98.531077 299.76 
L 101.116254 299.76 
L 101.116254 299.607843 
L 98.531077 299.607843 
z
" style="opacity:0.2;"/>
   </g>
   <g id="patch_120">
    <path clip-path="url(#pd0384711f5)" d="M 101.762548 299.76 
L 104.347725 299.76 
L 104.347725 299.439988 
L 101.762548 299.439988 
z
" style="opacity:0.2;"/>
   </g>
   <g id="patch_121">
    <path clip-path="url(#pd0384711f5)" d="M 104.99402 299.76 
L 107.579197 299.76 
L 107.579197 299.475008 
L 104.99402 299.475008 
z
" style="opacity:0.2;"/>
   </g>
   <g id="patch_122">
    <path clip-path="url(#pd0384711f5)" d="M 108.225491 299.76 
L 110.810668 299.76 
L 110.810668 298.814311 
L 108.225491 298.814311 
z
" style="opacity:0.2;"/>
   </g>
   <g id="patch_123">
    <path clip-path="url(#pd0384711f5)" d="M 111.456962 299.76 
L 114.042139 299.76 
L 114.042139 298.348437 
L 111.456962 298.348437 
z
" style="opacity:0.2;"/>
   </g>
   <g id="patch_124">
    <path clip-path="url(#pd0384711f5)" d="M 114.688434 299.76 
L 117.273611 299.76 
L 117.273611 297.896144 
L 114.688434 297.896144 
z
" style="opacity:0.2;"/>
   </g>
   <g id="patch_125">
    <path clip-path="url(#pd0384711f5)" d="M 117.919905 299.76 
L 120.505082 299.76 
L 120.505082 296.846484 
L 117.919905 296.846484 
z
" style="opacity:0.2;"/>
   </g>
   <g id="patch_126">
    <path clip-path="url(#pd0384711f5)" d="M 121.151376 299.76 
L 123.736553 299.76 
L 123.736553 296.626604 
L 121.151376 296.626604 
z
" style="opacity:0.2;"/>
   </g>
   <g id="patch_127">
    <path clip-path="url(#pd0384711f5)" d="M 124.382848 299.76 
L 126.968025 299.76 
L 126.968025 294.839009 
L 124.382848 294.839009 
z
" style="opacity:0.2;"/>
   </g>
   <g id="patch_128">
    <path clip-path="url(#pd0384711f5)" d="M 127.614319 299.76 
L 130.199496 299.76 
L 130.199496 292.687875 
L 127.614319 292.687875 
z
" style="opacity:0.2;"/>
   </g>
   <g id="patch_129">
    <path clip-path="url(#pd0384711f5)" d="M 130.84579 299.76 
L 133.430968 299.76 
L 133.430968 289.800764 
L 130.84579 289.800764 
z
" style="opacity:0.2;"/>
   </g>
   <g id="patch_130">
    <path clip-path="url(#pd0384711f5)" d="M 134.077262 299.76 
L 136.662439 299.76 
L 136.662439 284.820674 
L 134.077262 284.820674 
z
" style="opacity:0.2;"/>
   </g>
   <g id="patch_131">
    <path clip-path="url(#pd0384711f5)" d="M 137.308733 299.76 
L 139.89391 299.76 
L 139.89391 282.83026 
L 137.308733 282.83026 
z
" style="opacity:0.2;"/>
   </g>
   <g id="patch_132">
    <path clip-path="url(#pd0384711f5)" d="M 140.540204 299.76 
L 143.125382 299.76 
L 143.125382 278.918881 
L 140.540204 278.918881 
z
" style="opacity:0.2;"/>
   </g>
   <g id="patch_133">
    <path clip-path="url(#pd0384711f5)" d="M 143.771676 299.76 
L 146.356853 299.76 
L 146.356853 268.722177 
L 143.771676 268.722177 
z
" style="opacity:0.2;"/>
   </g>
   <g id="patch_134">
    <path clip-path="url(#pd0384711f5)" d="M 147.003147 299.76 
L 149.588324 299.76 
L 149.588324 263.691722 
L 147.003147 263.691722 
z
" style="opacity:0.2;"/>
   </g>
   <g id="patch_135">
    <path clip-path="url(#pd0384711f5)" d="M 150.234618 299.76 
L 152.819796 299.76 
L 152.819796 252.918931 
L 150.234618 252.918931 
z
" style="opacity:0.2;"/>
   </g>
   <g id="patch_136">
    <path clip-path="url(#pd0384711f5)" d="M 153.46609 299.76 
L 156.051267 299.76 
L 156.051267 240.767984 
L 153.46609 240.767984 
z
" style="opacity:0.2;"/>
   </g>
   <g id="patch_137">
    <path clip-path="url(#pd0384711f5)" d="M 156.697561 299.76 
L 159.282738 299.76 
L 159.282738 228.866108 
L 156.697561 228.866108 
z
" style="opacity:0.2;"/>
   </g>
   <g id="patch_138">
    <path clip-path="url(#pd0384711f5)" d="M 159.929032 299.76 
L 162.51421 299.76 
L 162.51421 217.556725 
L 159.929032 217.556725 
z
" style="opacity:0.2;"/>
   </g>
   <g id="patch_139">
    <path clip-path="url(#pd0384711f5)" d="M 163.160504 299.76 
L 165.745681 299.76 
L 165.745681 207.988858 
L 163.160504 207.988858 
z
" style="opacity:0.2;"/>
   </g>
   <g id="patch_140">
    <path clip-path="url(#pd0384711f5)" d="M 166.391975 299.76 
L 168.977152 299.76 
L 168.977152 203.405764 
L 166.391975 203.405764 
z
" style="opacity:0.2;"/>
   </g>
   <g id="patch_141">
    <path clip-path="url(#pd0384711f5)" d="M 169.623447 299.76 
L 172.208624 299.76 
L 172.208624 200.573769 
L 169.623447 200.573769 
z
" style="opacity:0.2;"/>
   </g>
   <g id="patch_142">
    <path clip-path="url(#pd0384711f5)" d="M 172.854918 299.76 
L 175.440095 299.76 
L 175.440095 211.461997 
L 172.854918 211.461997 
z
" style="opacity:0.2;"/>
   </g>
   <g id="patch_143">
    <path clip-path="url(#pd0384711f5)" d="M 176.086389 299.76 
L 178.671566 299.76 
L 178.671566 221.625579 
L 176.086389 221.625579 
z
" style="opacity:0.2;"/>
   </g>
   <g id="patch_144">
    <path clip-path="url(#pd0384711f5)" d="M 179.317861 299.76 
L 181.903038 299.76 
L 181.903038 259.071386 
L 179.317861 259.071386 
z
" style="opacity:0.2;"/>
   </g>
   <g id="patch_145">
    <path clip-path="url(#pd0384711f5)" d="M 182.549332 299.76 
L 185.134509 299.76 
L 185.134509 281.635932 
L 182.549332 281.635932 
z
" style="opacity:0.2;"/>
   </g>
   <g id="patch_146">
    <path clip-path="url(#pd0384711f5)" d="M 185.780803 299.76 
L 188.36598 299.76 
L 188.36598 292.762778 
L 185.780803 292.762778 
z
" style="opacity:0.2;"/>
   </g>
   <g id="patch_147">
    <path clip-path="url(#pd0384711f5)" d="M 189.012275 299.76 
L 191.597452 299.76 
L 191.597452 297.995428 
L 189.012275 297.995428 
z
" style="opacity:0.2;"/>
   </g>
   <g id="patch_148">
    <path clip-path="url(#pd0384711f5)" d="M 192.243746 299.76 
L 194.828923 299.76 
L 194.828923 299.222303 
L 192.243746 299.222303 
z
" style="opacity:0.2;"/>
   </g>
   <g id="patch_149">
    <path clip-path="url(#pd0384711f5)" d="M 195.475217 299.76 
L 198.060394 299.76 
L 198.060394 299.555236 
L 195.475217 299.555236 
z
" style="opacity:0.2;"/>
   </g>
   <g id="patch_150">
    <path clip-path="url(#pd0384711f5)" d="M 198.706689 299.76 
L 201.291866 299.76 
L 201.291866 299.357107 
L 198.706689 299.357107 
z
" style="opacity:0.2;"/>
   </g>
   <g id="patch_151">
    <path clip-path="url(#pd0384711f5)" d="M 201.93816 299.76 
L 204.523337 299.76 
L 204.523337 299.541108 
L 201.93816 299.541108 
z
" style="opacity:0.2;"/>
   </g>
   <g id="patch_152">
    <path clip-path="url(#pd0384711f5)" d="M 205.169631 299.76 
L 207.754808 299.76 
L 207.754808 298.71427 
L 205.169631 298.71427 
z
" style="opacity:0.2;"/>
   </g>
   <g id="patch_153">
    <path clip-path="url(#pd0384711f5)" d="M 208.401103 299.76 
L 210.98628 299.76 
L 210.98628 299.034029 
L 208.401103 299.034029 
z
" style="opacity:0.2;"/>
   </g>
   <g id="patch_154">
    <path clip-path="url(#pd0384711f5)" d="M 211.632574 299.76 
L 214.217751 299.76 
L 214.217751 299.142902 
L 211.632574 299.142902 
z
" style="opacity:0.2;"/>
   </g>
   <g id="patch_155">
    <path clip-path="url(#pd0384711f5)" d="M 214.864045 299.76 
L 217.449222 299.76 
L 217.449222 299.455295 
L 214.864045 299.455295 
z
" style="opacity:0.2;"/>
   </g>
   <g id="patch_156">
    <path clip-path="url(#pd0384711f5)" d="M 218.095517 299.76 
L 220.680694 299.76 
L 220.680694 298.692762 
L 218.095517 298.692762 
z
" style="opacity:0.2;"/>
   </g>
   <g id="patch_157">
    <path clip-path="url(#pd0384711f5)" d="M 221.326988 299.76 
L 223.912165 299.76 
L 223.912165 298.487449 
L 221.326988 298.487449 
z
" style="opacity:0.2;"/>
   </g>
   <g id="patch_158">
    <path clip-path="url(#pd0384711f5)" d="M 224.558459 299.76 
L 227.143636 299.76 
L 227.143636 299.690315 
L 224.558459 299.690315 
z
" style="opacity:0.2;"/>
   </g>
   <g id="matplotlib.axis_5">
    <g id="xtick_8">
     <g id="line2d_18">
      <g>
       <use style="stroke:#000000;stroke-width:0.8;" x="65.893217" xlink:href="#mf03ccb4172" y="300.76"/>
      </g>
     </g>
     <g id="text_21">
      <!-- −4 -->
      <g transform="translate(58.522123 315.358437)scale(0.1 -0.1)">
       <use xlink:href="#DejaVuSans-8722"/>
       <use x="83.789062" xlink:href="#DejaVuSans-52"/>
      </g>
     </g>
    </g>
    <g id="xtick_9">
     <g id="line2d_19">
      <g>
       <use style="stroke:#000000;stroke-width:0.8;" x="123.651317" xlink:href="#mf03ccb4172" y="300.76"/>
      </g>
     </g>
     <g id="text_22">
      <!-- −2 -->
      <g transform="translate(116.280224 315.358437)scale(0.1 -0.1)">
       <use xlink:href="#DejaVuSans-8722"/>
       <use x="83.789062" xlink:href="#DejaVuSans-50"/>
      </g>
     </g>
    </g>
    <g id="xtick_10">
     <g id="line2d_20">
      <g>
       <use style="stroke:#000000;stroke-width:0.8;" x="181.409418" xlink:href="#mf03ccb4172" y="300.76"/>
      </g>
     </g>
     <g id="text_23">
      <!-- 0 -->
      <g transform="translate(178.228168 315.358437)scale(0.1 -0.1)">
       <use xlink:href="#DejaVuSans-48"/>
      </g>
     </g>
    </g>
    <g id="text_24">
     <!-- $\log_{10}K_\mathrm{A}$ -->
     <defs>
      <path d="M 34.1875 63.1875 
L 20.796875 26.90625 
L 47.609375 26.90625 
z
M 28.609375 72.90625 
L 39.796875 72.90625 
L 67.578125 0 
L 57.328125 0 
L 50.6875 18.703125 
L 17.828125 18.703125 
L 11.1875 0 
L 0.78125 0 
z
" id="DejaVuSans-65"/>
     </defs>
     <g transform="translate(128.58 329.038125)scale(0.1 -0.1)">
      <use transform="translate(0 0.015625)" xlink:href="#DejaVuSans-108"/>
      <use transform="translate(27.783203 0.015625)" xlink:href="#DejaVuSans-111"/>
      <use transform="translate(88.964844 0.015625)" xlink:href="#DejaVuSans-103"/>
      <use transform="translate(153.398438 -16.390625)scale(0.7)" xlink:href="#DejaVuSans-49"/>
      <use transform="translate(197.93457 -16.390625)scale(0.7)" xlink:href="#DejaVuSans-48"/>
      <use transform="translate(245.205078 0.015625)" xlink:href="#DejaVuSans-Oblique-75"/>
      <use transform="translate(310.78125 -16.390625)scale(0.7)" xlink:href="#DejaVuSans-65"/>
     </g>
    </g>
   </g>
   <g id="matplotlib.axis_6">
    <g id="ytick_11">
     <g id="line2d_21">
      <g>
       <use style="stroke:#000000;stroke-width:0.8;" x="57.17" xlink:href="#m343ffd6bb1" y="299.76"/>
      </g>
     </g>
     <g id="text_25">
      <!-- 0 -->
      <g transform="translate(43.8075 303.559219)scale(0.1 -0.1)">
       <use xlink:href="#DejaVuSans-48"/>
      </g>
     </g>
    </g>
    <g id="ytick_12">
     <g id="line2d_22">
      <g>
       <use style="stroke:#000000;stroke-width:0.8;" x="57.17" xlink:href="#m343ffd6bb1" y="274.400574"/>
      </g>
     </g>
     <g id="text_26">
      <!-- 250 -->
      <g transform="translate(31.0825 278.199793)scale(0.1 -0.1)">
       <use xlink:href="#DejaVuSans-50"/>
       <use x="63.623047" xlink:href="#DejaVuSans-53"/>
       <use x="127.246094" xlink:href="#DejaVuSans-48"/>
      </g>
     </g>
    </g>
    <g id="ytick_13">
     <g id="line2d_23">
      <g>
       <use style="stroke:#000000;stroke-width:0.8;" x="57.17" xlink:href="#m343ffd6bb1" y="249.041149"/>
      </g>
     </g>
     <g id="text_27">
      <!-- 500 -->
      <g transform="translate(31.0825 252.840367)scale(0.1 -0.1)">
       <use xlink:href="#DejaVuSans-53"/>
       <use x="63.623047" xlink:href="#DejaVuSans-48"/>
       <use x="127.246094" xlink:href="#DejaVuSans-48"/>
      </g>
     </g>
    </g>
    <g id="ytick_14">
     <g id="line2d_24">
      <g>
       <use style="stroke:#000000;stroke-width:0.8;" x="57.17" xlink:href="#m343ffd6bb1" y="223.681723"/>
      </g>
     </g>
     <g id="text_28">
      <!-- 750 -->
      <g transform="translate(31.0825 227.480942)scale(0.1 -0.1)">
       <use xlink:href="#DejaVuSans-55"/>
       <use x="63.623047" xlink:href="#DejaVuSans-53"/>
       <use x="127.246094" xlink:href="#DejaVuSans-48"/>
      </g>
     </g>
    </g>
    <g id="ytick_15">
     <g id="line2d_25">
      <g>
       <use style="stroke:#000000;stroke-width:0.8;" x="57.17" xlink:href="#m343ffd6bb1" y="198.322297"/>
      </g>
     </g>
     <g id="text_29">
      <!-- 1000 -->
      <g transform="translate(24.72 202.121516)scale(0.1 -0.1)">
       <use xlink:href="#DejaVuSans-49"/>
       <use x="63.623047" xlink:href="#DejaVuSans-48"/>
       <use x="127.246094" xlink:href="#DejaVuSans-48"/>
       <use x="190.869141" xlink:href="#DejaVuSans-48"/>
      </g>
     </g>
    </g>
    <g id="text_30">
     <!-- Duplications -->
     <g transform="translate(18.640313 278.653635)rotate(-90)scale(0.1 -0.1)">
      <use xlink:href="#DejaVuSans-68"/>
      <use x="77.001953" xlink:href="#DejaVuSans-117"/>
      <use x="140.380859" xlink:href="#DejaVuSans-112"/>
      <use x="203.857422" xlink:href="#DejaVuSans-108"/>
      <use x="231.640625" xlink:href="#DejaVuSans-105"/>
      <use x="259.423828" xlink:href="#DejaVuSans-99"/>
      <use x="314.404297" xlink:href="#DejaVuSans-97"/>
      <use x="375.683594" xlink:href="#DejaVuSans-116"/>
      <use x="414.892578" xlink:href="#DejaVuSans-105"/>
      <use x="442.675781" xlink:href="#DejaVuSans-111"/>
      <use x="503.857422" xlink:href="#DejaVuSans-110"/>
      <use x="567.236328" xlink:href="#DejaVuSans-115"/>
     </g>
    </g>
   </g>
   <g id="patch_159">
    <path d="M 57.17 299.76 
L 57.17 195.614458 
" style="fill:none;stroke:#000000;stroke-linecap:square;stroke-linejoin:miter;stroke-width:0.8;"/>
   </g>
   <g id="patch_160">
    <path d="M 58.17 300.76 
L 235.19 300.76 
" style="fill:none;stroke:#000000;stroke-linecap:square;stroke-linejoin:miter;stroke-width:0.8;"/>
   </g>
  </g>
  <g id="axes_4">
   <g id="patch_161">
    <path d="M 272.98 299.76 
L 450 299.76 
L 450 195.614458 
L 272.98 195.614458 
z
" style="fill:#ffffff;"/>
   </g>
   <g id="patch_162">
    <path clip-path="url(#p6c2386af75)" d="M 281.026364 299.76 
L 283.611541 299.76 
L 283.611541 296.530654 
L 281.026364 296.530654 
z
" style="opacity:0.2;"/>
   </g>
   <g id="patch_163">
    <path clip-path="url(#p6c2386af75)" d="M 284.257835 299.76 
L 286.843012 299.76 
L 286.843012 299.651673 
L 284.257835 299.651673 
z
" style="opacity:0.2;"/>
   </g>
   <g id="patch_164">
    <path clip-path="url(#p6c2386af75)" d="M 287.489306 299.76 
L 290.074483 299.76 
L 290.074483 299.651673 
L 287.489306 299.651673 
z
" style="opacity:0.2;"/>
   </g>
   <g id="patch_165">
    <path clip-path="url(#p6c2386af75)" d="M 290.720778 299.76 
L 293.305955 299.76 
L 293.305955 299.489183 
L 290.720778 299.489183 
z
" style="opacity:0.2;"/>
   </g>
   <g id="patch_166">
    <path clip-path="url(#p6c2386af75)" d="M 293.952249 299.76 
L 296.537426 299.76 
L 296.537426 299.732918 
L 293.952249 299.732918 
z
" style="opacity:0.2;"/>
   </g>
   <g id="patch_167">
    <path clip-path="url(#p6c2386af75)" d="M 297.18372 299.76 
L 299.768897 299.76 
L 299.768897 299.651673 
L 297.18372 299.651673 
z
" style="opacity:0.2;"/>
   </g>
   <g id="patch_168">
    <path clip-path="url(#p6c2386af75)" d="M 300.415192 299.76 
L 303.000369 299.76 
L 303.000369 299.272529 
L 300.415192 299.272529 
z
" style="opacity:0.2;"/>
   </g>
   <g id="patch_169">
    <path clip-path="url(#p6c2386af75)" d="M 303.646663 299.76 
L 306.23184 299.76 
L 306.23184 299.362801 
L 303.646663 299.362801 
z
" style="opacity:0.2;"/>
   </g>
   <g id="patch_170">
    <path clip-path="url(#p6c2386af75)" d="M 306.878134 299.76 
L 309.463311 299.76 
L 309.463311 299.317665 
L 306.878134 299.317665 
z
" style="opacity:0.2;"/>
   </g>
   <g id="patch_171">
    <path clip-path="url(#p6c2386af75)" d="M 310.109606 299.76 
L 312.694783 299.76 
L 312.694783 299.543346 
L 310.109606 299.543346 
z
" style="opacity:0.2;"/>
   </g>
   <g id="patch_172">
    <path clip-path="url(#p6c2386af75)" d="M 313.341077 299.76 
L 315.926254 299.76 
L 315.926254 299.588843 
L 313.341077 299.588843 
z
" style="opacity:0.2;"/>
   </g>
   <g id="patch_173">
    <path clip-path="url(#p6c2386af75)" d="M 316.572548 299.76 
L 319.157725 299.76 
L 319.157725 298.721867 
L 316.572548 298.721867 
z
" style="opacity:0.2;"/>
   </g>
   <g id="patch_174">
    <path clip-path="url(#p6c2386af75)" d="M 319.80402 299.76 
L 322.389197 299.76 
L 322.389197 298.937558 
L 319.80402 298.937558 
z
" style="opacity:0.2;"/>
   </g>
   <g id="patch_175">
    <path clip-path="url(#p6c2386af75)" d="M 323.035491 299.76 
L 325.620668 299.76 
L 325.620668 298.002353 
L 323.035491 298.002353 
z
" style="opacity:0.2;"/>
   </g>
   <g id="patch_176">
    <path clip-path="url(#p6c2386af75)" d="M 326.266962 299.76 
L 328.852139 299.76 
L 328.852139 296.892286 
L 326.266962 296.892286 
z
" style="opacity:0.2;"/>
   </g>
   <g id="patch_177">
    <path clip-path="url(#p6c2386af75)" d="M 329.498434 299.76 
L 332.083611 299.76 
L 332.083611 296.141177 
L 329.498434 296.141177 
z
" style="opacity:0.2;"/>
   </g>
   <g id="patch_178">
    <path clip-path="url(#p6c2386af75)" d="M 332.729905 299.76 
L 335.315082 299.76 
L 335.315082 293.853427 
L 332.729905 293.853427 
z
" style="opacity:0.2;"/>
   </g>
   <g id="patch_179">
    <path clip-path="url(#p6c2386af75)" d="M 335.961376 299.76 
L 338.546553 299.76 
L 338.546553 289.222302 
L 335.961376 289.222302 
z
" style="opacity:0.2;"/>
   </g>
   <g id="patch_180">
    <path clip-path="url(#p6c2386af75)" d="M 339.192848 299.76 
L 341.778025 299.76 
L 341.778025 282.810497 
L 339.192848 282.810497 
z
" style="opacity:0.2;"/>
   </g>
   <g id="patch_181">
    <path clip-path="url(#p6c2386af75)" d="M 342.424319 299.76 
L 345.009496 299.76 
L 345.009496 266.241646 
L 342.424319 266.241646 
z
" style="opacity:0.2;"/>
   </g>
   <g id="patch_182">
    <path clip-path="url(#p6c2386af75)" d="M 345.65579 299.76 
L 348.240968 299.76 
L 348.240968 253.8139 
L 345.65579 253.8139 
z
" style="opacity:0.2;"/>
   </g>
   <g id="patch_183">
    <path clip-path="url(#p6c2386af75)" d="M 348.887262 299.76 
L 351.472439 299.76 
L 351.472439 232.888251 
L 348.887262 232.888251 
z
" style="opacity:0.2;"/>
   </g>
   <g id="patch_184">
    <path clip-path="url(#p6c2386af75)" d="M 352.118733 299.76 
L 354.70391 299.76 
L 354.70391 209.34439 
L 352.118733 209.34439 
z
" style="opacity:0.2;"/>
   </g>
   <g id="patch_185">
    <path clip-path="url(#p6c2386af75)" d="M 355.350204 299.76 
L 357.935382 299.76 
L 357.935382 208.23308 
L 355.350204 208.23308 
z
" style="opacity:0.2;"/>
   </g>
   <g id="patch_186">
    <path clip-path="url(#p6c2386af75)" d="M 358.581676 299.76 
L 361.166853 299.76 
L 361.166853 207.718249 
L 358.581676 207.718249 
z
" style="opacity:0.2;"/>
   </g>
   <g id="patch_187">
    <path clip-path="url(#p6c2386af75)" d="M 361.813147 299.76 
L 364.398324 299.76 
L 364.398324 208.107907 
L 361.813147 208.107907 
z
" style="opacity:0.2;"/>
   </g>
   <g id="patch_188">
    <path clip-path="url(#p6c2386af75)" d="M 365.044618 299.76 
L 367.629796 299.76 
L 367.629796 201.499746 
L 365.044618 201.499746 
z
" style="opacity:0.2;"/>
   </g>
   <g id="patch_189">
    <path clip-path="url(#p6c2386af75)" d="M 368.27609 299.76 
L 370.861267 299.76 
L 370.861267 200.573769 
L 368.27609 200.573769 
z
" style="opacity:0.2;"/>
   </g>
   <g id="patch_190">
    <path clip-path="url(#p6c2386af75)" d="M 371.507561 299.76 
L 374.092738 299.76 
L 374.092738 210.826408 
L 371.507561 210.826408 
z
" style="opacity:0.2;"/>
   </g>
   <g id="patch_191">
    <path clip-path="url(#p6c2386af75)" d="M 374.739032 299.76 
L 377.32421 299.76 
L 377.32421 237.243507 
L 374.739032 237.243507 
z
" style="opacity:0.2;"/>
   </g>
   <g id="patch_192">
    <path clip-path="url(#p6c2386af75)" d="M 377.970504 299.76 
L 380.555681 299.76 
L 380.555681 259.254771 
L 377.970504 259.254771 
z
" style="opacity:0.2;"/>
   </g>
   <g id="patch_193">
    <path clip-path="url(#p6c2386af75)" d="M 381.201975 299.76 
L 383.787152 299.76 
L 383.787152 278.393775 
L 381.201975 278.393775 
z
" style="opacity:0.2;"/>
   </g>
   <g id="patch_194">
    <path clip-path="url(#p6c2386af75)" d="M 384.433447 299.76 
L 387.018624 299.76 
L 387.018624 288.204413 
L 384.433447 288.204413 
z
" style="opacity:0.2;"/>
   </g>
   <g id="patch_195">
    <path clip-path="url(#p6c2386af75)" d="M 387.664918 299.76 
L 390.250095 299.76 
L 390.250095 292.999068 
L 387.664918 292.999068 
z
" style="opacity:0.2;"/>
   </g>
   <g id="patch_196">
    <path clip-path="url(#p6c2386af75)" d="M 390.896389 299.76 
L 393.481566 299.76 
L 393.481566 296.340147 
L 390.896389 296.340147 
z
" style="opacity:0.2;"/>
   </g>
   <g id="patch_197">
    <path clip-path="url(#p6c2386af75)" d="M 394.127861 299.76 
L 396.713038 299.76 
L 396.713038 297.527455 
L 394.127861 297.527455 
z
" style="opacity:0.2;"/>
   </g>
   <g id="patch_198">
    <path clip-path="url(#p6c2386af75)" d="M 397.359332 299.76 
L 399.944509 299.76 
L 399.944509 298.422443 
L 397.359332 298.422443 
z
" style="opacity:0.2;"/>
   </g>
   <g id="patch_199">
    <path clip-path="url(#p6c2386af75)" d="M 400.590803 299.76 
L 403.17598 299.76 
L 403.17598 298.584593 
L 400.590803 298.584593 
z
" style="opacity:0.2;"/>
   </g>
   <g id="patch_200">
    <path clip-path="url(#p6c2386af75)" d="M 403.822275 299.76 
L 406.407452 299.76 
L 406.407452 299.446038 
L 403.822275 299.446038 
z
" style="opacity:0.2;"/>
   </g>
   <g id="patch_201">
    <path clip-path="url(#p6c2386af75)" d="M 407.053746 299.76 
L 409.638923 299.76 
L 409.638923 299.116309 
L 407.053746 299.116309 
z
" style="opacity:0.2;"/>
   </g>
   <g id="patch_202">
    <path clip-path="url(#p6c2386af75)" d="M 410.285217 299.76 
L 412.870394 299.76 
L 412.870394 299.54305 
L 410.285217 299.54305 
z
" style="opacity:0.2;"/>
   </g>
   <g id="patch_203">
    <path clip-path="url(#p6c2386af75)" d="M 413.516689 299.76 
L 416.101866 299.76 
L 416.101866 299.505919 
L 413.516689 299.505919 
z
" style="opacity:0.2;"/>
   </g>
   <g id="patch_204">
    <path clip-path="url(#p6c2386af75)" d="M 416.74816 299.76 
L 419.333337 299.76 
L 419.333337 299.618478 
L 416.74816 299.618478 
z
" style="opacity:0.2;"/>
   </g>
   <g id="patch_205">
    <path clip-path="url(#p6c2386af75)" d="M 419.979631 299.76 
L 422.564808 299.76 
L 422.564808 299.51523 
L 419.979631 299.51523 
z
" style="opacity:0.2;"/>
   </g>
   <g id="patch_206">
    <path clip-path="url(#p6c2386af75)" d="M 423.211103 299.76 
L 425.79628 299.76 
L 425.79628 299.479666 
L 423.211103 299.479666 
z
" style="opacity:0.2;"/>
   </g>
   <g id="patch_207">
    <path clip-path="url(#p6c2386af75)" d="M 426.442574 299.76 
L 429.027751 299.76 
L 429.027751 299.582806 
L 426.442574 299.582806 
z
" style="opacity:0.2;"/>
   </g>
   <g id="patch_208">
    <path clip-path="url(#p6c2386af75)" d="M 429.674045 299.76 
L 432.259222 299.76 
L 432.259222 299.322611 
L 429.674045 299.322611 
z
" style="opacity:0.2;"/>
   </g>
   <g id="patch_209">
    <path clip-path="url(#p6c2386af75)" d="M 432.905517 299.76 
L 435.490694 299.76 
L 435.490694 299.697861 
L 432.905517 299.697861 
z
" style="opacity:0.2;"/>
   </g>
   <g id="patch_210">
    <path clip-path="url(#p6c2386af75)" d="M 436.136988 299.76 
L 438.722165 299.76 
L 438.722165 299.723243 
L 436.136988 299.723243 
z
" style="opacity:0.2;"/>
   </g>
   <g id="patch_211">
    <path clip-path="url(#p6c2386af75)" d="M 439.368459 299.76 
L 441.953636 299.76 
L 441.953636 294.49966 
L 439.368459 294.49966 
z
" style="opacity:0.2;"/>
   </g>
   <g id="matplotlib.axis_7">
    <g id="xtick_11">
     <g id="line2d_26">
      <g>
       <use style="stroke:#000000;stroke-width:0.8;" x="313.046164" xlink:href="#mf03ccb4172" y="300.76"/>
      </g>
     </g>
     <g id="text_31">
      <!-- −2 -->
      <g transform="translate(305.67507 315.358437)scale(0.1 -0.1)">
       <use xlink:href="#DejaVuSans-8722"/>
       <use x="83.789062" xlink:href="#DejaVuSans-50"/>
      </g>
     </g>
    </g>
    <g id="xtick_12">
     <g id="line2d_27">
      <g>
       <use style="stroke:#000000;stroke-width:0.8;" x="377.732059" xlink:href="#mf03ccb4172" y="300.76"/>
      </g>
     </g>
     <g id="text_32">
      <!-- 0 -->
      <g transform="translate(374.550809 315.358437)scale(0.1 -0.1)">
       <use xlink:href="#DejaVuSans-48"/>
      </g>
     </g>
    </g>
    <g id="xtick_13">
     <g id="line2d_28">
      <g>
       <use style="stroke:#000000;stroke-width:0.8;" x="442.417954" xlink:href="#mf03ccb4172" y="300.76"/>
      </g>
     </g>
     <g id="text_33">
      <!-- 2 -->
      <g transform="translate(439.236704 315.358437)scale(0.1 -0.1)">
       <use xlink:href="#DejaVuSans-50"/>
      </g>
     </g>
    </g>
    <g id="text_34">
     <!-- $\log_{10}\omega$ -->
     <defs>
      <path d="M 21.390625 -1.421875 
Q 1.125 -1.421875 6.78125 27.59375 
Q 8.984375 39.0625 19.625 54.6875 
L 29.296875 54.6875 
Q 19.234375 39.0625 17 27.34375 
Q 12.796875 6.203125 23.734375 6.203125 
Q 33.84375 6.203125 38.71875 32.46875 
L 47.015625 32.46875 
Q 41.703125 6.0625 51.8125 6.203125 
Q 62.703125 6.296875 66.796875 27.34375 
Q 69.046875 39.0625 65.140625 54.6875 
L 74.8125 54.6875 
Q 79.296875 39.0625 77.09375 27.59375 
Q 71.53125 -1.46875 51.21875 -1.421875 
Q 37.9375 -1.375 39.109375 13.1875 
Q 34.28125 -1.421875 21.390625 -1.421875 
z
" id="DejaVuSans-Oblique-969"/>
     </defs>
     <g transform="translate(345.04 329.038125)scale(0.1 -0.1)">
      <use transform="translate(0 0.015625)" xlink:href="#DejaVuSans-108"/>
      <use transform="translate(27.783203 0.015625)" xlink:href="#DejaVuSans-111"/>
      <use transform="translate(88.964844 0.015625)" xlink:href="#DejaVuSans-103"/>
      <use transform="translate(153.398438 -16.390625)scale(0.7)" xlink:href="#DejaVuSans-49"/>
      <use transform="translate(197.93457 -16.390625)scale(0.7)" xlink:href="#DejaVuSans-48"/>
      <use transform="translate(245.205078 0.015625)" xlink:href="#DejaVuSans-Oblique-969"/>
     </g>
    </g>
   </g>
   <g id="matplotlib.axis_8">
    <g id="ytick_16">
     <g id="line2d_29">
      <g>
       <use style="stroke:#000000;stroke-width:0.8;" x="271.98" xlink:href="#m343ffd6bb1" y="299.76"/>
      </g>
     </g>
     <g id="text_35">
      <!-- 0 -->
      <g transform="translate(258.6175 303.559219)scale(0.1 -0.1)">
       <use xlink:href="#DejaVuSans-48"/>
      </g>
     </g>
    </g>
    <g id="ytick_17">
     <g id="line2d_30">
      <g>
       <use style="stroke:#000000;stroke-width:0.8;" x="271.98" xlink:href="#m343ffd6bb1" y="278.094614"/>
      </g>
     </g>
     <g id="text_36">
      <!-- 200 -->
      <g transform="translate(245.8925 281.893833)scale(0.1 -0.1)">
       <use xlink:href="#DejaVuSans-50"/>
       <use x="63.623047" xlink:href="#DejaVuSans-48"/>
       <use x="127.246094" xlink:href="#DejaVuSans-48"/>
      </g>
     </g>
    </g>
    <g id="ytick_18">
     <g id="line2d_31">
      <g>
       <use style="stroke:#000000;stroke-width:0.8;" x="271.98" xlink:href="#m343ffd6bb1" y="256.429228"/>
      </g>
     </g>
     <g id="text_37">
      <!-- 400 -->
      <g transform="translate(245.8925 260.228447)scale(0.1 -0.1)">
       <use xlink:href="#DejaVuSans-52"/>
       <use x="63.623047" xlink:href="#DejaVuSans-48"/>
       <use x="127.246094" xlink:href="#DejaVuSans-48"/>
      </g>
     </g>
    </g>
    <g id="ytick_19">
     <g id="line2d_32">
      <g>
       <use style="stroke:#000000;stroke-width:0.8;" x="271.98" xlink:href="#m343ffd6bb1" y="234.763842"/>
      </g>
     </g>
     <g id="text_38">
      <!-- 600 -->
      <g transform="translate(245.8925 238.56306)scale(0.1 -0.1)">
       <use xlink:href="#DejaVuSans-54"/>
       <use x="63.623047" xlink:href="#DejaVuSans-48"/>
       <use x="127.246094" xlink:href="#DejaVuSans-48"/>
      </g>
     </g>
    </g>
    <g id="ytick_20">
     <g id="line2d_33">
      <g>
       <use style="stroke:#000000;stroke-width:0.8;" x="271.98" xlink:href="#m343ffd6bb1" y="213.098456"/>
      </g>
     </g>
     <g id="text_39">
      <!-- 800 -->
      <g transform="translate(245.8925 216.897674)scale(0.1 -0.1)">
       <use xlink:href="#DejaVuSans-56"/>
       <use x="63.623047" xlink:href="#DejaVuSans-48"/>
       <use x="127.246094" xlink:href="#DejaVuSans-48"/>
      </g>
     </g>
    </g>
   </g>
   <g id="patch_212">
    <path d="M 271.98 299.76 
L 271.98 195.614458 
" style="fill:none;stroke:#000000;stroke-linecap:square;stroke-linejoin:miter;stroke-width:0.8;"/>
   </g>
   <g id="patch_213">
    <path d="M 272.98 300.76 
L 450 300.76 
" style="fill:none;stroke:#000000;stroke-linecap:square;stroke-linejoin:miter;stroke-width:0.8;"/>
   </g>
  </g>
  <g id="text_40">
   <!-- Atr.cds.tsv -->
   <defs>
    <path d="M 41.109375 46.296875 
Q 39.59375 47.171875 37.8125 47.578125 
Q 36.03125 48 33.890625 48 
Q 26.265625 48 22.1875 43.046875 
Q 18.109375 38.09375 18.109375 28.8125 
L 18.109375 0 
L 9.078125 0 
L 9.078125 54.6875 
L 18.109375 54.6875 
L 18.109375 46.1875 
Q 20.953125 51.171875 25.484375 53.578125 
Q 30.03125 56 36.53125 56 
Q 37.453125 56 38.578125 55.875 
Q 39.703125 55.765625 41.0625 55.515625 
z
" id="DejaVuSans-114"/>
    <path d="M 10.6875 12.40625 
L 21 12.40625 
L 21 0 
L 10.6875 0 
z
" id="DejaVuSans-46"/>
    <path d="M 45.40625 46.390625 
L 45.40625 75.984375 
L 54.390625 75.984375 
L 54.390625 0 
L 45.40625 0 
L 45.40625 8.203125 
Q 42.578125 3.328125 38.25 0.953125 
Q 33.9375 -1.421875 27.875 -1.421875 
Q 17.96875 -1.421875 11.734375 6.484375 
Q 5.515625 14.40625 5.515625 27.296875 
Q 5.515625 40.1875 11.734375 48.09375 
Q 17.96875 56 27.875 56 
Q 33.9375 56 38.25 53.625 
Q 42.578125 51.265625 45.40625 46.390625 
z
M 14.796875 27.296875 
Q 14.796875 17.390625 18.875 11.75 
Q 22.953125 6.109375 30.078125 6.109375 
Q 37.203125 6.109375 41.296875 11.75 
Q 45.40625 17.390625 45.40625 27.296875 
Q 45.40625 37.203125 41.296875 42.84375 
Q 37.203125 48.484375 30.078125 48.484375 
Q 22.953125 48.484375 18.875 42.84375 
Q 14.796875 37.203125 14.796875 27.296875 
z
" id="DejaVuSans-100"/>
    <path d="M 2.984375 54.6875 
L 12.5 54.6875 
L 29.59375 8.796875 
L 46.6875 54.6875 
L 56.203125 54.6875 
L 35.6875 0 
L 23.484375 0 
z
" id="DejaVuSans-118"/>
   </defs>
   <g transform="translate(46.08 12.574125)scale(0.12 -0.12)">
    <use xlink:href="#DejaVuSans-65"/>
    <use x="66.658203" xlink:href="#DejaVuSans-116"/>
    <use x="105.867188" xlink:href="#DejaVuSans-114"/>
    <use x="137.855469" xlink:href="#DejaVuSans-46"/>
    <use x="169.642578" xlink:href="#DejaVuSans-99"/>
    <use x="224.623047" xlink:href="#DejaVuSans-100"/>
    <use x="288.099609" xlink:href="#DejaVuSans-115"/>
    <use x="340.199219" xlink:href="#DejaVuSans-46"/>
    <use x="371.986328" xlink:href="#DejaVuSans-116"/>
    <use x="411.195312" xlink:href="#DejaVuSans-115"/>
    <use x="463.294922" xlink:href="#DejaVuSans-118"/>
   </g>
  </g>
 </g>
 <defs>
  <clipPath id="p0d1f4eb0e7">
   <rect height="104.145542" width="177.02" x="58.17" y="51.84"/>
  </clipPath>
  <clipPath id="pf51939e35c">
   <rect height="104.145542" width="177.02" x="272.98" y="51.84"/>
  </clipPath>
  <clipPath id="pd0384711f5">
   <rect height="104.145542" width="177.02" x="58.17" y="195.614458"/>
  </clipPath>
  <clipPath id="p6c2386af75">
   <rect height="104.145542" width="177.02" x="272.98" y="195.614458"/>
  </clipPath>
 </defs>
</svg>
