<?xml version="1.0" encoding="utf-8" standalone="no"?>
<!DOCTYPE svg PUBLIC "-//W3C//DTD SVG 1.1//EN"
  "http://www.w3.org/Graphics/SVG/1.1/DTD/svg11.dtd">
<!-- Created with matplotlib (https://matplotlib.org/) -->
<svg height="345.6pt" version="1.1" viewBox="0 0 460.8 345.6" width="460.8pt" xmlns="http://www.w3.org/2000/svg" xmlns:xlink="http://www.w3.org/1999/xlink">
 <defs>
  <style type="text/css">
*{stroke-linecap:butt;stroke-linejoin:round;}
  </style>
 </defs>
 <g id="figure_1">
  <g id="patch_1">
   <path d="M 0 345.6 
L 460.8 345.6 
L 460.8 0 
L 0 0 
z
" style="fill:#ffffff;"/>
  </g>
  <g id="axes_1">
   <g id="patch_2">
    <path d="M 58.17 156.045995 
L 230.544092 156.045995 
L 230.544092 51.84 
L 58.17 51.84 
z
" style="fill:#ffffff;"/>
   </g>
   <g id="patch_3">
    <path clip-path="url(#p2335380d18)" d="M 66.005186 156.045995 
L 68.522515 156.045995 
L 68.522515 56.80219 
L 66.005186 56.80219 
z
" style="opacity:0.2;"/>
   </g>
   <g id="patch_4">
    <path clip-path="url(#p2335380d18)" d="M 69.151847 156.045995 
L 71.669176 156.045995 
L 71.669176 94.885359 
L 69.151847 94.885359 
z
" style="opacity:0.2;"/>
   </g>
   <g id="patch_5">
    <path clip-path="url(#p2335380d18)" d="M 72.298508 156.045995 
L 74.815837 156.045995 
L 74.815837 117.315075 
L 72.298508 117.315075 
z
" style="opacity:0.2;"/>
   </g>
   <g id="patch_6">
    <path clip-path="url(#p2335380d18)" d="M 75.445169 156.045995 
L 77.962498 156.045995 
L 77.962498 122.669549 
L 75.445169 122.669549 
z
" style="opacity:0.2;"/>
   </g>
   <g id="patch_7">
    <path clip-path="url(#p2335380d18)" d="M 78.59183 156.045995 
L 81.109159 156.045995 
L 81.109159 127.06336 
L 78.59183 127.06336 
z
" style="opacity:0.2;"/>
   </g>
   <g id="patch_8">
    <path clip-path="url(#p2335380d18)" d="M 81.738491 156.045995 
L 84.25582 156.045995 
L 84.25582 131.576898 
L 81.738491 131.576898 
z
" style="opacity:0.2;"/>
   </g>
   <g id="patch_9">
    <path clip-path="url(#p2335380d18)" d="M 84.885152 156.045995 
L 87.402481 156.045995 
L 87.402481 133.579629 
L 84.885152 133.579629 
z
" style="opacity:0.2;"/>
   </g>
   <g id="patch_10">
    <path clip-path="url(#p2335380d18)" d="M 88.031813 156.045995 
L 90.549142 156.045995 
L 90.549142 134.458518 
L 88.031813 134.458518 
z
" style="opacity:0.2;"/>
   </g>
   <g id="patch_11">
    <path clip-path="url(#p2335380d18)" d="M 91.178474 156.045995 
L 93.695803 156.045995 
L 93.695803 133.84995 
L 91.178474 133.84995 
z
" style="opacity:0.2;"/>
   </g>
   <g id="patch_12">
    <path clip-path="url(#p2335380d18)" d="M 94.325135 156.045995 
L 96.842464 156.045995 
L 96.842464 127.787055 
L 94.325135 127.787055 
z
" style="opacity:0.2;"/>
   </g>
   <g id="patch_13">
    <path clip-path="url(#p2335380d18)" d="M 97.471796 156.045995 
L 99.989125 156.045995 
L 99.989125 125.046281 
L 97.471796 125.046281 
z
" style="opacity:0.2;"/>
   </g>
   <g id="patch_14">
    <path clip-path="url(#p2335380d18)" d="M 100.618457 156.045995 
L 103.135786 156.045995 
L 103.135786 125.436719 
L 100.618457 125.436719 
z
" style="opacity:0.2;"/>
   </g>
   <g id="patch_15">
    <path clip-path="url(#p2335380d18)" d="M 103.765118 156.045995 
L 106.282447 156.045995 
L 106.282447 128.58779 
L 103.765118 128.58779 
z
" style="opacity:0.2;"/>
   </g>
   <g id="patch_16">
    <path clip-path="url(#p2335380d18)" d="M 106.911779 156.045995 
L 109.429108 156.045995 
L 109.429108 131.93191 
L 106.911779 131.93191 
z
" style="opacity:0.2;"/>
   </g>
   <g id="patch_17">
    <path clip-path="url(#p2335380d18)" d="M 110.058441 156.045995 
L 112.575769 156.045995 
L 112.575769 137.21104 
L 110.058441 137.21104 
z
" style="opacity:0.2;"/>
   </g>
   <g id="patch_18">
    <path clip-path="url(#p2335380d18)" d="M 113.205102 156.045995 
L 115.72243 156.045995 
L 115.72243 137.025032 
L 113.205102 137.025032 
z
" style="opacity:0.2;"/>
   </g>
   <g id="patch_19">
    <path clip-path="url(#p2335380d18)" d="M 116.351763 156.045995 
L 118.869091 156.045995 
L 118.869091 138.988124 
L 116.351763 138.988124 
z
" style="opacity:0.2;"/>
   </g>
   <g id="patch_20">
    <path clip-path="url(#p2335380d18)" d="M 119.498424 156.045995 
L 122.015752 156.045995 
L 122.015752 141.874634 
L 119.498424 141.874634 
z
" style="opacity:0.2;"/>
   </g>
   <g id="patch_21">
    <path clip-path="url(#p2335380d18)" d="M 122.645085 156.045995 
L 125.162413 156.045995 
L 125.162413 142.262644 
L 122.645085 142.262644 
z
" style="opacity:0.2;"/>
   </g>
   <g id="patch_22">
    <path clip-path="url(#p2335380d18)" d="M 125.791746 156.045995 
L 128.309075 156.045995 
L 128.309075 141.11092 
L 125.791746 141.11092 
z
" style="opacity:0.2;"/>
   </g>
   <g id="patch_23">
    <path clip-path="url(#p2335380d18)" d="M 128.938407 156.045995 
L 131.455736 156.045995 
L 131.455736 144.13511 
L 128.938407 144.13511 
z
" style="opacity:0.2;"/>
   </g>
   <g id="patch_24">
    <path clip-path="url(#p2335380d18)" d="M 132.085068 156.045995 
L 134.602397 156.045995 
L 134.602397 142.615333 
L 132.085068 142.615333 
z
" style="opacity:0.2;"/>
   </g>
   <g id="patch_25">
    <path clip-path="url(#p2335380d18)" d="M 135.231729 156.045995 
L 137.749058 156.045995 
L 137.749058 144.319866 
L 135.231729 144.319866 
z
" style="opacity:0.2;"/>
   </g>
   <g id="patch_26">
    <path clip-path="url(#p2335380d18)" d="M 138.37839 156.045995 
L 140.895719 156.045995 
L 140.895719 145.541779 
L 138.37839 145.541779 
z
" style="opacity:0.2;"/>
   </g>
   <g id="patch_27">
    <path clip-path="url(#p2335380d18)" d="M 141.525051 156.045995 
L 144.04238 156.045995 
L 144.04238 143.499092 
L 141.525051 143.499092 
z
" style="opacity:0.2;"/>
   </g>
   <g id="patch_28">
    <path clip-path="url(#p2335380d18)" d="M 144.671712 156.045995 
L 147.189041 156.045995 
L 147.189041 143.498279 
L 144.671712 143.498279 
z
" style="opacity:0.2;"/>
   </g>
   <g id="patch_29">
    <path clip-path="url(#p2335380d18)" d="M 147.818373 156.045995 
L 150.335702 156.045995 
L 150.335702 144.930189 
L 147.818373 144.930189 
z
" style="opacity:0.2;"/>
   </g>
   <g id="patch_30">
    <path clip-path="url(#p2335380d18)" d="M 150.965034 156.045995 
L 153.482363 156.045995 
L 153.482363 145.550103 
L 150.965034 145.550103 
z
" style="opacity:0.2;"/>
   </g>
   <g id="patch_31">
    <path clip-path="url(#p2335380d18)" d="M 154.111695 156.045995 
L 156.629024 156.045995 
L 156.629024 143.981671 
L 154.111695 143.981671 
z
" style="opacity:0.2;"/>
   </g>
   <g id="patch_32">
    <path clip-path="url(#p2335380d18)" d="M 157.258356 156.045995 
L 159.775685 156.045995 
L 159.775685 143.840445 
L 157.258356 143.840445 
z
" style="opacity:0.2;"/>
   </g>
   <g id="patch_33">
    <path clip-path="url(#p2335380d18)" d="M 160.405017 156.045995 
L 162.922346 156.045995 
L 162.922346 146.428968 
L 160.405017 146.428968 
z
" style="opacity:0.2;"/>
   </g>
   <g id="patch_34">
    <path clip-path="url(#p2335380d18)" d="M 163.551678 156.045995 
L 166.069007 156.045995 
L 166.069007 144.022832 
L 163.551678 144.022832 
z
" style="opacity:0.2;"/>
   </g>
   <g id="patch_35">
    <path clip-path="url(#p2335380d18)" d="M 166.698339 156.045995 
L 169.215668 156.045995 
L 169.215668 145.229198 
L 166.698339 145.229198 
z
" style="opacity:0.2;"/>
   </g>
   <g id="patch_36">
    <path clip-path="url(#p2335380d18)" d="M 169.845 156.045995 
L 172.362329 156.045995 
L 172.362329 146.682904 
L 169.845 146.682904 
z
" style="opacity:0.2;"/>
   </g>
   <g id="patch_37">
    <path clip-path="url(#p2335380d18)" d="M 172.991661 156.045995 
L 175.50899 156.045995 
L 175.50899 145.732891 
L 172.991661 145.732891 
z
" style="opacity:0.2;"/>
   </g>
   <g id="patch_38">
    <path clip-path="url(#p2335380d18)" d="M 176.138322 156.045995 
L 178.655651 156.045995 
L 178.655651 146.671761 
L 176.138322 146.671761 
z
" style="opacity:0.2;"/>
   </g>
   <g id="patch_39">
    <path clip-path="url(#p2335380d18)" d="M 179.284983 156.045995 
L 181.802312 156.045995 
L 181.802312 146.404205 
L 179.284983 146.404205 
z
" style="opacity:0.2;"/>
   </g>
   <g id="patch_40">
    <path clip-path="url(#p2335380d18)" d="M 182.431644 156.045995 
L 184.948973 156.045995 
L 184.948973 146.382753 
L 182.431644 146.382753 
z
" style="opacity:0.2;"/>
   </g>
   <g id="patch_41">
    <path clip-path="url(#p2335380d18)" d="M 185.578305 156.045995 
L 188.095634 156.045995 
L 188.095634 147.416108 
L 185.578305 147.416108 
z
" style="opacity:0.2;"/>
   </g>
   <g id="patch_42">
    <path clip-path="url(#p2335380d18)" d="M 188.724966 156.045995 
L 191.242295 156.045995 
L 191.242295 146.824451 
L 188.724966 146.824451 
z
" style="opacity:0.2;"/>
   </g>
   <g id="patch_43">
    <path clip-path="url(#p2335380d18)" d="M 191.871627 156.045995 
L 194.388956 156.045995 
L 194.388956 147.651107 
L 191.871627 147.651107 
z
" style="opacity:0.2;"/>
   </g>
   <g id="patch_44">
    <path clip-path="url(#p2335380d18)" d="M 195.018289 156.045995 
L 197.535617 156.045995 
L 197.535617 147.625709 
L 195.018289 147.625709 
z
" style="opacity:0.2;"/>
   </g>
   <g id="patch_45">
    <path clip-path="url(#p2335380d18)" d="M 198.16495 156.045995 
L 200.682278 156.045995 
L 200.682278 147.486473 
L 198.16495 147.486473 
z
" style="opacity:0.2;"/>
   </g>
   <g id="patch_46">
    <path clip-path="url(#p2335380d18)" d="M 201.311611 156.045995 
L 203.828939 156.045995 
L 203.828939 147.375399 
L 201.311611 147.375399 
z
" style="opacity:0.2;"/>
   </g>
   <g id="patch_47">
    <path clip-path="url(#p2335380d18)" d="M 204.458272 156.045995 
L 206.9756 156.045995 
L 206.9756 148.886985 
L 204.458272 148.886985 
z
" style="opacity:0.2;"/>
   </g>
   <g id="patch_48">
    <path clip-path="url(#p2335380d18)" d="M 207.604933 156.045995 
L 210.122261 156.045995 
L 210.122261 147.059579 
L 207.604933 147.059579 
z
" style="opacity:0.2;"/>
   </g>
   <g id="patch_49">
    <path clip-path="url(#p2335380d18)" d="M 210.751594 156.045995 
L 213.268923 156.045995 
L 213.268923 148.576572 
L 210.751594 148.576572 
z
" style="opacity:0.2;"/>
   </g>
   <g id="patch_50">
    <path clip-path="url(#p2335380d18)" d="M 213.898255 156.045995 
L 216.415584 156.045995 
L 216.415584 147.706624 
L 213.898255 147.706624 
z
" style="opacity:0.2;"/>
   </g>
   <g id="patch_51">
    <path clip-path="url(#p2335380d18)" d="M 217.044916 156.045995 
L 219.562245 156.045995 
L 219.562245 148.624824 
L 217.044916 148.624824 
z
" style="opacity:0.2;"/>
   </g>
   <g id="patch_52">
    <path clip-path="url(#p2335380d18)" d="M 220.191577 156.045995 
L 222.708906 156.045995 
L 222.708906 148.117417 
L 220.191577 148.117417 
z
" style="opacity:0.2;"/>
   </g>
   <g id="matplotlib.axis_1">
    <g id="xtick_1">
     <g id="line2d_1">
      <defs>
       <path d="M 0 0 
L 0 3.5 
" id="mf22cb3467a" style="stroke:#000000;stroke-width:0.8;"/>
      </defs>
      <g>
       <use style="stroke:#000000;stroke-width:0.8;" x="65.684226" xlink:href="#mf22cb3467a" y="157.045995"/>
      </g>
     </g>
     <g id="text_1">
      <!-- 0 -->
      <defs>
       <path d="M 31.78125 66.40625 
Q 24.171875 66.40625 20.328125 58.90625 
Q 16.5 51.421875 16.5 36.375 
Q 16.5 21.390625 20.328125 13.890625 
Q 24.171875 6.390625 31.78125 6.390625 
Q 39.453125 6.390625 43.28125 13.890625 
Q 47.125 21.390625 47.125 36.375 
Q 47.125 51.421875 43.28125 58.90625 
Q 39.453125 66.40625 31.78125 66.40625 
z
M 31.78125 74.21875 
Q 44.046875 74.21875 50.515625 64.515625 
Q 56.984375 54.828125 56.984375 36.375 
Q 56.984375 17.96875 50.515625 8.265625 
Q 44.046875 -1.421875 31.78125 -1.421875 
Q 19.53125 -1.421875 13.0625 8.265625 
Q 6.59375 17.96875 6.59375 36.375 
Q 6.59375 54.828125 13.0625 64.515625 
Q 19.53125 74.21875 31.78125 74.21875 
z
" id="DejaVuSans-48"/>
      </defs>
      <g transform="translate(62.502976 171.644432)scale(0.1 -0.1)">
       <use xlink:href="#DejaVuSans-48"/>
      </g>
     </g>
    </g>
    <g id="xtick_2">
     <g id="line2d_2">
      <g>
       <use style="stroke:#000000;stroke-width:0.8;" x="128.621223" xlink:href="#mf22cb3467a" y="157.045995"/>
      </g>
     </g>
     <g id="text_2">
      <!-- 2 -->
      <defs>
       <path d="M 19.1875 8.296875 
L 53.609375 8.296875 
L 53.609375 0 
L 7.328125 0 
L 7.328125 8.296875 
Q 12.9375 14.109375 22.625 23.890625 
Q 32.328125 33.6875 34.8125 36.53125 
Q 39.546875 41.84375 41.421875 45.53125 
Q 43.3125 49.21875 43.3125 52.78125 
Q 43.3125 58.59375 39.234375 62.25 
Q 35.15625 65.921875 28.609375 65.921875 
Q 23.96875 65.921875 18.8125 64.3125 
Q 13.671875 62.703125 7.8125 59.421875 
L 7.8125 69.390625 
Q 13.765625 71.78125 18.9375 73 
Q 24.125 74.21875 28.421875 74.21875 
Q 39.75 74.21875 46.484375 68.546875 
Q 53.21875 62.890625 53.21875 53.421875 
Q 53.21875 48.921875 51.53125 44.890625 
Q 49.859375 40.875 45.40625 35.40625 
Q 44.1875 33.984375 37.640625 27.21875 
Q 31.109375 20.453125 19.1875 8.296875 
z
" id="DejaVuSans-50"/>
      </defs>
      <g transform="translate(125.439973 171.644432)scale(0.1 -0.1)">
       <use xlink:href="#DejaVuSans-50"/>
      </g>
     </g>
    </g>
    <g id="xtick_3">
     <g id="line2d_3">
      <g>
       <use style="stroke:#000000;stroke-width:0.8;" x="191.55822" xlink:href="#mf22cb3467a" y="157.045995"/>
      </g>
     </g>
     <g id="text_3">
      <!-- 4 -->
      <defs>
       <path d="M 37.796875 64.3125 
L 12.890625 25.390625 
L 37.796875 25.390625 
z
M 35.203125 72.90625 
L 47.609375 72.90625 
L 47.609375 25.390625 
L 58.015625 25.390625 
L 58.015625 17.1875 
L 47.609375 17.1875 
L 47.609375 0 
L 37.796875 0 
L 37.796875 17.1875 
L 4.890625 17.1875 
L 4.890625 26.703125 
z
" id="DejaVuSans-52"/>
      </defs>
      <g transform="translate(188.37697 171.644432)scale(0.1 -0.1)">
       <use xlink:href="#DejaVuSans-52"/>
      </g>
     </g>
    </g>
    <g id="text_4">
     <!-- $K_\mathrm{S}$ -->
     <defs>
      <path d="M 16.890625 72.90625 
L 26.8125 72.90625 
L 20.796875 42.1875 
L 59.078125 72.90625 
L 72.21875 72.90625 
L 28.90625 38.09375 
L 60.59375 0 
L 48.578125 0 
L 19.484375 35.5 
L 12.59375 0 
L 2.6875 0 
z
" id="DejaVuSans-Oblique-75"/>
      <path d="M 53.515625 70.515625 
L 53.515625 60.890625 
Q 47.90625 63.578125 42.921875 64.890625 
Q 37.9375 66.21875 33.296875 66.21875 
Q 25.25 66.21875 20.875 63.09375 
Q 16.5 59.96875 16.5 54.203125 
Q 16.5 49.359375 19.40625 46.890625 
Q 22.3125 44.4375 30.421875 42.921875 
L 36.375 41.703125 
Q 47.40625 39.59375 52.65625 34.296875 
Q 57.90625 29 57.90625 20.125 
Q 57.90625 9.515625 50.796875 4.046875 
Q 43.703125 -1.421875 29.984375 -1.421875 
Q 24.8125 -1.421875 18.96875 -0.25 
Q 13.140625 0.921875 6.890625 3.21875 
L 6.890625 13.375 
Q 12.890625 10.015625 18.65625 8.296875 
Q 24.421875 6.59375 29.984375 6.59375 
Q 38.421875 6.59375 43.015625 9.90625 
Q 47.609375 13.234375 47.609375 19.390625 
Q 47.609375 24.75 44.3125 27.78125 
Q 41.015625 30.8125 33.5 32.328125 
L 27.484375 33.5 
Q 16.453125 35.6875 11.515625 40.375 
Q 6.59375 45.0625 6.59375 53.421875 
Q 6.59375 63.09375 13.40625 68.65625 
Q 20.21875 74.21875 32.171875 74.21875 
Q 37.3125 74.21875 42.625 73.28125 
Q 47.953125 72.359375 53.515625 70.515625 
z
" id="DejaVuSans-83"/>
     </defs>
     <g transform="translate(138.707046 185.322557)scale(0.1 -0.1)">
      <use transform="translate(0 0.09375)" xlink:href="#DejaVuSans-Oblique-75"/>
      <use transform="translate(65.576172 -16.3125)scale(0.7)" xlink:href="#DejaVuSans-83"/>
     </g>
    </g>
   </g>
   <g id="matplotlib.axis_2">
    <g id="ytick_1">
     <g id="line2d_4">
      <defs>
       <path d="M 0 0 
L -3.5 0 
" id="m66e5e39086" style="stroke:#000000;stroke-width:0.8;"/>
      </defs>
      <g>
       <use style="stroke:#000000;stroke-width:0.8;" x="57.17" xlink:href="#m66e5e39086" y="156.045995"/>
      </g>
     </g>
     <g id="text_5">
      <!-- 0 -->
      <g transform="translate(43.8075 159.845213)scale(0.1 -0.1)">
       <use xlink:href="#DejaVuSans-48"/>
      </g>
     </g>
    </g>
    <g id="ytick_2">
     <g id="line2d_5">
      <g>
       <use style="stroke:#000000;stroke-width:0.8;" x="57.17" xlink:href="#m66e5e39086" y="117.83794"/>
      </g>
     </g>
     <g id="text_6">
      <!-- 500 -->
      <defs>
       <path d="M 10.796875 72.90625 
L 49.515625 72.90625 
L 49.515625 64.59375 
L 19.828125 64.59375 
L 19.828125 46.734375 
Q 21.96875 47.46875 24.109375 47.828125 
Q 26.265625 48.1875 28.421875 48.1875 
Q 40.625 48.1875 47.75 41.5 
Q 54.890625 34.8125 54.890625 23.390625 
Q 54.890625 11.625 47.5625 5.09375 
Q 40.234375 -1.421875 26.90625 -1.421875 
Q 22.3125 -1.421875 17.546875 -0.640625 
Q 12.796875 0.140625 7.71875 1.703125 
L 7.71875 11.625 
Q 12.109375 9.234375 16.796875 8.0625 
Q 21.484375 6.890625 26.703125 6.890625 
Q 35.15625 6.890625 40.078125 11.328125 
Q 45.015625 15.765625 45.015625 23.390625 
Q 45.015625 31 40.078125 35.4375 
Q 35.15625 39.890625 26.703125 39.890625 
Q 22.75 39.890625 18.8125 39.015625 
Q 14.890625 38.140625 10.796875 36.28125 
z
" id="DejaVuSans-53"/>
      </defs>
      <g transform="translate(31.0825 121.637159)scale(0.1 -0.1)">
       <use xlink:href="#DejaVuSans-53"/>
       <use x="63.623047" xlink:href="#DejaVuSans-48"/>
       <use x="127.246094" xlink:href="#DejaVuSans-48"/>
      </g>
     </g>
    </g>
    <g id="ytick_3">
     <g id="line2d_6">
      <g>
       <use style="stroke:#000000;stroke-width:0.8;" x="57.17" xlink:href="#m66e5e39086" y="79.629885"/>
      </g>
     </g>
     <g id="text_7">
      <!-- 1000 -->
      <defs>
       <path d="M 12.40625 8.296875 
L 28.515625 8.296875 
L 28.515625 63.921875 
L 10.984375 60.40625 
L 10.984375 69.390625 
L 28.421875 72.90625 
L 38.28125 72.90625 
L 38.28125 8.296875 
L 54.390625 8.296875 
L 54.390625 0 
L 12.40625 0 
z
" id="DejaVuSans-49"/>
      </defs>
      <g transform="translate(24.72 83.429104)scale(0.1 -0.1)">
       <use xlink:href="#DejaVuSans-49"/>
       <use x="63.623047" xlink:href="#DejaVuSans-48"/>
       <use x="127.246094" xlink:href="#DejaVuSans-48"/>
       <use x="190.869141" xlink:href="#DejaVuSans-48"/>
      </g>
     </g>
    </g>
    <g id="text_8">
     <!-- Duplications -->
     <defs>
      <path d="M 19.671875 64.796875 
L 19.671875 8.109375 
L 31.59375 8.109375 
Q 46.6875 8.109375 53.6875 14.9375 
Q 60.6875 21.78125 60.6875 36.53125 
Q 60.6875 51.171875 53.6875 57.984375 
Q 46.6875 64.796875 31.59375 64.796875 
z
M 9.8125 72.90625 
L 30.078125 72.90625 
Q 51.265625 72.90625 61.171875 64.09375 
Q 71.09375 55.28125 71.09375 36.53125 
Q 71.09375 17.671875 61.125 8.828125 
Q 51.171875 0 30.078125 0 
L 9.8125 0 
z
" id="DejaVuSans-68"/>
      <path d="M 8.5 21.578125 
L 8.5 54.6875 
L 17.484375 54.6875 
L 17.484375 21.921875 
Q 17.484375 14.15625 20.5 10.265625 
Q 23.53125 6.390625 29.59375 6.390625 
Q 36.859375 6.390625 41.078125 11.03125 
Q 45.3125 15.671875 45.3125 23.6875 
L 45.3125 54.6875 
L 54.296875 54.6875 
L 54.296875 0 
L 45.3125 0 
L 45.3125 8.40625 
Q 42.046875 3.421875 37.71875 1 
Q 33.40625 -1.421875 27.6875 -1.421875 
Q 18.265625 -1.421875 13.375 4.4375 
Q 8.5 10.296875 8.5 21.578125 
z
M 31.109375 56 
z
" id="DejaVuSans-117"/>
      <path d="M 18.109375 8.203125 
L 18.109375 -20.796875 
L 9.078125 -20.796875 
L 9.078125 54.6875 
L 18.109375 54.6875 
L 18.109375 46.390625 
Q 20.953125 51.265625 25.265625 53.625 
Q 29.59375 56 35.59375 56 
Q 45.5625 56 51.78125 48.09375 
Q 58.015625 40.1875 58.015625 27.296875 
Q 58.015625 14.40625 51.78125 6.484375 
Q 45.5625 -1.421875 35.59375 -1.421875 
Q 29.59375 -1.421875 25.265625 0.953125 
Q 20.953125 3.328125 18.109375 8.203125 
z
M 48.6875 27.296875 
Q 48.6875 37.203125 44.609375 42.84375 
Q 40.53125 48.484375 33.40625 48.484375 
Q 26.265625 48.484375 22.1875 42.84375 
Q 18.109375 37.203125 18.109375 27.296875 
Q 18.109375 17.390625 22.1875 11.75 
Q 26.265625 6.109375 33.40625 6.109375 
Q 40.53125 6.109375 44.609375 11.75 
Q 48.6875 17.390625 48.6875 27.296875 
z
" id="DejaVuSans-112"/>
      <path d="M 9.421875 75.984375 
L 18.40625 75.984375 
L 18.40625 0 
L 9.421875 0 
z
" id="DejaVuSans-108"/>
      <path d="M 9.421875 54.6875 
L 18.40625 54.6875 
L 18.40625 0 
L 9.421875 0 
z
M 9.421875 75.984375 
L 18.40625 75.984375 
L 18.40625 64.59375 
L 9.421875 64.59375 
z
" id="DejaVuSans-105"/>
      <path d="M 48.78125 52.59375 
L 48.78125 44.1875 
Q 44.96875 46.296875 41.140625 47.34375 
Q 37.3125 48.390625 33.40625 48.390625 
Q 24.65625 48.390625 19.8125 42.84375 
Q 14.984375 37.3125 14.984375 27.296875 
Q 14.984375 17.28125 19.8125 11.734375 
Q 24.65625 6.203125 33.40625 6.203125 
Q 37.3125 6.203125 41.140625 7.25 
Q 44.96875 8.296875 48.78125 10.40625 
L 48.78125 2.09375 
Q 45.015625 0.34375 40.984375 -0.53125 
Q 36.96875 -1.421875 32.421875 -1.421875 
Q 20.0625 -1.421875 12.78125 6.34375 
Q 5.515625 14.109375 5.515625 27.296875 
Q 5.515625 40.671875 12.859375 48.328125 
Q 20.21875 56 33.015625 56 
Q 37.15625 56 41.109375 55.140625 
Q 45.0625 54.296875 48.78125 52.59375 
z
" id="DejaVuSans-99"/>
      <path d="M 34.28125 27.484375 
Q 23.390625 27.484375 19.1875 25 
Q 14.984375 22.515625 14.984375 16.5 
Q 14.984375 11.71875 18.140625 8.90625 
Q 21.296875 6.109375 26.703125 6.109375 
Q 34.1875 6.109375 38.703125 11.40625 
Q 43.21875 16.703125 43.21875 25.484375 
L 43.21875 27.484375 
z
M 52.203125 31.203125 
L 52.203125 0 
L 43.21875 0 
L 43.21875 8.296875 
Q 40.140625 3.328125 35.546875 0.953125 
Q 30.953125 -1.421875 24.3125 -1.421875 
Q 15.921875 -1.421875 10.953125 3.296875 
Q 6 8.015625 6 15.921875 
Q 6 25.140625 12.171875 29.828125 
Q 18.359375 34.515625 30.609375 34.515625 
L 43.21875 34.515625 
L 43.21875 35.40625 
Q 43.21875 41.609375 39.140625 45 
Q 35.0625 48.390625 27.6875 48.390625 
Q 23 48.390625 18.546875 47.265625 
Q 14.109375 46.140625 10.015625 43.890625 
L 10.015625 52.203125 
Q 14.9375 54.109375 19.578125 55.046875 
Q 24.21875 56 28.609375 56 
Q 40.484375 56 46.34375 49.84375 
Q 52.203125 43.703125 52.203125 31.203125 
z
" id="DejaVuSans-97"/>
      <path d="M 18.3125 70.21875 
L 18.3125 54.6875 
L 36.8125 54.6875 
L 36.8125 47.703125 
L 18.3125 47.703125 
L 18.3125 18.015625 
Q 18.3125 11.328125 20.140625 9.421875 
Q 21.96875 7.515625 27.59375 7.515625 
L 36.8125 7.515625 
L 36.8125 0 
L 27.59375 0 
Q 17.1875 0 13.234375 3.875 
Q 9.28125 7.765625 9.28125 18.015625 
L 9.28125 47.703125 
L 2.6875 47.703125 
L 2.6875 54.6875 
L 9.28125 54.6875 
L 9.28125 70.21875 
z
" id="DejaVuSans-116"/>
      <path d="M 30.609375 48.390625 
Q 23.390625 48.390625 19.1875 42.75 
Q 14.984375 37.109375 14.984375 27.296875 
Q 14.984375 17.484375 19.15625 11.84375 
Q 23.34375 6.203125 30.609375 6.203125 
Q 37.796875 6.203125 41.984375 11.859375 
Q 46.1875 17.53125 46.1875 27.296875 
Q 46.1875 37.015625 41.984375 42.703125 
Q 37.796875 48.390625 30.609375 48.390625 
z
M 30.609375 56 
Q 42.328125 56 49.015625 48.375 
Q 55.71875 40.765625 55.71875 27.296875 
Q 55.71875 13.875 49.015625 6.21875 
Q 42.328125 -1.421875 30.609375 -1.421875 
Q 18.84375 -1.421875 12.171875 6.21875 
Q 5.515625 13.875 5.515625 27.296875 
Q 5.515625 40.765625 12.171875 48.375 
Q 18.84375 56 30.609375 56 
z
" id="DejaVuSans-111"/>
      <path d="M 54.890625 33.015625 
L 54.890625 0 
L 45.90625 0 
L 45.90625 32.71875 
Q 45.90625 40.484375 42.875 44.328125 
Q 39.84375 48.1875 33.796875 48.1875 
Q 26.515625 48.1875 22.3125 43.546875 
Q 18.109375 38.921875 18.109375 30.90625 
L 18.109375 0 
L 9.078125 0 
L 9.078125 54.6875 
L 18.109375 54.6875 
L 18.109375 46.1875 
Q 21.34375 51.125 25.703125 53.5625 
Q 30.078125 56 35.796875 56 
Q 45.21875 56 50.046875 50.171875 
Q 54.890625 44.34375 54.890625 33.015625 
z
" id="DejaVuSans-110"/>
      <path d="M 44.28125 53.078125 
L 44.28125 44.578125 
Q 40.484375 46.53125 36.375 47.5 
Q 32.28125 48.484375 27.875 48.484375 
Q 21.1875 48.484375 17.84375 46.4375 
Q 14.5 44.390625 14.5 40.28125 
Q 14.5 37.15625 16.890625 35.375 
Q 19.28125 33.59375 26.515625 31.984375 
L 29.59375 31.296875 
Q 39.15625 29.25 43.1875 25.515625 
Q 47.21875 21.78125 47.21875 15.09375 
Q 47.21875 7.46875 41.1875 3.015625 
Q 35.15625 -1.421875 24.609375 -1.421875 
Q 20.21875 -1.421875 15.453125 -0.5625 
Q 10.6875 0.296875 5.421875 2 
L 5.421875 11.28125 
Q 10.40625 8.6875 15.234375 7.390625 
Q 20.0625 6.109375 24.8125 6.109375 
Q 31.15625 6.109375 34.5625 8.28125 
Q 37.984375 10.453125 37.984375 14.40625 
Q 37.984375 18.0625 35.515625 20.015625 
Q 33.0625 21.96875 24.703125 23.78125 
L 21.578125 24.515625 
Q 13.234375 26.265625 9.515625 29.90625 
Q 5.8125 33.546875 5.8125 39.890625 
Q 5.8125 47.609375 11.28125 51.796875 
Q 16.75 56 26.8125 56 
Q 31.78125 56 36.171875 55.265625 
Q 40.578125 54.546875 44.28125 53.078125 
z
" id="DejaVuSans-115"/>
     </defs>
     <g transform="translate(18.640313 134.909404)rotate(-90)scale(0.1 -0.1)">
      <use xlink:href="#DejaVuSans-68"/>
      <use x="77.001953" xlink:href="#DejaVuSans-117"/>
      <use x="140.380859" xlink:href="#DejaVuSans-112"/>
      <use x="203.857422" xlink:href="#DejaVuSans-108"/>
      <use x="231.640625" xlink:href="#DejaVuSans-105"/>
      <use x="259.423828" xlink:href="#DejaVuSans-99"/>
      <use x="314.404297" xlink:href="#DejaVuSans-97"/>
      <use x="375.683594" xlink:href="#DejaVuSans-116"/>
      <use x="414.892578" xlink:href="#DejaVuSans-105"/>
      <use x="442.675781" xlink:href="#DejaVuSans-111"/>
      <use x="503.857422" xlink:href="#DejaVuSans-110"/>
      <use x="567.236328" xlink:href="#DejaVuSans-115"/>
     </g>
    </g>
   </g>
   <g id="patch_53">
    <path d="M 57.17 156.045995 
L 57.17 51.84 
" style="fill:none;stroke:#000000;stroke-linecap:square;stroke-linejoin:miter;stroke-width:0.8;"/>
   </g>
   <g id="patch_54">
    <path d="M 58.17 157.045995 
L 230.544092 157.045995 
" style="fill:none;stroke:#000000;stroke-linecap:square;stroke-linejoin:miter;stroke-width:0.8;"/>
   </g>
  </g>
  <g id="axes_2">
   <g id="patch_55">
    <path d="M 277.625908 156.045995 
L 450 156.045995 
L 450 51.84 
L 277.625908 51.84 
z
" style="fill:#ffffff;"/>
   </g>
   <g id="patch_56">
    <path clip-path="url(#pff878c6dbe)" d="M 285.461094 156.045995 
L 287.978423 156.045995 
L 287.978423 154.045317 
L 285.461094 154.045317 
z
" style="opacity:0.2;"/>
   </g>
   <g id="patch_57">
    <path clip-path="url(#pff878c6dbe)" d="M 288.607755 156.045995 
L 291.125084 156.045995 
L 291.125084 156.045995 
L 288.607755 156.045995 
z
" style="opacity:0.2;"/>
   </g>
   <g id="patch_58">
    <path clip-path="url(#pff878c6dbe)" d="M 291.754416 156.045995 
L 294.271745 156.045995 
L 294.271745 154.572963 
L 291.754416 154.572963 
z
" style="opacity:0.2;"/>
   </g>
   <g id="patch_59">
    <path clip-path="url(#pff878c6dbe)" d="M 294.901077 156.045995 
L 297.418406 156.045995 
L 297.418406 155.547799 
L 294.901077 155.547799 
z
" style="opacity:0.2;"/>
   </g>
   <g id="patch_60">
    <path clip-path="url(#pff878c6dbe)" d="M 298.047739 156.045995 
L 300.565067 156.045995 
L 300.565067 155.403068 
L 298.047739 155.403068 
z
" style="opacity:0.2;"/>
   </g>
   <g id="patch_61">
    <path clip-path="url(#pff878c6dbe)" d="M 301.1944 156.045995 
L 303.711728 156.045995 
L 303.711728 155.559613 
L 301.1944 155.559613 
z
" style="opacity:0.2;"/>
   </g>
   <g id="patch_62">
    <path clip-path="url(#pff878c6dbe)" d="M 304.341061 156.045995 
L 306.858389 156.045995 
L 306.858389 156.009272 
L 304.341061 156.009272 
z
" style="opacity:0.2;"/>
   </g>
   <g id="patch_63">
    <path clip-path="url(#pff878c6dbe)" d="M 307.487722 156.045995 
L 310.00505 156.045995 
L 310.00505 155.914094 
L 307.487722 155.914094 
z
" style="opacity:0.2;"/>
   </g>
   <g id="patch_64">
    <path clip-path="url(#pff878c6dbe)" d="M 310.634383 156.045995 
L 313.151711 156.045995 
L 313.151711 155.991006 
L 310.634383 155.991006 
z
" style="opacity:0.2;"/>
   </g>
   <g id="patch_65">
    <path clip-path="url(#pff878c6dbe)" d="M 313.781044 156.045995 
L 316.298373 156.045995 
L 316.298373 155.859143 
L 313.781044 155.859143 
z
" style="opacity:0.2;"/>
   </g>
   <g id="patch_66">
    <path clip-path="url(#pff878c6dbe)" d="M 316.927705 156.045995 
L 319.445034 156.045995 
L 319.445034 156.038715 
L 316.927705 156.038715 
z
" style="opacity:0.2;"/>
   </g>
   <g id="patch_67">
    <path clip-path="url(#pff878c6dbe)" d="M 320.074366 156.045995 
L 322.591695 156.045995 
L 322.591695 156.045995 
L 320.074366 156.045995 
z
" style="opacity:0.2;"/>
   </g>
   <g id="patch_68">
    <path clip-path="url(#pff878c6dbe)" d="M 323.221027 156.045995 
L 325.738356 156.045995 
L 325.738356 156.029008 
L 323.221027 156.029008 
z
" style="opacity:0.2;"/>
   </g>
   <g id="patch_69">
    <path clip-path="url(#pff878c6dbe)" d="M 326.367688 156.045995 
L 328.885017 156.045995 
L 328.885017 155.927758 
L 326.367688 155.927758 
z
" style="opacity:0.2;"/>
   </g>
   <g id="patch_70">
    <path clip-path="url(#pff878c6dbe)" d="M 329.514349 156.045995 
L 332.031678 156.045995 
L 332.031678 155.638318 
L 329.514349 155.638318 
z
" style="opacity:0.2;"/>
   </g>
   <g id="patch_71">
    <path clip-path="url(#pff878c6dbe)" d="M 332.66101 156.045995 
L 335.178339 156.045995 
L 335.178339 155.827753 
L 332.66101 155.827753 
z
" style="opacity:0.2;"/>
   </g>
   <g id="patch_72">
    <path clip-path="url(#pff878c6dbe)" d="M 335.807671 156.045995 
L 338.325 156.045995 
L 338.325 155.111599 
L 335.807671 155.111599 
z
" style="opacity:0.2;"/>
   </g>
   <g id="patch_73">
    <path clip-path="url(#pff878c6dbe)" d="M 338.954332 156.045995 
L 341.471661 156.045995 
L 341.471661 155.10041 
L 338.954332 155.10041 
z
" style="opacity:0.2;"/>
   </g>
   <g id="patch_74">
    <path clip-path="url(#pff878c6dbe)" d="M 342.100993 156.045995 
L 344.618322 156.045995 
L 344.618322 153.648647 
L 342.100993 153.648647 
z
" style="opacity:0.2;"/>
   </g>
   <g id="patch_75">
    <path clip-path="url(#pff878c6dbe)" d="M 345.247654 156.045995 
L 347.764983 156.045995 
L 347.764983 152.262112 
L 345.247654 152.262112 
z
" style="opacity:0.2;"/>
   </g>
   <g id="patch_76">
    <path clip-path="url(#pff878c6dbe)" d="M 348.394315 156.045995 
L 350.911644 156.045995 
L 350.911644 151.60131 
L 348.394315 151.60131 
z
" style="opacity:0.2;"/>
   </g>
   <g id="patch_77">
    <path clip-path="url(#pff878c6dbe)" d="M 351.540976 156.045995 
L 354.058305 156.045995 
L 354.058305 149.541562 
L 351.540976 149.541562 
z
" style="opacity:0.2;"/>
   </g>
   <g id="patch_78">
    <path clip-path="url(#pff878c6dbe)" d="M 354.687637 156.045995 
L 357.204966 156.045995 
L 357.204966 148.702673 
L 354.687637 148.702673 
z
" style="opacity:0.2;"/>
   </g>
   <g id="patch_79">
    <path clip-path="url(#pff878c6dbe)" d="M 357.834298 156.045995 
L 360.351627 156.045995 
L 360.351627 148.446034 
L 357.834298 148.446034 
z
" style="opacity:0.2;"/>
   </g>
   <g id="patch_80">
    <path clip-path="url(#pff878c6dbe)" d="M 360.980959 156.045995 
L 363.498288 156.045995 
L 363.498288 146.082577 
L 360.980959 146.082577 
z
" style="opacity:0.2;"/>
   </g>
   <g id="patch_81">
    <path clip-path="url(#pff878c6dbe)" d="M 364.12762 156.045995 
L 366.644949 156.045995 
L 366.644949 143.891778 
L 364.12762 143.891778 
z
" style="opacity:0.2;"/>
   </g>
   <g id="patch_82">
    <path clip-path="url(#pff878c6dbe)" d="M 367.274281 156.045995 
L 369.79161 156.045995 
L 369.79161 143.933315 
L 367.274281 143.933315 
z
" style="opacity:0.2;"/>
   </g>
   <g id="patch_83">
    <path clip-path="url(#pff878c6dbe)" d="M 370.420942 156.045995 
L 372.938271 156.045995 
L 372.938271 141.558638 
L 370.420942 141.558638 
z
" style="opacity:0.2;"/>
   </g>
   <g id="patch_84">
    <path clip-path="url(#pff878c6dbe)" d="M 373.567603 156.045995 
L 376.084932 156.045995 
L 376.084932 142.04466 
L 373.567603 142.04466 
z
" style="opacity:0.2;"/>
   </g>
   <g id="patch_85">
    <path clip-path="url(#pff878c6dbe)" d="M 376.714264 156.045995 
L 379.231593 156.045995 
L 379.231593 139.172782 
L 376.714264 139.172782 
z
" style="opacity:0.2;"/>
   </g>
   <g id="patch_86">
    <path clip-path="url(#pff878c6dbe)" d="M 379.860925 156.045995 
L 382.378254 156.045995 
L 382.378254 137.470088 
L 379.860925 137.470088 
z
" style="opacity:0.2;"/>
   </g>
   <g id="patch_87">
    <path clip-path="url(#pff878c6dbe)" d="M 383.007587 156.045995 
L 385.524915 156.045995 
L 385.524915 132.729282 
L 383.007587 132.729282 
z
" style="opacity:0.2;"/>
   </g>
   <g id="patch_88">
    <path clip-path="url(#pff878c6dbe)" d="M 386.154248 156.045995 
L 388.671576 156.045995 
L 388.671576 131.301365 
L 386.154248 131.301365 
z
" style="opacity:0.2;"/>
   </g>
   <g id="patch_89">
    <path clip-path="url(#pff878c6dbe)" d="M 389.300909 156.045995 
L 391.818237 156.045995 
L 391.818237 131.635441 
L 389.300909 131.635441 
z
" style="opacity:0.2;"/>
   </g>
   <g id="patch_90">
    <path clip-path="url(#pff878c6dbe)" d="M 392.44757 156.045995 
L 394.964898 156.045995 
L 394.964898 129.173457 
L 392.44757 129.173457 
z
" style="opacity:0.2;"/>
   </g>
   <g id="patch_91">
    <path clip-path="url(#pff878c6dbe)" d="M 395.594231 156.045995 
L 398.111559 156.045995 
L 398.111559 130.567744 
L 395.594231 130.567744 
z
" style="opacity:0.2;"/>
   </g>
   <g id="patch_92">
    <path clip-path="url(#pff878c6dbe)" d="M 398.740892 156.045995 
L 401.258221 156.045995 
L 401.258221 125.789633 
L 398.740892 125.789633 
z
" style="opacity:0.2;"/>
   </g>
   <g id="patch_93">
    <path clip-path="url(#pff878c6dbe)" d="M 401.887553 156.045995 
L 404.404882 156.045995 
L 404.404882 124.291588 
L 401.887553 124.291588 
z
" style="opacity:0.2;"/>
   </g>
   <g id="patch_94">
    <path clip-path="url(#pff878c6dbe)" d="M 405.034214 156.045995 
L 407.551543 156.045995 
L 407.551543 119.448631 
L 405.034214 119.448631 
z
" style="opacity:0.2;"/>
   </g>
   <g id="patch_95">
    <path clip-path="url(#pff878c6dbe)" d="M 408.180875 156.045995 
L 410.698204 156.045995 
L 410.698204 117.640414 
L 408.180875 117.640414 
z
" style="opacity:0.2;"/>
   </g>
   <g id="patch_96">
    <path clip-path="url(#pff878c6dbe)" d="M 411.327536 156.045995 
L 413.844865 156.045995 
L 413.844865 114.028099 
L 411.327536 114.028099 
z
" style="opacity:0.2;"/>
   </g>
   <g id="patch_97">
    <path clip-path="url(#pff878c6dbe)" d="M 414.474197 156.045995 
L 416.991526 156.045995 
L 416.991526 95.286189 
L 414.474197 95.286189 
z
" style="opacity:0.2;"/>
   </g>
   <g id="patch_98">
    <path clip-path="url(#pff878c6dbe)" d="M 417.620858 156.045995 
L 420.138187 156.045995 
L 420.138187 63.694852 
L 417.620858 63.694852 
z
" style="opacity:0.2;"/>
   </g>
   <g id="patch_99">
    <path clip-path="url(#pff878c6dbe)" d="M 420.767519 156.045995 
L 423.284848 156.045995 
L 423.284848 71.459992 
L 420.767519 71.459992 
z
" style="opacity:0.2;"/>
   </g>
   <g id="patch_100">
    <path clip-path="url(#pff878c6dbe)" d="M 423.91418 156.045995 
L 426.431509 156.045995 
L 426.431509 82.242855 
L 423.91418 82.242855 
z
" style="opacity:0.2;"/>
   </g>
   <g id="patch_101">
    <path clip-path="url(#pff878c6dbe)" d="M 427.060841 156.045995 
L 429.57817 156.045995 
L 429.57817 82.622233 
L 427.060841 82.622233 
z
" style="opacity:0.2;"/>
   </g>
   <g id="patch_102">
    <path clip-path="url(#pff878c6dbe)" d="M 430.207502 156.045995 
L 432.724831 156.045995 
L 432.724831 79.131403 
L 430.207502 79.131403 
z
" style="opacity:0.2;"/>
   </g>
   <g id="patch_103">
    <path clip-path="url(#pff878c6dbe)" d="M 433.354163 156.045995 
L 435.871492 156.045995 
L 435.871492 65.172841 
L 433.354163 65.172841 
z
" style="opacity:0.2;"/>
   </g>
   <g id="patch_104">
    <path clip-path="url(#pff878c6dbe)" d="M 436.500824 156.045995 
L 439.018153 156.045995 
L 439.018153 63.203916 
L 436.500824 63.203916 
z
" style="opacity:0.2;"/>
   </g>
   <g id="patch_105">
    <path clip-path="url(#pff878c6dbe)" d="M 439.647485 156.045995 
L 442.164814 156.045995 
L 442.164814 56.80219 
L 439.647485 56.80219 
z
" style="opacity:0.2;"/>
   </g>
   <g id="matplotlib.axis_3">
    <g id="xtick_4">
     <g id="line2d_7">
      <g>
       <use style="stroke:#000000;stroke-width:0.8;" x="310.151613" xlink:href="#mf22cb3467a" y="157.045995"/>
      </g>
     </g>
     <g id="text_9">
      <!-- −3 -->
      <defs>
       <path d="M 10.59375 35.5 
L 73.1875 35.5 
L 73.1875 27.203125 
L 10.59375 27.203125 
z
" id="DejaVuSans-8722"/>
       <path d="M 40.578125 39.3125 
Q 47.65625 37.796875 51.625 33 
Q 55.609375 28.21875 55.609375 21.1875 
Q 55.609375 10.40625 48.1875 4.484375 
Q 40.765625 -1.421875 27.09375 -1.421875 
Q 22.515625 -1.421875 17.65625 -0.515625 
Q 12.796875 0.390625 7.625 2.203125 
L 7.625 11.71875 
Q 11.71875 9.328125 16.59375 8.109375 
Q 21.484375 6.890625 26.8125 6.890625 
Q 36.078125 6.890625 40.9375 10.546875 
Q 45.796875 14.203125 45.796875 21.1875 
Q 45.796875 27.640625 41.28125 31.265625 
Q 36.765625 34.90625 28.71875 34.90625 
L 20.21875 34.90625 
L 20.21875 43.015625 
L 29.109375 43.015625 
Q 36.375 43.015625 40.234375 45.921875 
Q 44.09375 48.828125 44.09375 54.296875 
Q 44.09375 59.90625 40.109375 62.90625 
Q 36.140625 65.921875 28.71875 65.921875 
Q 24.65625 65.921875 20.015625 65.03125 
Q 15.375 64.15625 9.8125 62.3125 
L 9.8125 71.09375 
Q 15.4375 72.65625 20.34375 73.4375 
Q 25.25 74.21875 29.59375 74.21875 
Q 40.828125 74.21875 47.359375 69.109375 
Q 53.90625 64.015625 53.90625 55.328125 
Q 53.90625 49.265625 50.4375 45.09375 
Q 46.96875 40.921875 40.578125 39.3125 
z
" id="DejaVuSans-51"/>
      </defs>
      <g transform="translate(302.780519 171.644432)scale(0.1 -0.1)">
       <use xlink:href="#DejaVuSans-8722"/>
       <use x="83.789062" xlink:href="#DejaVuSans-51"/>
      </g>
     </g>
    </g>
    <g id="xtick_5">
     <g id="line2d_8">
      <g>
       <use style="stroke:#000000;stroke-width:0.8;" x="345.925944" xlink:href="#mf22cb3467a" y="157.045995"/>
      </g>
     </g>
     <g id="text_10">
      <!-- −2 -->
      <g transform="translate(338.55485 171.644432)scale(0.1 -0.1)">
       <use xlink:href="#DejaVuSans-8722"/>
       <use x="83.789062" xlink:href="#DejaVuSans-50"/>
      </g>
     </g>
    </g>
    <g id="xtick_6">
     <g id="line2d_9">
      <g>
       <use style="stroke:#000000;stroke-width:0.8;" x="381.700275" xlink:href="#mf22cb3467a" y="157.045995"/>
      </g>
     </g>
     <g id="text_11">
      <!-- −1 -->
      <g transform="translate(374.329181 171.644432)scale(0.1 -0.1)">
       <use xlink:href="#DejaVuSans-8722"/>
       <use x="83.789062" xlink:href="#DejaVuSans-49"/>
      </g>
     </g>
    </g>
    <g id="xtick_7">
     <g id="line2d_10">
      <g>
       <use style="stroke:#000000;stroke-width:0.8;" x="417.474606" xlink:href="#mf22cb3467a" y="157.045995"/>
      </g>
     </g>
     <g id="text_12">
      <!-- 0 -->
      <g transform="translate(414.293356 171.644432)scale(0.1 -0.1)">
       <use xlink:href="#DejaVuSans-48"/>
      </g>
     </g>
    </g>
    <g id="text_13">
     <!-- $\log_{10}K_\mathrm{S}$ -->
     <defs>
      <path d="M 45.40625 27.984375 
Q 45.40625 37.75 41.375 43.109375 
Q 37.359375 48.484375 30.078125 48.484375 
Q 22.859375 48.484375 18.828125 43.109375 
Q 14.796875 37.75 14.796875 27.984375 
Q 14.796875 18.265625 18.828125 12.890625 
Q 22.859375 7.515625 30.078125 7.515625 
Q 37.359375 7.515625 41.375 12.890625 
Q 45.40625 18.265625 45.40625 27.984375 
z
M 54.390625 6.78125 
Q 54.390625 -7.171875 48.1875 -13.984375 
Q 42 -20.796875 29.203125 -20.796875 
Q 24.46875 -20.796875 20.265625 -20.09375 
Q 16.0625 -19.390625 12.109375 -17.921875 
L 12.109375 -9.1875 
Q 16.0625 -11.328125 19.921875 -12.34375 
Q 23.78125 -13.375 27.78125 -13.375 
Q 36.625 -13.375 41.015625 -8.765625 
Q 45.40625 -4.15625 45.40625 5.171875 
L 45.40625 9.625 
Q 42.625 4.78125 38.28125 2.390625 
Q 33.9375 0 27.875 0 
Q 17.828125 0 11.671875 7.65625 
Q 5.515625 15.328125 5.515625 27.984375 
Q 5.515625 40.671875 11.671875 48.328125 
Q 17.828125 56 27.875 56 
Q 33.9375 56 38.28125 53.609375 
Q 42.625 51.21875 45.40625 46.390625 
L 45.40625 54.6875 
L 54.390625 54.6875 
z
" id="DejaVuSans-103"/>
     </defs>
     <g transform="translate(345.912954 185.32412)scale(0.1 -0.1)">
      <use transform="translate(0 0.015625)" xlink:href="#DejaVuSans-108"/>
      <use transform="translate(27.783203 0.015625)" xlink:href="#DejaVuSans-111"/>
      <use transform="translate(88.964844 0.015625)" xlink:href="#DejaVuSans-103"/>
      <use transform="translate(153.398438 -16.390625)scale(0.7)" xlink:href="#DejaVuSans-49"/>
      <use transform="translate(197.93457 -16.390625)scale(0.7)" xlink:href="#DejaVuSans-48"/>
      <use transform="translate(245.205078 0.015625)" xlink:href="#DejaVuSans-Oblique-75"/>
      <use transform="translate(310.78125 -16.390625)scale(0.7)" xlink:href="#DejaVuSans-83"/>
     </g>
    </g>
   </g>
   <g id="matplotlib.axis_4">
    <g id="ytick_4">
     <g id="line2d_11">
      <g>
       <use style="stroke:#000000;stroke-width:0.8;" x="276.625908" xlink:href="#m66e5e39086" y="156.045995"/>
      </g>
     </g>
     <g id="text_14">
      <!-- 0 -->
      <g transform="translate(263.263408 159.845213)scale(0.1 -0.1)">
       <use xlink:href="#DejaVuSans-48"/>
      </g>
     </g>
    </g>
    <g id="ytick_5">
     <g id="line2d_12">
      <g>
       <use style="stroke:#000000;stroke-width:0.8;" x="276.625908" xlink:href="#m66e5e39086" y="130.56618"/>
      </g>
     </g>
     <g id="text_15">
      <!-- 250 -->
      <g transform="translate(250.538408 134.365399)scale(0.1 -0.1)">
       <use xlink:href="#DejaVuSans-50"/>
       <use x="63.623047" xlink:href="#DejaVuSans-53"/>
       <use x="127.246094" xlink:href="#DejaVuSans-48"/>
      </g>
     </g>
    </g>
    <g id="ytick_6">
     <g id="line2d_13">
      <g>
       <use style="stroke:#000000;stroke-width:0.8;" x="276.625908" xlink:href="#m66e5e39086" y="105.086365"/>
      </g>
     </g>
     <g id="text_16">
      <!-- 500 -->
      <g transform="translate(250.538408 108.885584)scale(0.1 -0.1)">
       <use xlink:href="#DejaVuSans-53"/>
       <use x="63.623047" xlink:href="#DejaVuSans-48"/>
       <use x="127.246094" xlink:href="#DejaVuSans-48"/>
      </g>
     </g>
    </g>
    <g id="ytick_7">
     <g id="line2d_14">
      <g>
       <use style="stroke:#000000;stroke-width:0.8;" x="276.625908" xlink:href="#m66e5e39086" y="79.606551"/>
      </g>
     </g>
     <g id="text_17">
      <!-- 750 -->
      <defs>
       <path d="M 8.203125 72.90625 
L 55.078125 72.90625 
L 55.078125 68.703125 
L 28.609375 0 
L 18.3125 0 
L 43.21875 64.59375 
L 8.203125 64.59375 
z
" id="DejaVuSans-55"/>
      </defs>
      <g transform="translate(250.538408 83.405769)scale(0.1 -0.1)">
       <use xlink:href="#DejaVuSans-55"/>
       <use x="63.623047" xlink:href="#DejaVuSans-53"/>
       <use x="127.246094" xlink:href="#DejaVuSans-48"/>
      </g>
     </g>
    </g>
    <g id="ytick_8">
     <g id="line2d_15">
      <g>
       <use style="stroke:#000000;stroke-width:0.8;" x="276.625908" xlink:href="#m66e5e39086" y="54.126736"/>
      </g>
     </g>
     <g id="text_18">
      <!-- 1000 -->
      <g transform="translate(244.175908 57.925955)scale(0.1 -0.1)">
       <use xlink:href="#DejaVuSans-49"/>
       <use x="63.623047" xlink:href="#DejaVuSans-48"/>
       <use x="127.246094" xlink:href="#DejaVuSans-48"/>
       <use x="190.869141" xlink:href="#DejaVuSans-48"/>
      </g>
     </g>
    </g>
   </g>
   <g id="patch_106">
    <path d="M 276.625908 156.045995 
L 276.625908 51.84 
" style="fill:none;stroke:#000000;stroke-linecap:square;stroke-linejoin:miter;stroke-width:0.8;"/>
   </g>
   <g id="patch_107">
    <path d="M 277.625908 157.045995 
L 450 157.045995 
" style="fill:none;stroke:#000000;stroke-linecap:square;stroke-linejoin:miter;stroke-width:0.8;"/>
   </g>
  </g>
  <g id="axes_3">
   <g id="patch_108">
    <path d="M 58.17 299.76 
L 230.544092 299.76 
L 230.544092 195.554005 
L 58.17 195.554005 
z
" style="fill:#ffffff;"/>
   </g>
   <g id="patch_109">
    <path clip-path="url(#p336e0fc16f)" d="M 66.005186 299.76 
L 68.522515 299.76 
L 68.522515 299.103402 
L 66.005186 299.103402 
z
" style="opacity:0.2;"/>
   </g>
   <g id="patch_110">
    <path clip-path="url(#p336e0fc16f)" d="M 69.151847 299.76 
L 71.669176 299.76 
L 71.669176 299.76 
L 69.151847 299.76 
z
" style="opacity:0.2;"/>
   </g>
   <g id="patch_111">
    <path clip-path="url(#p336e0fc16f)" d="M 72.298508 299.76 
L 74.815837 299.76 
L 74.815837 299.76 
L 72.298508 299.76 
z
" style="opacity:0.2;"/>
   </g>
   <g id="patch_112">
    <path clip-path="url(#p336e0fc16f)" d="M 75.445169 299.76 
L 77.962498 299.76 
L 77.962498 299.76 
L 75.445169 299.76 
z
" style="opacity:0.2;"/>
   </g>
   <g id="patch_113">
    <path clip-path="url(#p336e0fc16f)" d="M 78.59183 299.76 
L 81.109159 299.76 
L 81.109159 299.604285 
L 78.59183 299.604285 
z
" style="opacity:0.2;"/>
   </g>
   <g id="patch_114">
    <path clip-path="url(#p336e0fc16f)" d="M 81.738491 299.76 
L 84.25582 299.76 
L 84.25582 299.682143 
L 81.738491 299.682143 
z
" style="opacity:0.2;"/>
   </g>
   <g id="patch_115">
    <path clip-path="url(#p336e0fc16f)" d="M 84.885152 299.76 
L 87.402481 299.76 
L 87.402481 299.76 
L 84.885152 299.76 
z
" style="opacity:0.2;"/>
   </g>
   <g id="patch_116">
    <path clip-path="url(#p336e0fc16f)" d="M 88.031813 299.76 
L 90.549142 299.76 
L 90.549142 299.682143 
L 88.031813 299.682143 
z
" style="opacity:0.2;"/>
   </g>
   <g id="patch_117">
    <path clip-path="url(#p336e0fc16f)" d="M 91.178474 299.76 
L 93.695803 299.76 
L 93.695803 299.409641 
L 91.178474 299.409641 
z
" style="opacity:0.2;"/>
   </g>
   <g id="patch_118">
    <path clip-path="url(#p336e0fc16f)" d="M 94.325135 299.76 
L 96.842464 299.76 
L 96.842464 299.111188 
L 94.325135 299.111188 
z
" style="opacity:0.2;"/>
   </g>
   <g id="patch_119">
    <path clip-path="url(#p336e0fc16f)" d="M 97.471796 299.76 
L 99.989125 299.76 
L 99.989125 299.427808 
L 97.471796 299.427808 
z
" style="opacity:0.2;"/>
   </g>
   <g id="patch_120">
    <path clip-path="url(#p336e0fc16f)" d="M 100.618457 299.76 
L 103.135786 299.76 
L 103.135786 298.571005 
L 100.618457 298.571005 
z
" style="opacity:0.2;"/>
   </g>
   <g id="patch_121">
    <path clip-path="url(#p336e0fc16f)" d="M 103.765118 299.76 
L 106.282447 299.76 
L 106.282447 298.40323 
L 103.765118 298.40323 
z
" style="opacity:0.2;"/>
   </g>
   <g id="patch_122">
    <path clip-path="url(#p336e0fc16f)" d="M 106.911779 299.76 
L 109.429108 299.76 
L 109.429108 298.119642 
L 106.911779 298.119642 
z
" style="opacity:0.2;"/>
   </g>
   <g id="patch_123">
    <path clip-path="url(#p336e0fc16f)" d="M 110.058441 299.76 
L 112.575769 299.76 
L 112.575769 297.414401 
L 110.058441 297.414401 
z
" style="opacity:0.2;"/>
   </g>
   <g id="patch_124">
    <path clip-path="url(#p336e0fc16f)" d="M 113.205102 299.76 
L 115.72243 299.76 
L 115.72243 296.506761 
L 113.205102 296.506761 
z
" style="opacity:0.2;"/>
   </g>
   <g id="patch_125">
    <path clip-path="url(#p336e0fc16f)" d="M 116.351763 299.76 
L 118.869091 299.76 
L 118.869091 295.323889 
L 116.351763 295.323889 
z
" style="opacity:0.2;"/>
   </g>
   <g id="patch_126">
    <path clip-path="url(#p336e0fc16f)" d="M 119.498424 299.76 
L 122.015752 299.76 
L 122.015752 294.032599 
L 119.498424 294.032599 
z
" style="opacity:0.2;"/>
   </g>
   <g id="patch_127">
    <path clip-path="url(#p336e0fc16f)" d="M 122.645085 299.76 
L 125.162413 299.76 
L 125.162413 291.678473 
L 122.645085 291.678473 
z
" style="opacity:0.2;"/>
   </g>
   <g id="patch_128">
    <path clip-path="url(#p336e0fc16f)" d="M 125.791746 299.76 
L 128.309075 299.76 
L 128.309075 288.427853 
L 125.791746 288.427853 
z
" style="opacity:0.2;"/>
   </g>
   <g id="patch_129">
    <path clip-path="url(#p336e0fc16f)" d="M 128.938407 299.76 
L 131.455736 299.76 
L 131.455736 286.75471 
L 128.938407 286.75471 
z
" style="opacity:0.2;"/>
   </g>
   <g id="patch_130">
    <path clip-path="url(#p336e0fc16f)" d="M 132.085068 299.76 
L 134.602397 299.76 
L 134.602397 283.723796 
L 132.085068 283.723796 
z
" style="opacity:0.2;"/>
   </g>
   <g id="patch_131">
    <path clip-path="url(#p336e0fc16f)" d="M 135.231729 299.76 
L 137.749058 299.76 
L 137.749058 279.105639 
L 135.231729 279.105639 
z
" style="opacity:0.2;"/>
   </g>
   <g id="patch_132">
    <path clip-path="url(#p336e0fc16f)" d="M 138.37839 299.76 
L 140.895719 299.76 
L 140.895719 276.540167 
L 138.37839 276.540167 
z
" style="opacity:0.2;"/>
   </g>
   <g id="patch_133">
    <path clip-path="url(#p336e0fc16f)" d="M 141.525051 299.76 
L 144.04238 299.76 
L 144.04238 268.610271 
L 141.525051 268.610271 
z
" style="opacity:0.2;"/>
   </g>
   <g id="patch_134">
    <path clip-path="url(#p336e0fc16f)" d="M 144.671712 299.76 
L 147.189041 299.76 
L 147.189041 259.718598 
L 144.671712 259.718598 
z
" style="opacity:0.2;"/>
   </g>
   <g id="patch_135">
    <path clip-path="url(#p336e0fc16f)" d="M 147.818373 299.76 
L 150.335702 299.76 
L 150.335702 246.356015 
L 147.818373 246.356015 
z
" style="opacity:0.2;"/>
   </g>
   <g id="patch_136">
    <path clip-path="url(#p336e0fc16f)" d="M 150.965034 299.76 
L 153.482363 299.76 
L 153.482363 231.186252 
L 150.965034 231.186252 
z
" style="opacity:0.2;"/>
   </g>
   <g id="patch_137">
    <path clip-path="url(#p336e0fc16f)" d="M 154.111695 299.76 
L 156.629024 299.76 
L 156.629024 220.555512 
L 154.111695 220.555512 
z
" style="opacity:0.2;"/>
   </g>
   <g id="patch_138">
    <path clip-path="url(#p336e0fc16f)" d="M 157.258356 299.76 
L 159.775685 299.76 
L 159.775685 205.456244 
L 157.258356 205.456244 
z
" style="opacity:0.2;"/>
   </g>
   <g id="patch_139">
    <path clip-path="url(#p336e0fc16f)" d="M 160.405017 299.76 
L 162.922346 299.76 
L 162.922346 200.516196 
L 160.405017 200.516196 
z
" style="opacity:0.2;"/>
   </g>
   <g id="patch_140">
    <path clip-path="url(#p336e0fc16f)" d="M 163.551678 299.76 
L 166.069007 299.76 
L 166.069007 200.681302 
L 163.551678 200.681302 
z
" style="opacity:0.2;"/>
   </g>
   <g id="patch_141">
    <path clip-path="url(#p336e0fc16f)" d="M 166.698339 299.76 
L 169.215668 299.76 
L 169.215668 212.806063 
L 166.698339 212.806063 
z
" style="opacity:0.2;"/>
   </g>
   <g id="patch_142">
    <path clip-path="url(#p336e0fc16f)" d="M 169.845 299.76 
L 172.362329 299.76 
L 172.362329 231.892322 
L 169.845 231.892322 
z
" style="opacity:0.2;"/>
   </g>
   <g id="patch_143">
    <path clip-path="url(#p336e0fc16f)" d="M 172.991661 299.76 
L 175.50899 299.76 
L 175.50899 260.355174 
L 172.991661 260.355174 
z
" style="opacity:0.2;"/>
   </g>
   <g id="patch_144">
    <path clip-path="url(#p336e0fc16f)" d="M 176.138322 299.76 
L 178.655651 299.76 
L 178.655651 283.127049 
L 176.138322 283.127049 
z
" style="opacity:0.2;"/>
   </g>
   <g id="patch_145">
    <path clip-path="url(#p336e0fc16f)" d="M 179.284983 299.76 
L 181.802312 299.76 
L 181.802312 293.4089 
L 179.284983 293.4089 
z
" style="opacity:0.2;"/>
   </g>
   <g id="patch_146">
    <path clip-path="url(#p336e0fc16f)" d="M 182.431644 299.76 
L 184.948973 299.76 
L 184.948973 297.863464 
L 182.431644 297.863464 
z
" style="opacity:0.2;"/>
   </g>
   <g id="patch_147">
    <path clip-path="url(#p336e0fc16f)" d="M 185.578305 299.76 
L 188.095634 299.76 
L 188.095634 299.090945 
L 185.578305 299.090945 
z
" style="opacity:0.2;"/>
   </g>
   <g id="patch_148">
    <path clip-path="url(#p336e0fc16f)" d="M 188.724966 299.76 
L 191.242295 299.76 
L 191.242295 299.441274 
L 188.724966 299.441274 
z
" style="opacity:0.2;"/>
   </g>
   <g id="patch_149">
    <path clip-path="url(#p336e0fc16f)" d="M 191.871627 299.76 
L 194.388956 299.76 
L 194.388956 299.348695 
L 191.871627 299.348695 
z
" style="opacity:0.2;"/>
   </g>
   <g id="patch_150">
    <path clip-path="url(#p336e0fc16f)" d="M 195.018289 299.76 
L 197.535617 299.76 
L 197.535617 299.566774 
L 195.018289 299.566774 
z
" style="opacity:0.2;"/>
   </g>
   <g id="patch_151">
    <path clip-path="url(#p336e0fc16f)" d="M 198.16495 299.76 
L 200.682278 299.76 
L 200.682278 299.461748 
L 198.16495 299.461748 
z
" style="opacity:0.2;"/>
   </g>
   <g id="patch_152">
    <path clip-path="url(#p336e0fc16f)" d="M 201.311611 299.76 
L 203.828939 299.76 
L 203.828939 299.450228 
L 201.311611 299.450228 
z
" style="opacity:0.2;"/>
   </g>
   <g id="patch_153">
    <path clip-path="url(#p336e0fc16f)" d="M 204.458272 299.76 
L 206.9756 299.76 
L 206.9756 299.51152 
L 204.458272 299.51152 
z
" style="opacity:0.2;"/>
   </g>
   <g id="patch_154">
    <path clip-path="url(#p336e0fc16f)" d="M 207.604933 299.76 
L 210.122261 299.76 
L 210.122261 299.658461 
L 207.604933 299.658461 
z
" style="opacity:0.2;"/>
   </g>
   <g id="patch_155">
    <path clip-path="url(#p336e0fc16f)" d="M 210.751594 299.76 
L 213.268923 299.76 
L 213.268923 298.428839 
L 210.751594 298.428839 
z
" style="opacity:0.2;"/>
   </g>
   <g id="patch_156">
    <path clip-path="url(#p336e0fc16f)" d="M 213.898255 299.76 
L 216.415584 299.76 
L 216.415584 299.019425 
L 213.898255 299.019425 
z
" style="opacity:0.2;"/>
   </g>
   <g id="patch_157">
    <path clip-path="url(#p336e0fc16f)" d="M 217.044916 299.76 
L 219.562245 299.76 
L 219.562245 299.602122 
L 217.044916 299.602122 
z
" style="opacity:0.2;"/>
   </g>
   <g id="patch_158">
    <path clip-path="url(#p336e0fc16f)" d="M 220.191577 299.76 
L 222.708906 299.76 
L 222.708906 299.756756 
L 220.191577 299.756756 
z
" style="opacity:0.2;"/>
   </g>
   <g id="matplotlib.axis_5">
    <g id="xtick_8">
     <g id="line2d_16">
      <g>
       <use style="stroke:#000000;stroke-width:0.8;" x="65.69052" xlink:href="#mf22cb3467a" y="300.76"/>
      </g>
     </g>
     <g id="text_19">
      <!-- −4 -->
      <g transform="translate(58.319426 315.358437)scale(0.1 -0.1)">
       <use xlink:href="#DejaVuSans-8722"/>
       <use x="83.789062" xlink:href="#DejaVuSans-52"/>
      </g>
     </g>
    </g>
    <g id="xtick_9">
     <g id="line2d_17">
      <g>
       <use style="stroke:#000000;stroke-width:0.8;" x="120.585719" xlink:href="#mf22cb3467a" y="300.76"/>
      </g>
     </g>
     <g id="text_20">
      <!-- −2 -->
      <g transform="translate(113.214626 315.358437)scale(0.1 -0.1)">
       <use xlink:href="#DejaVuSans-8722"/>
       <use x="83.789062" xlink:href="#DejaVuSans-50"/>
      </g>
     </g>
    </g>
    <g id="xtick_10">
     <g id="line2d_18">
      <g>
       <use style="stroke:#000000;stroke-width:0.8;" x="175.480919" xlink:href="#mf22cb3467a" y="300.76"/>
      </g>
     </g>
     <g id="text_21">
      <!-- 0 -->
      <g transform="translate(172.299669 315.358437)scale(0.1 -0.1)">
       <use xlink:href="#DejaVuSans-48"/>
      </g>
     </g>
    </g>
    <g id="xtick_11">
     <g id="line2d_19">
      <g>
       <use style="stroke:#000000;stroke-width:0.8;" x="230.376118" xlink:href="#mf22cb3467a" y="300.76"/>
      </g>
     </g>
     <g id="text_22">
      <!-- 2 -->
      <g transform="translate(227.194868 315.358437)scale(0.1 -0.1)">
       <use xlink:href="#DejaVuSans-50"/>
      </g>
     </g>
    </g>
    <g id="text_23">
     <!-- $\log_{10}K_\mathrm{A}$ -->
     <defs>
      <path d="M 34.1875 63.1875 
L 20.796875 26.90625 
L 47.609375 26.90625 
z
M 28.609375 72.90625 
L 39.796875 72.90625 
L 67.578125 0 
L 57.328125 0 
L 50.6875 18.703125 
L 17.828125 18.703125 
L 11.1875 0 
L 0.78125 0 
z
" id="DejaVuSans-65"/>
     </defs>
     <g transform="translate(126.257046 329.038125)scale(0.1 -0.1)">
      <use transform="translate(0 0.015625)" xlink:href="#DejaVuSans-108"/>
      <use transform="translate(27.783203 0.015625)" xlink:href="#DejaVuSans-111"/>
      <use transform="translate(88.964844 0.015625)" xlink:href="#DejaVuSans-103"/>
      <use transform="translate(153.398438 -16.390625)scale(0.7)" xlink:href="#DejaVuSans-49"/>
      <use transform="translate(197.93457 -16.390625)scale(0.7)" xlink:href="#DejaVuSans-48"/>
      <use transform="translate(245.205078 0.015625)" xlink:href="#DejaVuSans-Oblique-75"/>
      <use transform="translate(310.78125 -16.390625)scale(0.7)" xlink:href="#DejaVuSans-65"/>
     </g>
    </g>
   </g>
   <g id="matplotlib.axis_6">
    <g id="ytick_9">
     <g id="line2d_20">
      <g>
       <use style="stroke:#000000;stroke-width:0.8;" x="57.17" xlink:href="#m66e5e39086" y="299.76"/>
      </g>
     </g>
     <g id="text_24">
      <!-- 0 -->
      <g transform="translate(43.8075 303.559219)scale(0.1 -0.1)">
       <use xlink:href="#DejaVuSans-48"/>
      </g>
     </g>
    </g>
    <g id="ytick_10">
     <g id="line2d_21">
      <g>
       <use style="stroke:#000000;stroke-width:0.8;" x="57.17" xlink:href="#m66e5e39086" y="260.831268"/>
      </g>
     </g>
     <g id="text_25">
      <!-- 500 -->
      <g transform="translate(31.0825 264.630486)scale(0.1 -0.1)">
       <use xlink:href="#DejaVuSans-53"/>
       <use x="63.623047" xlink:href="#DejaVuSans-48"/>
       <use x="127.246094" xlink:href="#DejaVuSans-48"/>
      </g>
     </g>
    </g>
    <g id="ytick_11">
     <g id="line2d_22">
      <g>
       <use style="stroke:#000000;stroke-width:0.8;" x="57.17" xlink:href="#m66e5e39086" y="221.902535"/>
      </g>
     </g>
     <g id="text_26">
      <!-- 1000 -->
      <g transform="translate(24.72 225.701754)scale(0.1 -0.1)">
       <use xlink:href="#DejaVuSans-49"/>
       <use x="63.623047" xlink:href="#DejaVuSans-48"/>
       <use x="127.246094" xlink:href="#DejaVuSans-48"/>
       <use x="190.869141" xlink:href="#DejaVuSans-48"/>
      </g>
     </g>
    </g>
    <g id="text_27">
     <!-- Duplications -->
     <g transform="translate(18.640313 278.623409)rotate(-90)scale(0.1 -0.1)">
      <use xlink:href="#DejaVuSans-68"/>
      <use x="77.001953" xlink:href="#DejaVuSans-117"/>
      <use x="140.380859" xlink:href="#DejaVuSans-112"/>
      <use x="203.857422" xlink:href="#DejaVuSans-108"/>
      <use x="231.640625" xlink:href="#DejaVuSans-105"/>
      <use x="259.423828" xlink:href="#DejaVuSans-99"/>
      <use x="314.404297" xlink:href="#DejaVuSans-97"/>
      <use x="375.683594" xlink:href="#DejaVuSans-116"/>
      <use x="414.892578" xlink:href="#DejaVuSans-105"/>
      <use x="442.675781" xlink:href="#DejaVuSans-111"/>
      <use x="503.857422" xlink:href="#DejaVuSans-110"/>
      <use x="567.236328" xlink:href="#DejaVuSans-115"/>
     </g>
    </g>
   </g>
   <g id="patch_159">
    <path d="M 57.17 299.76 
L 57.17 195.554005 
" style="fill:none;stroke:#000000;stroke-linecap:square;stroke-linejoin:miter;stroke-width:0.8;"/>
   </g>
   <g id="patch_160">
    <path d="M 58.17 300.76 
L 230.544092 300.76 
" style="fill:none;stroke:#000000;stroke-linecap:square;stroke-linejoin:miter;stroke-width:0.8;"/>
   </g>
  </g>
  <g id="axes_4">
   <g id="patch_161">
    <path d="M 277.625908 299.76 
L 450 299.76 
L 450 195.554005 
L 277.625908 195.554005 
z
" style="fill:#ffffff;"/>
   </g>
   <g id="patch_162">
    <path clip-path="url(#p9583881353)" d="M 285.461094 299.76 
L 287.978423 299.76 
L 287.978423 294.470365 
L 285.461094 294.470365 
z
" style="opacity:0.2;"/>
   </g>
   <g id="patch_163">
    <path clip-path="url(#p9583881353)" d="M 288.607755 299.76 
L 291.125084 299.76 
L 291.125084 299.662583 
L 288.607755 299.662583 
z
" style="opacity:0.2;"/>
   </g>
   <g id="patch_164">
    <path clip-path="url(#p9583881353)" d="M 291.754416 299.76 
L 294.271745 299.76 
L 294.271745 299.684091 
L 291.754416 299.684091 
z
" style="opacity:0.2;"/>
   </g>
   <g id="patch_165">
    <path clip-path="url(#p9583881353)" d="M 294.901077 299.76 
L 297.418406 299.76 
L 297.418406 299.643606 
L 294.901077 299.643606 
z
" style="opacity:0.2;"/>
   </g>
   <g id="patch_166">
    <path clip-path="url(#p9583881353)" d="M 298.047739 299.76 
L 300.565067 299.76 
L 300.565067 299.552515 
L 298.047739 299.552515 
z
" style="opacity:0.2;"/>
   </g>
   <g id="patch_167">
    <path clip-path="url(#p9583881353)" d="M 301.1944 299.76 
L 303.711728 299.76 
L 303.711728 299.413348 
L 301.1944 299.413348 
z
" style="opacity:0.2;"/>
   </g>
   <g id="patch_168">
    <path clip-path="url(#p9583881353)" d="M 304.341061 299.76 
L 306.858389 299.76 
L 306.858389 299.505704 
L 304.341061 299.505704 
z
" style="opacity:0.2;"/>
   </g>
   <g id="patch_169">
    <path clip-path="url(#p9583881353)" d="M 307.487722 299.76 
L 310.00505 299.76 
L 310.00505 299.643606 
L 307.487722 299.643606 
z
" style="opacity:0.2;"/>
   </g>
   <g id="patch_170">
    <path clip-path="url(#p9583881353)" d="M 310.634383 299.76 
L 313.151711 299.76 
L 313.151711 299.258799 
L 310.634383 299.258799 
z
" style="opacity:0.2;"/>
   </g>
   <g id="patch_171">
    <path clip-path="url(#p9583881353)" d="M 313.781044 299.76 
L 316.298373 299.76 
L 316.298373 299.133749 
L 313.781044 299.133749 
z
" style="opacity:0.2;"/>
   </g>
   <g id="patch_172">
    <path clip-path="url(#p9583881353)" d="M 316.927705 299.76 
L 319.445034 299.76 
L 319.445034 299.135014 
L 316.927705 299.135014 
z
" style="opacity:0.2;"/>
   </g>
   <g id="patch_173">
    <path clip-path="url(#p9583881353)" d="M 320.074366 299.76 
L 322.591695 299.76 
L 322.591695 298.703415 
L 320.074366 298.703415 
z
" style="opacity:0.2;"/>
   </g>
   <g id="patch_174">
    <path clip-path="url(#p9583881353)" d="M 323.221027 299.76 
L 325.738356 299.76 
L 325.738356 298.467702 
L 323.221027 298.467702 
z
" style="opacity:0.2;"/>
   </g>
   <g id="patch_175">
    <path clip-path="url(#p9583881353)" d="M 326.367688 299.76 
L 328.885017 299.76 
L 328.885017 297.713542 
L 326.367688 297.713542 
z
" style="opacity:0.2;"/>
   </g>
   <g id="patch_176">
    <path clip-path="url(#p9583881353)" d="M 329.514349 299.76 
L 332.031678 299.76 
L 332.031678 296.115267 
L 329.514349 296.115267 
z
" style="opacity:0.2;"/>
   </g>
   <g id="patch_177">
    <path clip-path="url(#p9583881353)" d="M 332.66101 299.76 
L 335.178339 299.76 
L 335.178339 294.412348 
L 332.66101 294.412348 
z
" style="opacity:0.2;"/>
   </g>
   <g id="patch_178">
    <path clip-path="url(#p9583881353)" d="M 335.807671 299.76 
L 338.325 299.76 
L 338.325 289.770109 
L 335.807671 289.770109 
z
" style="opacity:0.2;"/>
   </g>
   <g id="patch_179">
    <path clip-path="url(#p9583881353)" d="M 338.954332 299.76 
L 341.471661 299.76 
L 341.471661 285.096813 
L 338.954332 285.096813 
z
" style="opacity:0.2;"/>
   </g>
   <g id="patch_180">
    <path clip-path="url(#p9583881353)" d="M 342.100993 299.76 
L 344.618322 299.76 
L 344.618322 274.521609 
L 342.100993 274.521609 
z
" style="opacity:0.2;"/>
   </g>
   <g id="patch_181">
    <path clip-path="url(#p9583881353)" d="M 345.247654 299.76 
L 347.764983 299.76 
L 347.764983 259.545064 
L 345.247654 259.545064 
z
" style="opacity:0.2;"/>
   </g>
   <g id="patch_182">
    <path clip-path="url(#p9583881353)" d="M 348.394315 299.76 
L 350.911644 299.76 
L 350.911644 234.049892 
L 348.394315 234.049892 
z
" style="opacity:0.2;"/>
   </g>
   <g id="patch_183">
    <path clip-path="url(#p9583881353)" d="M 351.540976 299.76 
L 354.058305 299.76 
L 354.058305 215.219872 
L 351.540976 215.219872 
z
" style="opacity:0.2;"/>
   </g>
   <g id="patch_184">
    <path clip-path="url(#p9583881353)" d="M 354.687637 299.76 
L 357.204966 299.76 
L 357.204966 205.515156 
L 354.687637 205.515156 
z
" style="opacity:0.2;"/>
   </g>
   <g id="patch_185">
    <path clip-path="url(#p9583881353)" d="M 357.834298 299.76 
L 360.351627 299.76 
L 360.351627 200.516196 
L 357.834298 200.516196 
z
" style="opacity:0.2;"/>
   </g>
   <g id="patch_186">
    <path clip-path="url(#p9583881353)" d="M 360.980959 299.76 
L 363.498288 299.76 
L 363.498288 210.083484 
L 360.980959 210.083484 
z
" style="opacity:0.2;"/>
   </g>
   <g id="patch_187">
    <path clip-path="url(#p9583881353)" d="M 364.12762 299.76 
L 366.644949 299.76 
L 366.644949 215.603311 
L 364.12762 215.603311 
z
" style="opacity:0.2;"/>
   </g>
   <g id="patch_188">
    <path clip-path="url(#p9583881353)" d="M 367.274281 299.76 
L 369.79161 299.76 
L 369.79161 227.64801 
L 367.274281 227.64801 
z
" style="opacity:0.2;"/>
   </g>
   <g id="patch_189">
    <path clip-path="url(#p9583881353)" d="M 370.420942 299.76 
L 372.938271 299.76 
L 372.938271 238.622682 
L 370.420942 238.622682 
z
" style="opacity:0.2;"/>
   </g>
   <g id="patch_190">
    <path clip-path="url(#p9583881353)" d="M 373.567603 299.76 
L 376.084932 299.76 
L 376.084932 252.314517 
L 373.567603 252.314517 
z
" style="opacity:0.2;"/>
   </g>
   <g id="patch_191">
    <path clip-path="url(#p9583881353)" d="M 376.714264 299.76 
L 379.231593 299.76 
L 379.231593 270.312838 
L 376.714264 270.312838 
z
" style="opacity:0.2;"/>
   </g>
   <g id="patch_192">
    <path clip-path="url(#p9583881353)" d="M 379.860925 299.76 
L 382.378254 299.76 
L 382.378254 283.037859 
L 379.860925 283.037859 
z
" style="opacity:0.2;"/>
   </g>
   <g id="patch_193">
    <path clip-path="url(#p9583881353)" d="M 383.007587 299.76 
L 385.524915 299.76 
L 385.524915 291.816851 
L 383.007587 291.816851 
z
" style="opacity:0.2;"/>
   </g>
   <g id="patch_194">
    <path clip-path="url(#p9583881353)" d="M 386.154248 299.76 
L 388.671576 299.76 
L 388.671576 294.013312 
L 386.154248 294.013312 
z
" style="opacity:0.2;"/>
   </g>
   <g id="patch_195">
    <path clip-path="url(#p9583881353)" d="M 389.300909 299.76 
L 391.818237 299.76 
L 391.818237 296.594964 
L 389.300909 296.594964 
z
" style="opacity:0.2;"/>
   </g>
   <g id="patch_196">
    <path clip-path="url(#p9583881353)" d="M 392.44757 299.76 
L 394.964898 299.76 
L 394.964898 297.936869 
L 392.44757 297.936869 
z
" style="opacity:0.2;"/>
   </g>
   <g id="patch_197">
    <path clip-path="url(#p9583881353)" d="M 395.594231 299.76 
L 398.111559 299.76 
L 398.111559 298.872472 
L 395.594231 298.872472 
z
" style="opacity:0.2;"/>
   </g>
   <g id="patch_198">
    <path clip-path="url(#p9583881353)" d="M 398.740892 299.76 
L 401.258221 299.76 
L 401.258221 299.122372 
L 398.740892 299.122372 
z
" style="opacity:0.2;"/>
   </g>
   <g id="patch_199">
    <path clip-path="url(#p9583881353)" d="M 401.887553 299.76 
L 404.404882 299.76 
L 404.404882 299.405419 
L 401.887553 299.405419 
z
" style="opacity:0.2;"/>
   </g>
   <g id="patch_200">
    <path clip-path="url(#p9583881353)" d="M 405.034214 299.76 
L 407.551543 299.76 
L 407.551543 299.497843 
L 405.034214 299.497843 
z
" style="opacity:0.2;"/>
   </g>
   <g id="patch_201">
    <path clip-path="url(#p9583881353)" d="M 408.180875 299.76 
L 410.698204 299.76 
L 410.698204 299.449811 
L 408.180875 299.449811 
z
" style="opacity:0.2;"/>
   </g>
   <g id="patch_202">
    <path clip-path="url(#p9583881353)" d="M 411.327536 299.76 
L 413.844865 299.76 
L 413.844865 299.529008 
L 411.327536 299.529008 
z
" style="opacity:0.2;"/>
   </g>
   <g id="patch_203">
    <path clip-path="url(#p9583881353)" d="M 414.474197 299.76 
L 416.991526 299.76 
L 416.991526 299.554124 
L 414.474197 299.554124 
z
" style="opacity:0.2;"/>
   </g>
   <g id="patch_204">
    <path clip-path="url(#p9583881353)" d="M 417.620858 299.76 
L 420.138187 299.76 
L 420.138187 299.638673 
L 417.620858 299.638673 
z
" style="opacity:0.2;"/>
   </g>
   <g id="patch_205">
    <path clip-path="url(#p9583881353)" d="M 420.767519 299.76 
L 423.284848 299.76 
L 423.284848 299.658531 
L 420.767519 299.658531 
z
" style="opacity:0.2;"/>
   </g>
   <g id="patch_206">
    <path clip-path="url(#p9583881353)" d="M 423.91418 299.76 
L 426.431509 299.76 
L 426.431509 299.559796 
L 423.91418 299.559796 
z
" style="opacity:0.2;"/>
   </g>
   <g id="patch_207">
    <path clip-path="url(#p9583881353)" d="M 427.060841 299.76 
L 429.57817 299.76 
L 429.57817 299.517541 
L 427.060841 299.517541 
z
" style="opacity:0.2;"/>
   </g>
   <g id="patch_208">
    <path clip-path="url(#p9583881353)" d="M 430.207502 299.76 
L 432.724831 299.76 
L 432.724831 299.710295 
L 430.207502 299.710295 
z
" style="opacity:0.2;"/>
   </g>
   <g id="patch_209">
    <path clip-path="url(#p9583881353)" d="M 433.354163 299.76 
L 435.871492 299.76 
L 435.871492 299.537836 
L 433.354163 299.537836 
z
" style="opacity:0.2;"/>
   </g>
   <g id="patch_210">
    <path clip-path="url(#p9583881353)" d="M 436.500824 299.76 
L 439.018153 299.76 
L 439.018153 299.642833 
L 436.500824 299.642833 
z
" style="opacity:0.2;"/>
   </g>
   <g id="patch_211">
    <path clip-path="url(#p9583881353)" d="M 439.647485 299.76 
L 442.164814 299.76 
L 442.164814 294.453205 
L 439.647485 294.453205 
z
" style="opacity:0.2;"/>
   </g>
   <g id="matplotlib.axis_7">
    <g id="xtick_12">
     <g id="line2d_23">
      <g>
       <use style="stroke:#000000;stroke-width:0.8;" x="316.640532" xlink:href="#mf22cb3467a" y="300.76"/>
      </g>
     </g>
     <g id="text_28">
      <!-- −2 -->
      <g transform="translate(309.269438 315.358437)scale(0.1 -0.1)">
       <use xlink:href="#DejaVuSans-8722"/>
       <use x="83.789062" xlink:href="#DejaVuSans-50"/>
      </g>
     </g>
    </g>
    <g id="xtick_13">
     <g id="line2d_24">
      <g>
       <use style="stroke:#000000;stroke-width:0.8;" x="379.628739" xlink:href="#mf22cb3467a" y="300.76"/>
      </g>
     </g>
     <g id="text_29">
      <!-- 0 -->
      <g transform="translate(376.447489 315.358437)scale(0.1 -0.1)">
       <use xlink:href="#DejaVuSans-48"/>
      </g>
     </g>
    </g>
    <g id="xtick_14">
     <g id="line2d_25">
      <g>
       <use style="stroke:#000000;stroke-width:0.8;" x="442.616946" xlink:href="#mf22cb3467a" y="300.76"/>
      </g>
     </g>
     <g id="text_30">
      <!-- 2 -->
      <g transform="translate(439.435696 315.358437)scale(0.1 -0.1)">
       <use xlink:href="#DejaVuSans-50"/>
      </g>
     </g>
    </g>
    <g id="text_31">
     <!-- $\log_{10}\omega$ -->
     <defs>
      <path d="M 21.390625 -1.421875 
Q 1.125 -1.421875 6.78125 27.59375 
Q 8.984375 39.0625 19.625 54.6875 
L 29.296875 54.6875 
Q 19.234375 39.0625 17 27.34375 
Q 12.796875 6.203125 23.734375 6.203125 
Q 33.84375 6.203125 38.71875 32.46875 
L 47.015625 32.46875 
Q 41.703125 6.0625 51.8125 6.203125 
Q 62.703125 6.296875 66.796875 27.34375 
Q 69.046875 39.0625 65.140625 54.6875 
L 74.8125 54.6875 
Q 79.296875 39.0625 77.09375 27.59375 
Q 71.53125 -1.46875 51.21875 -1.421875 
Q 37.9375 -1.375 39.109375 13.1875 
Q 34.28125 -1.421875 21.390625 -1.421875 
z
" id="DejaVuSans-Oblique-969"/>
     </defs>
     <g transform="translate(347.362954 329.038125)scale(0.1 -0.1)">
      <use transform="translate(0 0.015625)" xlink:href="#DejaVuSans-108"/>
      <use transform="translate(27.783203 0.015625)" xlink:href="#DejaVuSans-111"/>
      <use transform="translate(88.964844 0.015625)" xlink:href="#DejaVuSans-103"/>
      <use transform="translate(153.398438 -16.390625)scale(0.7)" xlink:href="#DejaVuSans-49"/>
      <use transform="translate(197.93457 -16.390625)scale(0.7)" xlink:href="#DejaVuSans-48"/>
      <use transform="translate(245.205078 0.015625)" xlink:href="#DejaVuSans-Oblique-969"/>
     </g>
    </g>
   </g>
   <g id="matplotlib.axis_8">
    <g id="ytick_12">
     <g id="line2d_26">
      <g>
       <use style="stroke:#000000;stroke-width:0.8;" x="276.625908" xlink:href="#m66e5e39086" y="299.76"/>
      </g>
     </g>
     <g id="text_32">
      <!-- 0 -->
      <g transform="translate(263.263408 303.559219)scale(0.1 -0.1)">
       <use xlink:href="#DejaVuSans-48"/>
      </g>
     </g>
    </g>
    <g id="ytick_13">
     <g id="line2d_27">
      <g>
       <use style="stroke:#000000;stroke-width:0.8;" x="276.625908" xlink:href="#m66e5e39086" y="261.805369"/>
      </g>
     </g>
     <g id="text_33">
      <!-- 500 -->
      <g transform="translate(250.538408 265.604587)scale(0.1 -0.1)">
       <use xlink:href="#DejaVuSans-53"/>
       <use x="63.623047" xlink:href="#DejaVuSans-48"/>
       <use x="127.246094" xlink:href="#DejaVuSans-48"/>
      </g>
     </g>
    </g>
    <g id="ytick_14">
     <g id="line2d_28">
      <g>
       <use style="stroke:#000000;stroke-width:0.8;" x="276.625908" xlink:href="#m66e5e39086" y="223.850737"/>
      </g>
     </g>
     <g id="text_34">
      <!-- 1000 -->
      <g transform="translate(244.175908 227.649956)scale(0.1 -0.1)">
       <use xlink:href="#DejaVuSans-49"/>
       <use x="63.623047" xlink:href="#DejaVuSans-48"/>
       <use x="127.246094" xlink:href="#DejaVuSans-48"/>
       <use x="190.869141" xlink:href="#DejaVuSans-48"/>
      </g>
     </g>
    </g>
   </g>
   <g id="patch_212">
    <path d="M 276.625908 299.76 
L 276.625908 195.554005 
" style="fill:none;stroke:#000000;stroke-linecap:square;stroke-linejoin:miter;stroke-width:0.8;"/>
   </g>
   <g id="patch_213">
    <path d="M 277.625908 300.76 
L 450 300.76 
" style="fill:none;stroke:#000000;stroke-linecap:square;stroke-linejoin:miter;stroke-width:0.8;"/>
   </g>
  </g>
  <g id="text_35">
   <!-- Vvi.cds.tsv -->
   <defs>
    <path d="M 28.609375 0 
L 0.78125 72.90625 
L 11.078125 72.90625 
L 34.1875 11.53125 
L 57.328125 72.90625 
L 67.578125 72.90625 
L 39.796875 0 
z
" id="DejaVuSans-86"/>
    <path d="M 2.984375 54.6875 
L 12.5 54.6875 
L 29.59375 8.796875 
L 46.6875 54.6875 
L 56.203125 54.6875 
L 35.6875 0 
L 23.484375 0 
z
" id="DejaVuSans-118"/>
    <path d="M 10.6875 12.40625 
L 21 12.40625 
L 21 0 
L 10.6875 0 
z
" id="DejaVuSans-46"/>
    <path d="M 45.40625 46.390625 
L 45.40625 75.984375 
L 54.390625 75.984375 
L 54.390625 0 
L 45.40625 0 
L 45.40625 8.203125 
Q 42.578125 3.328125 38.25 0.953125 
Q 33.9375 -1.421875 27.875 -1.421875 
Q 17.96875 -1.421875 11.734375 6.484375 
Q 5.515625 14.40625 5.515625 27.296875 
Q 5.515625 40.1875 11.734375 48.09375 
Q 17.96875 56 27.875 56 
Q 33.9375 56 38.25 53.625 
Q 42.578125 51.265625 45.40625 46.390625 
z
M 14.796875 27.296875 
Q 14.796875 17.390625 18.875 11.75 
Q 22.953125 6.109375 30.078125 6.109375 
Q 37.203125 6.109375 41.296875 11.75 
Q 45.40625 17.390625 45.40625 27.296875 
Q 45.40625 37.203125 41.296875 42.84375 
Q 37.203125 48.484375 30.078125 48.484375 
Q 22.953125 48.484375 18.875 42.84375 
Q 14.796875 37.203125 14.796875 27.296875 
z
" id="DejaVuSans-100"/>
   </defs>
   <g transform="translate(46.08 12.574125)scale(0.12 -0.12)">
    <use xlink:href="#DejaVuSans-86"/>
    <use x="68.408203" xlink:href="#DejaVuSans-118"/>
    <use x="127.587891" xlink:href="#DejaVuSans-105"/>
    <use x="155.371094" xlink:href="#DejaVuSans-46"/>
    <use x="187.158203" xlink:href="#DejaVuSans-99"/>
    <use x="242.138672" xlink:href="#DejaVuSans-100"/>
    <use x="305.615234" xlink:href="#DejaVuSans-115"/>
    <use x="357.714844" xlink:href="#DejaVuSans-46"/>
    <use x="389.501953" xlink:href="#DejaVuSans-116"/>
    <use x="428.710938" xlink:href="#DejaVuSans-115"/>
    <use x="480.810547" xlink:href="#DejaVuSans-118"/>
   </g>
  </g>
 </g>
 <defs>
  <clipPath id="p2335380d18">
   <rect height="104.205995" width="172.374092" x="58.17" y="51.84"/>
  </clipPath>
  <clipPath id="pff878c6dbe">
   <rect height="104.205995" width="172.374092" x="277.625908" y="51.84"/>
  </clipPath>
  <clipPath id="p336e0fc16f">
   <rect height="104.205995" width="172.374092" x="58.17" y="195.554005"/>
  </clipPath>
  <clipPath id="p9583881353">
   <rect height="104.205995" width="172.374092" x="277.625908" y="195.554005"/>
  </clipPath>
 </defs>
</svg>
